<svg width="22" height="20" viewBox="0 0 22 20" fill="none" xmlns="http://www.w3.org/2000/svg">
<path fill-rule="evenodd" clip-rule="evenodd" d="M20.2648 7.88263C20.2648 7.95234 20.2965 8.0192 20.3529 8.0685L21.9113 9.43111C22.1007 9.5967 21.9666 9.87984 21.6988 9.87984H19.9642C19.7981 9.87984 19.6635 9.99753 19.6635 10.1427V19.7371C19.6635 19.8823 19.5289 20 19.3629 20H13.9512C13.7852 20 13.6506 19.8823 13.6506 19.7371L13.671 13.8557C13.671 13.7105 13.3858 13.3998 13.2197 13.3998H8.70732C8.54127 13.3998 8.38925 13.2546 8.38925 13.3998V19.7371C8.38925 19.8823 8.25465 20 8.0886 20H2.67696C2.51092 20 2.37632 19.8823 2.37632 19.7371V10.1427C2.37632 9.99753 2.24171 9.87984 2.07567 9.87984H0.301249C0.0334015 9.87984 -0.100737 9.5967 0.0886602 9.43111L10.7874 0.0769903C10.9048 -0.0256633 11.0952 -0.0256635 11.2126 0.0769902L15.9935 4.25701C16.1829 4.4226 16.5067 4.74807 16.5067 4.51389V3.17688C16.5067 3.03171 16.6413 2.91402 16.8074 2.91402H19.9642C20.1302 2.91402 20.2648 3.03171 20.2648 3.17688V7.88263Z" fill="white"/>
</svg>
