<svg width="22" height="23" viewBox="0 0 22 23" fill="none" xmlns="http://www.w3.org/2000/svg">
<path d="M1.74988 10.1868C0.78345 10.1868 3.42457e-08 10.9702 7.64898e-08 11.9367C1.18734e-07 12.9031 0.783449 13.6865 1.74988 13.6865L20.1237 13.6865C21.0901 13.6865 21.8735 12.9031 21.8735 11.9366C21.8735 10.9702 21.0901 10.1868 20.1237 10.1868L1.74988 10.1868Z" fill="white"/>
<path d="M12.6866 2.56299C12.6866 1.59656 11.9032 0.81311 10.9368 0.81311V0.81311C9.97033 0.81311 9.18688 1.59656 9.18688 2.56299L9.18688 20.9368C9.18688 21.9032 9.97033 22.6866 10.9368 22.6866V22.6866C11.9032 22.6866 12.6866 21.9032 12.6866 20.9368L12.6866 2.56299Z" fill="white"/>
</svg>
