<svg width="200" height="289" viewBox="0 0 200 289" fill="none" xmlns="http://www.w3.org/2000/svg">
<path fill-rule="evenodd" clip-rule="evenodd" d="M0 117.742C0.370436 118.54 0.835712 119.294 1.40803 119.986C3.79639 123.237 7.57728 125.444 11.6347 125.719C15.7292 126.129 19.8172 124.353 22.6633 121.451C24.5141 119.53 26.4047 117.647 28.2959 115.764C30.3157 113.752 32.336 111.74 34.3088 109.681C36.3436 107.695 38.6761 105.863 41.503 105.203C48.0365 103.246 55.3349 107.284 57.851 113.46C59.0731 117.258 58.9515 121.569 57.0261 125.119C55.7115 127.387 53.8288 129.186 51.9475 130.983C51.1597 131.735 50.3723 132.488 49.6272 133.274C44.3425 138.551 39.0691 143.838 33.7614 149.099C31.1458 151.538 28.3823 154.244 27.6724 157.907C25.7235 164.81 30.3415 172.609 37.2742 174.375C42.0368 175.716 47.4905 174.407 50.9259 170.789C59.3553 162.358 67.788 153.931 76.2324 145.515C76.8343 144.932 77.4179 144.327 78.002 143.722C79.4729 142.198 80.9448 140.674 82.7064 139.481C86.6845 136.609 92.21 136.435 96.5271 138.642C97.5534 139.265 98.4798 140.037 99.4051 140.808C100.855 142.016 102.301 143.222 104.124 143.845C108.829 145.958 114.721 145.259 118.632 141.837C134.716 125.748 150.827 109.685 166.927 93.6038C167.254 93.2827 167.585 92.9632 167.917 92.6428L167.923 92.6379L167.927 92.6329C169.884 90.7448 171.877 88.8226 173.053 86.3489C174.379 82.8331 174.24 78.8125 172.863 75.3348C170.894 71.5145 167.309 68.38 163.022 67.5368C159.818 66.7499 156.421 67.3685 153.518 68.8725C151.317 70.2154 149.542 72.0616 147.768 73.9064C147.058 74.6452 146.347 75.3838 145.61 76.0899C144.858 76.8362 144.107 77.5833 143.357 78.331C141.997 79.685 140.64 81.041 139.284 82.3978L136.864 84.8197C134.567 87.119 132.269 89.4183 129.966 91.7115C128.626 93.0457 127.285 94.3779 125.939 95.7067C121.715 99.9692 114.639 100.969 109.45 97.9291C106.133 96.2079 103.809 92.8999 102.938 89.309C101.976 85.8916 102.92 82.2588 104.434 79.1498C105.747 76.8643 107.649 75.0622 109.549 73.2608C110.457 72.4008 111.364 71.541 112.207 70.6286C115.54 67.305 118.872 63.9794 122.203 60.653C125.331 57.53 128.457 54.406 131.584 51.2823C140.975 41.8992 150.366 32.5166 159.777 23.1567C162.717 20.296 163.986 16.053 163.587 12.0362C163.022 8.24556 160.988 4.6249 157.773 2.46249C152.622 -1.21044 144.893 -0.76436 140.367 3.73204C137.876 6.15019 135.431 8.61709 132.985 11.0845L132.943 11.1274L131.866 12.2129C130.659 13.4297 129.45 14.6451 128.234 15.8525C125.445 18.645 120.923 19.1584 117.391 17.5691C115.252 16.8326 113.68 15.2722 112.11 13.7129C110.533 12.147 108.958 10.5824 106.81 9.85406C103.376 8.76946 99.5145 8.69093 96.1707 10.1234C93.7984 11.3969 91.9236 13.3399 90.071 15.2607L90.0668 15.2649L90.0625 15.2691C89.801 15.5401 89.54 15.8106 89.278 16.0785C77.8414 27.4935 66.4072 38.9107 54.973 50.3278L53.2574 52.0401L41.657 63.6229L21.8971 83.3502C16.4227 88.8147 10.9478 94.2789 5.47251 99.7425C5.35372 99.8592 5.234 99.9762 5.11287 100.093L4.64478 100.546C2.91044 102.219 1.09065 103.975 0 106.1V117.742ZM0 69.4639C7.41342 62.0662 14.8292 54.6711 22.2478 47.2803C25.6564 43.8846 26.9555 38.6391 25.6883 34.0271C24.738 30.5229 22.2741 27.5052 19.1646 25.667C14.1907 22.8041 7.26131 23.4159 3.12406 27.5239C2.08271 28.5647 1.04135 29.6052 0 30.646V69.4639ZM177.187 204.78C180.696 205.729 183.719 208.189 185.56 211.293C188.428 216.259 187.815 223.177 183.7 227.308C163.089 247.866 142.484 268.431 121.882 289H83.0214C91.3861 280.647 99.7535 272.296 108.12 263.945L108.628 263.439L109.142 262.925L109.419 262.649C127.592 244.511 145.765 226.373 163.912 208.215C167.314 204.812 172.568 203.515 177.187 204.78ZM164.231 289H180.276C179.883 288.701 179.478 288.421 179.063 288.159C175.557 286.106 171.092 285.96 167.269 287.186C166.158 287.635 165.16 288.268 164.231 289ZM45.0209 289H5.29503C21.0628 273.265 36.8263 257.525 52.5658 241.769C55.9744 238.373 61.2244 237.072 65.8438 238.337C69.6482 239.354 72.8102 242.157 74.6549 245.582C76.417 249.368 76.401 253.905 74.6601 257.692C73.4422 259.925 71.6163 261.675 69.7956 263.42C69.1326 264.055 68.4706 264.69 67.8392 265.347C64.8963 268.307 61.938 271.251 58.9801 274.195L58.8534 274.321C54.9284 278.227 51.0043 282.132 47.1191 286.071C46.2745 286.948 45.5749 287.938 45.0209 289ZM199.569 124.555C198.751 120.851 196.155 117.739 192.988 115.747C189.483 113.694 185.018 113.548 181.195 114.773C178.612 115.818 176.643 117.851 174.728 119.828C174.46 120.105 174.192 120.381 173.925 120.653C161.181 133.392 148.427 146.122 135.673 158.852C119.235 175.26 102.796 191.667 86.3826 208.093C82.8641 211.538 82.4482 216.941 83.7684 221.448C86.0845 228.124 94.043 232.415 100.852 230.115C104.279 229.256 106.771 226.647 109.142 224.163L109.156 224.149L109.675 223.606L109.93 223.342C129.622 203.697 149.307 184.041 168.99 164.386L192.98 140.432C194.954 138.611 196.891 136.708 198.322 134.421C199.896 131.417 200.478 127.86 199.569 124.555ZM42.9894 202.813C46.7933 205.254 49.9779 209.218 50.0864 213.894C50.7418 221.189 44.5885 228.199 37.2742 228.554C29.488 229.351 22.0205 222.076 22.5919 214.287C22.7478 207.651 28.4137 201.693 35.0375 201.168C37.7549 200.934 40.6499 201.359 42.9894 202.813Z" fill="url(#paint0_linear)"/>
<defs>
<linearGradient id="paint0_linear" x1="-30.4843" y1="39.3849" x2="-30.4843" y2="372.56" gradientUnits="userSpaceOnUse">
<stop stop-color="#068ADD"/>
<stop offset="1" stop-color="#0288E6"/>
</linearGradient>
</defs>
</svg>
