<svg width="42" height="42" viewBox="0 0 42 42" fill="none" xmlns="http://www.w3.org/2000/svg">
<path d="M21.1734 13C22.758 13 24.0242 13.4187 24.9718 14.2562C25.9351 15.0937 26.4167 16.2378 26.4167 17.6885C26.4167 19.199 25.9195 20.3356 24.9252 21.0983C23.931 21.861 22.6104 22.2424 20.9636 22.2424L20.8704 24.0146H18.5634L18.4469 20.4926H19.2159C20.7228 20.4926 21.8725 20.2982 22.6648 19.9093C23.4727 19.5205 23.8766 18.7802 23.8766 17.6885C23.8766 16.8958 23.6358 16.2752 23.1542 15.8265C22.6881 15.3779 22.0356 15.1536 21.1967 15.1536C20.3578 15.1536 19.6975 15.3704 19.2159 15.8041C18.7343 16.2378 18.4935 16.8435 18.4935 17.6212H16C16 16.7239 16.2097 15.9238 16.6292 15.2209C17.0487 14.518 17.6468 13.9721 18.4236 13.5833C19.2159 13.1944 20.1325 13 21.1734 13ZM19.682 28.9722C19.2003 28.9722 18.7964 28.8152 18.4702 28.5011C18.1439 28.1871 17.9808 27.7982 17.9808 27.3346C17.9808 26.871 18.1439 26.4822 18.4702 26.1681C18.7964 25.854 19.2003 25.697 19.682 25.697C20.148 25.697 20.5442 25.854 20.8704 26.1681C21.1967 26.4822 21.3598 26.871 21.3598 27.3346C21.3598 27.7982 21.1967 28.1871 20.8704 28.5011C20.5442 28.8152 20.148 28.9722 19.682 28.9722Z" fill="#858585"/>
<circle cx="21" cy="21" r="20.5" stroke="#858585"/>
</svg>
