<svg width="19" height="16" viewBox="0 0 19 16" fill="none" xmlns="http://www.w3.org/2000/svg">
<path d="M5.18083 0.130712C5.13945 0.0892807 5.0903 0.0564073 5.03617 0.0339768C4.98204 0.0115463 4.92401 0 4.8654 0C4.80679 0 4.74875 0.0115463 4.69462 0.0339768C4.6405 0.0564073 4.59134 0.0892807 4.54997 0.130712L2.18684 2.47537L1.34445 1.65616C1.30308 1.61473 1.25392 1.58186 1.1998 1.55943C1.14567 1.537 1.08763 1.52545 1.02902 1.52545C0.970415 1.52545 0.912382 1.537 0.858253 1.55943C0.804125 1.58186 0.754965 1.61473 0.713594 1.65616L0.130976 2.23835C0.0894613 2.27963 0.0565214 2.32869 0.0340455 2.38271C0.0115697 2.43673 0 2.49465 0 2.55314C0 2.61163 0.0115697 2.66955 0.0340455 2.72357C0.0565214 2.77759 0.0894613 2.82665 0.130976 2.86793L1.89701 4.62337C1.98516 4.70699 2.10214 4.75362 2.22376 4.75362C2.34538 4.75362 2.46236 4.70699 2.55051 4.62337L3.12905 4.04489L5.80835 1.37137C5.89183 1.28799 5.939 1.17512 5.93962 1.05726C5.94025 0.939394 5.89428 0.826037 5.81169 0.741781L5.18083 0.130712ZM5.18083 6.02624C5.13945 5.9848 5.0903 5.95193 5.03617 5.9295C4.98204 5.90707 4.92401 5.89552 4.8654 5.89552C4.80679 5.89552 4.74875 5.90707 4.69462 5.9295C4.6405 5.95193 4.59134 5.9848 4.54997 6.02624L2.18684 8.38608L1.34445 7.56761C1.30308 7.52618 1.25392 7.49331 1.1998 7.47088C1.14567 7.44845 1.08763 7.4369 1.02902 7.4369C0.970415 7.4369 0.912382 7.44845 0.858253 7.47088C0.804125 7.49331 0.754965 7.52618 0.713594 7.56761L0.130976 8.14868C0.0894613 8.18997 0.0565214 8.23903 0.0340455 8.29305C0.0115697 8.34707 0 8.40499 0 8.46348C0 8.52197 0.0115697 8.57988 0.0340455 8.6339C0.0565214 8.68792 0.0894613 8.73698 0.130976 8.77827L1.89256 10.5374C1.98065 10.621 2.09756 10.6676 2.21912 10.6676C2.34068 10.6676 2.4576 10.621 2.54569 10.5374L3.1283 9.95634L5.8076 7.28171C5.89076 7.19891 5.93778 7.08668 5.9384 6.96945C5.93903 6.85222 5.89322 6.7395 5.81094 6.65582L5.18083 6.02624ZM2.37498 12.4447C1.39195 12.4447 0.571836 13.2409 0.571836 14.2223C0.571836 15.2038 1.3927 16 2.37498 16C2.8474 16 3.30047 15.8127 3.63452 15.4793C3.96857 15.146 4.15623 14.6938 4.15623 14.2223C4.15623 13.7509 3.96857 13.2987 3.63452 12.9654C3.30047 12.632 2.8474 12.4447 2.37498 12.4447ZM18.4062 13.0372H7.71874C7.56127 13.0372 7.41024 13.0997 7.29889 13.2108C7.18754 13.3219 7.12499 13.4726 7.12499 13.6298V14.8149C7.12499 14.972 7.18754 15.1228 7.29889 15.2339C7.41024 15.345 7.56127 15.4074 7.71874 15.4074H18.4062C18.5637 15.4074 18.7147 15.345 18.8261 15.2339C18.9374 15.1228 19 14.972 19 14.8149V13.6298C19 13.4726 18.9374 13.3219 18.8261 13.2108C18.7147 13.0997 18.5637 13.0372 18.4062 13.0372ZM18.4062 1.1862H7.71874C7.56127 1.1862 7.41024 1.24863 7.29889 1.35975C7.18754 1.47088 7.12499 1.62159 7.12499 1.77875V2.96385C7.12499 3.12101 7.18754 3.27172 7.29889 3.38285C7.41024 3.49397 7.56127 3.5564 7.71874 3.5564H18.4062C18.5637 3.5564 18.7147 3.49397 18.8261 3.38285C18.9374 3.27172 19 3.12101 19 2.96385V1.77875C19 1.62159 18.9374 1.47088 18.8261 1.35975C18.7147 1.24863 18.5637 1.1862 18.4062 1.1862ZM18.4062 7.11172H7.71874C7.56127 7.11172 7.41024 7.17415 7.29889 7.28527C7.18754 7.3964 7.12499 7.54711 7.12499 7.70427V8.88937C7.12499 9.04653 7.18754 9.19725 7.29889 9.30837C7.41024 9.4195 7.56127 9.48193 7.71874 9.48193H18.4062C18.5637 9.48193 18.7147 9.4195 18.8261 9.30837C18.9374 9.19725 19 9.04653 19 8.88937V7.70427C19 7.54711 18.9374 7.3964 18.8261 7.28527C18.7147 7.17415 18.5637 7.11172 18.4062 7.11172Z" fill="white"/>
</svg>
