<svg width="350" height="73" viewBox="0 0 350 73" fill="none" xmlns="http://www.w3.org/2000/svg">
<path d="M130.832 18.4105V54.3329H125.878V26.2621L113.547 45.8141H112.901L100.57 26.3135V54.3329H95.5625V18.4105H101.216L113.224 37.3981L125.178 18.4105H130.832Z" fill="url(#paint0_linear)"/>
<path d="M160.699 28.6741H165.384V54.3329H160.699V49.9196C158.366 53.3065 154.974 55 150.522 55C146.753 55 143.54 53.7 140.884 51.0999C138.228 48.4656 136.899 45.2668 136.899 41.5035C136.899 37.7402 138.228 34.5585 140.884 31.9584C143.54 29.3241 146.753 28.0069 150.522 28.0069C154.974 28.0069 158.366 29.7004 160.699 33.0874V28.6741ZM151.115 50.6893C153.843 50.6893 156.122 49.8169 157.953 48.0721C159.784 46.2931 160.699 44.1036 160.699 41.5035C160.699 38.9034 159.784 36.7309 157.953 34.9861C156.122 33.2071 153.843 32.3176 151.115 32.3176C148.422 32.3176 146.161 33.2071 144.33 34.9861C142.499 36.7309 141.584 38.9034 141.584 41.5035C141.584 44.1036 142.499 46.2931 144.33 48.0721C146.161 49.8169 148.422 50.6893 151.115 50.6893Z" fill="url(#paint1_linear)"/>
<path d="M185.889 28.0069C189.048 28.0069 191.579 28.9649 193.481 30.8807C195.384 32.7624 196.335 35.3282 196.335 38.5784V54.3329H191.651V38.835C191.651 36.748 191.058 35.1401 189.874 34.0111C188.689 32.8479 187.056 32.2663 184.974 32.2663C182.64 32.2663 180.756 32.9676 179.32 34.3703C177.884 35.7388 177.166 37.8599 177.166 40.7337V54.3329H172.481V28.6741H177.166V32.3689C179.069 29.4609 181.976 28.0069 185.889 28.0069Z" fill="url(#paint2_linear)"/>
<path d="M225.167 28.6741H229.852V54.3329H225.167V49.9196C222.834 53.3065 219.441 55 214.99 55C211.221 55 208.008 53.7 205.352 51.0999C202.695 48.4656 201.367 45.2668 201.367 41.5035C201.367 37.7402 202.695 34.5585 205.352 31.9584C208.008 29.3241 211.221 28.0069 214.99 28.0069C219.441 28.0069 222.834 29.7004 225.167 33.0874V28.6741ZM215.583 50.6893C218.311 50.6893 220.59 49.8169 222.421 48.0721C224.252 46.2931 225.167 44.1036 225.167 41.5035C225.167 38.9034 224.252 36.7309 222.421 34.9861C220.59 33.2071 218.311 32.3176 215.583 32.3176C212.89 32.3176 210.629 33.2071 208.798 34.9861C206.967 36.7309 206.052 38.9034 206.052 41.5035C206.052 44.1036 206.967 46.2931 208.798 48.0721C210.629 49.8169 212.89 50.6893 215.583 50.6893Z" fill="url(#paint3_linear)"/>
<path d="M261.557 18.4105V22.9265H250.411V54.3329H245.457V22.9265H234.365V18.4105H261.557Z" fill="url(#paint4_linear)"/>
<path d="M268.397 24.0042C267.5 24.0042 266.746 23.7134 266.136 23.1318C265.526 22.5502 265.22 21.8488 265.22 21.0277C265.22 20.2067 265.526 19.5053 266.136 18.9237C266.746 18.3079 267.5 18 268.397 18C269.259 18 269.995 18.3079 270.605 18.9237C271.215 19.5053 271.52 20.2067 271.52 21.0277C271.52 21.8488 271.215 22.5502 270.605 23.1318C269.995 23.7134 269.259 24.0042 268.397 24.0042ZM266.028 54.3329V28.6741H270.713V54.3329H266.028Z" fill="url(#paint5_linear)"/>
<path d="M306.936 28.0069C309.952 28.0069 312.393 28.9478 314.259 30.8294C316.126 32.6768 317.059 35.1914 317.059 38.3731V54.3329H312.375V38.527C312.375 36.5428 311.836 35.0032 310.759 33.9085C309.682 32.8137 308.247 32.2663 306.452 32.2663C304.441 32.2663 302.826 32.9163 301.606 34.2164C300.421 35.4822 299.829 37.4323 299.829 40.0666V54.3329H295.144V38.527C295.144 36.5428 294.624 35.0032 293.583 33.9085C292.577 32.8137 291.195 32.2663 289.436 32.2663C287.462 32.2663 285.811 32.9163 284.483 34.2164C283.19 35.5164 282.544 37.4665 282.544 40.0666V54.3329H277.86V28.6741H282.544V32.1123C284.375 29.3754 287.049 28.0069 290.567 28.0069C294.193 28.0069 296.831 29.4609 298.482 32.3689C300.349 29.4609 303.167 28.0069 306.936 28.0069Z" fill="url(#paint6_linear)"/>
<path d="M326.84 43.5562C327.306 45.8484 328.401 47.6274 330.124 48.8932C331.883 50.159 334.037 50.792 336.586 50.792C340.139 50.792 342.724 49.5432 344.339 47.0458L348.324 49.2011C345.704 53.067 341.755 55 336.478 55C332.206 55 328.724 53.7342 326.032 51.2025C323.375 48.6366 322.047 45.4036 322.047 41.5035C322.047 37.6375 323.357 34.4216 325.978 31.8558C328.598 29.2899 331.991 28.0069 336.155 28.0069C340.104 28.0069 343.316 29.3412 345.793 32.0097C348.306 34.644 349.562 37.8257 349.562 41.5548C349.562 42.2048 349.509 42.8719 349.401 43.5562H326.84ZM336.155 32.215C333.642 32.215 331.56 32.8992 329.909 34.2677C328.257 35.6019 327.234 37.3981 326.84 39.656H344.824C344.429 37.227 343.424 35.3796 341.809 34.1137C340.193 32.8479 338.309 32.215 336.155 32.215Z" fill="url(#paint7_linear)"/>
<path fill-rule="evenodd" clip-rule="evenodd" d="M60.9685 17.8761C65.3631 23.6035 67.9751 30.7704 67.9751 38.5473C67.9751 57.3181 52.7584 72.5349 33.9876 72.5349C15.2168 72.5349 0 57.3181 0 38.5473C0 30.7385 2.63345 23.5448 7.0607 17.8058L34.0497 44.7948L60.9685 17.8761Z" fill="url(#paint8_linear)"/>
<path fill-rule="evenodd" clip-rule="evenodd" d="M7.16337 13.2454L34.153 40.2351L61.0712 13.3169C54.8588 5.22008 45.0839 0 34.0898 0C23.128 0 13.3784 5.18936 7.16337 13.2454Z" fill="#00C2FF"/>
<defs>
<linearGradient id="paint0_linear" x1="222.562" y1="18" x2="222.562" y2="55" gradientUnits="userSpaceOnUse">
<stop stop-color="#9DA0A4"/>
<stop offset="1" stop-color="#7E8B9B"/>
</linearGradient>
<linearGradient id="paint1_linear" x1="222.562" y1="18" x2="222.562" y2="55" gradientUnits="userSpaceOnUse">
<stop stop-color="#9DA0A4"/>
<stop offset="1" stop-color="#7E8B9B"/>
</linearGradient>
<linearGradient id="paint2_linear" x1="222.562" y1="18" x2="222.562" y2="55" gradientUnits="userSpaceOnUse">
<stop stop-color="#9DA0A4"/>
<stop offset="1" stop-color="#7E8B9B"/>
</linearGradient>
<linearGradient id="paint3_linear" x1="222.562" y1="18" x2="222.562" y2="55" gradientUnits="userSpaceOnUse">
<stop stop-color="#9DA0A4"/>
<stop offset="1" stop-color="#7E8B9B"/>
</linearGradient>
<linearGradient id="paint4_linear" x1="222.562" y1="18" x2="222.562" y2="55" gradientUnits="userSpaceOnUse">
<stop stop-color="#9DA0A4"/>
<stop offset="1" stop-color="#7E8B9B"/>
</linearGradient>
<linearGradient id="paint5_linear" x1="222.562" y1="18" x2="222.562" y2="55" gradientUnits="userSpaceOnUse">
<stop stop-color="#9DA0A4"/>
<stop offset="1" stop-color="#7E8B9B"/>
</linearGradient>
<linearGradient id="paint6_linear" x1="222.562" y1="18" x2="222.562" y2="55" gradientUnits="userSpaceOnUse">
<stop stop-color="#9DA0A4"/>
<stop offset="1" stop-color="#7E8B9B"/>
</linearGradient>
<linearGradient id="paint7_linear" x1="222.562" y1="18" x2="222.562" y2="55" gradientUnits="userSpaceOnUse">
<stop stop-color="#9DA0A4"/>
<stop offset="1" stop-color="#7E8B9B"/>
</linearGradient>
<linearGradient id="paint8_linear" x1="33.9481" y1="88.3222" x2="33.9481" y2="29.0572" gradientUnits="userSpaceOnUse">
<stop stop-color="#00ABFD"/>
<stop offset="1" stop-color="#006CE2"/>
</linearGradient>
</defs>
</svg>
