<svg width="122" height="122" viewBox="0 0 122 122" fill="none" xmlns="http://www.w3.org/2000/svg">
<path d="M26.7841 49.5775C28.5806 50.7324 30.0919 52.6001 30.1365 54.819C30.4466 58.2694 27.5416 61.5843 24.0876 61.7519C20.4109 62.1279 16.8839 58.6864 17.1583 54.9937C17.2296 51.857 19.9065 49.0375 23.0343 48.7898C24.3122 48.6882 25.6738 48.8949 26.7841 49.5775Z" fill="#F0F0F0"/>
<path d="M98.157 28.5374C98.901 29.0634 99.5287 29.737 100.001 30.5161C100.474 31.2952 100.781 32.1631 100.903 33.066C101.092 34.9658 100.494 36.9726 99.1052 38.3253C91.6056 45.7964 84.1345 53.296 76.6492 60.7813C75.4177 62.1162 73.8956 63.2141 72.9778 64.8092C72.2631 66.2795 71.8176 67.9976 72.272 69.614C72.4689 70.4719 72.8447 71.2786 73.3748 71.9813C73.9048 72.684 74.5773 73.2669 75.3481 73.6918C77.7987 75.13 81.1475 74.6649 83.1347 72.642C86.2447 69.5641 89.3226 66.4542 92.4165 63.3602C93.6337 62.1929 94.6942 60.8366 96.1502 59.9473C97.5211 59.2026 99.1149 58.9785 100.638 59.3164C102.662 59.7156 104.356 61.1984 105.286 63.0056C105.953 64.6723 105.986 66.526 105.377 68.215C104.723 69.582 103.546 70.5978 102.484 71.6458C94.8801 79.2499 87.276 86.8541 79.6718 94.4582C77.8254 96.0765 75.0434 96.4062 72.821 95.4064C71.4112 94.9234 70.4773 93.7008 69.228 92.9398C67.1891 91.8954 64.58 91.9774 62.7015 93.3354C61.5395 94.1232 60.6537 95.2085 59.645 96.1888C55.6611 100.173 51.6779 104.156 47.6952 108.139C46.0734 109.849 43.4981 110.468 41.2489 109.833C37.9749 108.998 35.7935 105.308 36.7131 102.043C37.0482 100.311 38.3528 99.0314 39.5879 97.8783C42.083 95.3832 44.5781 92.8881 47.0732 90.393C48.2655 89.1329 49.6859 88.0583 50.5699 86.5398C51.4788 84.8609 51.5359 82.8221 50.9584 81.0256C49.7697 78.1045 46.3229 76.194 43.2378 77.119C41.903 77.4309 40.8016 78.297 39.8409 79.2363C38.0373 81.1218 36.1517 82.9255 34.3499 84.795C33.0061 86.1673 31.0724 87.0032 29.1422 86.8125C28.1894 86.7346 27.2646 86.452 26.431 85.9838C25.5975 85.5157 24.8748 84.8731 24.3124 84.0999C23.1255 82.6635 22.9098 80.6513 23.2128 78.8691C23.4908 77.037 24.9932 75.7627 26.2461 74.5348C39.4346 61.3463 52.623 48.1579 65.8115 34.9694C66.8131 33.9429 67.7862 32.8414 69.0605 32.1588C70.6395 31.4816 72.4627 31.519 74.0846 32.0323C76.1092 32.7202 77.0573 34.9837 79.0819 35.6823C80.7501 36.4344 82.8852 36.192 84.2022 34.8714C86.1128 32.9609 87.9948 31.0218 89.9321 29.1415C92.0743 27.01 95.7243 26.7997 98.157 28.5374Z" fill="#F0F0F0"/>
<path d="M86 63.5297L63.3914 63.5297L59.8826 92.1878H83.4553L86 63.5297Z" fill="#EE8858"/>
<path fill-rule="evenodd" clip-rule="evenodd" d="M86 63.5297L83.4553 92.1878H59.8826L63.3914 63.5297H86ZM84.6119 64.8L82.2928 90.9175H61.3179L64.5157 64.8H84.6119Z" fill="#31305B"/>
<path d="M45.8789 38H82.0323V88.5559H45.8789V38Z" fill="#E5E5E5"/>
<path fill-rule="evenodd" clip-rule="evenodd" d="M80.762 39.2703H47.1492V87.2856H80.762V39.2703ZM45.8789 38V88.5559H82.0323V38H45.8789Z" fill="#31305B"/>
<path d="M43.8208 40.0575H79.9742V90.6134H43.8208V40.0575Z" fill="white"/>
<path fill-rule="evenodd" clip-rule="evenodd" d="M78.7038 41.3278H45.0911V89.3431H78.7038V41.3278ZM43.8208 40.0575V90.6134H79.9742V40.0575H43.8208Z" fill="#31305B"/>
<path fill-rule="evenodd" clip-rule="evenodd" d="M48.2251 53.2844C48.2251 53.109 48.3673 52.9668 48.5427 52.9668L75.2714 52.9668C75.4468 52.9668 75.589 53.109 75.589 53.2844C75.589 53.4598 75.4468 53.602 75.2714 53.602L48.5427 53.602C48.3673 53.602 48.2251 53.4598 48.2251 53.2844Z" fill="#E5E5E5"/>
<path fill-rule="evenodd" clip-rule="evenodd" d="M48.1953 51.2032C48.1953 51.0278 48.3375 50.8856 48.5129 50.8856H63.047C63.2224 50.8856 63.3646 51.0278 63.3646 51.2032C63.3646 51.3786 63.2224 51.5208 63.047 51.5208H48.5129C48.3375 51.5208 48.1953 51.3786 48.1953 51.2032Z" fill="#E5E5E5"/>
<path fill-rule="evenodd" clip-rule="evenodd" d="M47.6421 68.9697C47.6421 68.7943 47.7843 68.6521 47.9597 68.6521H73.4843C73.6597 68.6521 73.8018 68.7943 73.8018 68.9697C73.8018 69.1451 73.6597 69.2873 73.4843 69.2873H47.9597C47.7843 69.2873 47.6421 69.1451 47.6421 68.9697Z" fill="#989898"/>
<path d="M48.2305 55.4631H75.5659V61.5008H48.2305V55.4631Z" fill="#E5E5E5"/>
<path fill-rule="evenodd" clip-rule="evenodd" d="M49.7929 63.0887H40L41.8204 92.1878H83.1492L81.6009 67.4369H51.6725C50.8583 67.4369 50.176 66.821 50.0929 66.0111L49.7929 63.0887Z" fill="url(#paint0_linear)"/>
<path fill-rule="evenodd" clip-rule="evenodd" d="M40 63.0887L41.8204 92.1878H83.1492L81.6009 67.4369H51.6725C50.8583 67.4369 50.176 66.821 50.0929 66.0111L49.7929 63.0887H40ZM41.3523 64.3591L43.0137 90.9175H81.797L80.4075 68.7072H51.6725C50.2069 68.7072 48.9788 67.5987 48.8292 66.1408L48.6463 64.3591H41.3523Z" fill="#31305B"/>
<path fill-rule="evenodd" clip-rule="evenodd" d="M48.7017 45.374C48.4061 45.7592 48.2305 46.2412 48.2305 46.7642C48.2305 48.0266 49.2538 49.0499 50.5162 49.0499C51.7786 49.0499 52.8019 48.0266 52.8019 46.7642C52.8019 46.239 52.6248 45.7552 52.3271 45.3693L50.512 47.1844L48.7017 45.374Z" fill="url(#paint1_linear)"/>
<path fill-rule="evenodd" clip-rule="evenodd" d="M52.3198 44.9406L50.5047 46.7557L48.6943 44.9454C49.1121 44.4009 49.7695 44.0498 50.5089 44.0498C51.2461 44.0498 51.9018 44.3988 52.3198 44.9406Z" fill="url(#paint2_linear)"/>
<path fill-rule="evenodd" clip-rule="evenodd" d="M76.5148 40.2865C76.5148 40.1111 76.3726 39.9689 76.1972 39.9689H73.238C73.0626 39.9689 72.9204 40.1111 72.9204 40.2865V45.8021C72.9204 46.0927 73.2785 46.2307 73.4735 46.0152L74.4609 44.9239C74.587 44.7845 74.8058 44.7845 74.9319 44.9239L75.9617 46.062C76.1567 46.2776 76.5148 46.1396 76.5148 45.849V40.2865Z" fill="#C63636"/>
<path fill-rule="evenodd" clip-rule="evenodd" d="M72.603 40.2864C72.603 39.9356 72.8874 39.6512 73.2382 39.6512H76.1974C76.5482 39.6512 76.8325 39.9356 76.8325 40.2864V45.8489C76.8325 46.4302 76.1164 46.7061 75.7264 46.2751L74.6966 45.1369L73.7092 46.2282C73.3192 46.6592 72.603 46.3833 72.603 45.802V40.2864ZM76.1974 40.2864L73.2382 40.2864V45.802L74.2256 44.7108C74.4777 44.4321 74.9154 44.4321 75.1675 44.7108L76.1974 45.8489V40.2864Z" fill="#31305B"/>
<defs>
<linearGradient id="paint0_linear" x1="61.5746" y1="63.0887" x2="61.5746" y2="92.1878" gradientUnits="userSpaceOnUse">
<stop stop-color="#F4CF6F"/>
<stop offset="1" stop-color="#F9976D"/>
</linearGradient>
<linearGradient id="paint1_linear" x1="50.5189" y1="50.1117" x2="50.5189" y2="46.1259" gradientUnits="userSpaceOnUse">
<stop stop-color="#00ABFD"/>
<stop offset="1" stop-color="#006CE2"/>
</linearGradient>
<linearGradient id="paint2_linear" x1="50.5091" y1="47.5363" x2="50.5091" y2="44.6061" gradientUnits="userSpaceOnUse">
<stop stop-color="#00ABFD"/>
<stop offset="1" stop-color="#006CE2"/>
</linearGradient>
</defs>
</svg>
