<svg width="122" height="122" viewBox="0 0 122 122" fill="none" xmlns="http://www.w3.org/2000/svg">
<path d="M26.7841 49.5775C28.5806 50.7324 30.0919 52.6001 30.1365 54.819C30.4466 58.2694 27.5416 61.5843 24.0876 61.7519C20.4109 62.1279 16.8839 58.6864 17.1583 54.9937C17.2296 51.857 19.9065 49.0375 23.0343 48.7898C24.3122 48.6882 25.6738 48.8949 26.7841 49.5775Z" fill="#F0F0F0"/>
<path d="M98.157 28.5374C98.901 29.0634 99.5287 29.737 100.001 30.5161C100.474 31.2952 100.781 32.1631 100.903 33.066C101.092 34.9658 100.494 36.9726 99.1052 38.3253C91.6056 45.7964 84.1345 53.296 76.6492 60.7813C75.4177 62.1162 73.8956 63.2141 72.9778 64.8092C72.2631 66.2795 71.8176 67.9976 72.272 69.614C72.4689 70.4719 72.8447 71.2786 73.3748 71.9813C73.9048 72.684 74.5773 73.2669 75.3481 73.6918C77.7987 75.13 81.1475 74.6649 83.1347 72.642C86.2447 69.5641 89.3226 66.4542 92.4165 63.3602C93.6337 62.1929 94.6942 60.8366 96.1502 59.9473C97.5211 59.2026 99.1149 58.9785 100.638 59.3164C102.662 59.7156 104.356 61.1984 105.286 63.0056C105.953 64.6723 105.986 66.526 105.377 68.215C104.723 69.582 103.546 70.5978 102.484 71.6458C94.8801 79.2499 87.276 86.8541 79.6718 94.4582C77.8254 96.0765 75.0434 96.4062 72.821 95.4064C71.4112 94.9234 70.4773 93.7008 69.228 92.9398C67.1891 91.8954 64.58 91.9774 62.7015 93.3354C61.5395 94.1232 60.6537 95.2085 59.645 96.1888C55.6611 100.173 51.6779 104.156 47.6952 108.139C46.0734 109.849 43.4981 110.468 41.2489 109.833C37.9749 108.998 35.7935 105.308 36.7131 102.043C37.0482 100.311 38.3528 99.0314 39.5879 97.8783C42.083 95.3832 44.5781 92.8881 47.0732 90.393C48.2655 89.1329 49.6859 88.0583 50.5699 86.5398C51.4788 84.8609 51.5359 82.8221 50.9584 81.0256C49.7697 78.1045 46.3229 76.194 43.2378 77.119C41.903 77.4309 40.8016 78.297 39.8409 79.2363C38.0373 81.1218 36.1517 82.9255 34.3499 84.795C33.0061 86.1673 31.0724 87.0032 29.1422 86.8125C28.1894 86.7346 27.2646 86.452 26.431 85.9838C25.5975 85.5157 24.8748 84.8731 24.3124 84.0999C23.1255 82.6635 22.9098 80.6513 23.2128 78.8691C23.4908 77.037 24.9932 75.7627 26.2461 74.5348C39.4346 61.3463 52.623 48.1579 65.8115 34.9694C66.8131 33.9429 67.7862 32.8414 69.0605 32.1588C70.6395 31.4816 72.4627 31.519 74.0846 32.0323C76.1092 32.7203 77.0573 34.9837 79.0819 35.6823C80.7501 36.4344 82.8852 36.192 84.2022 34.8714C86.1128 32.9608 87.9948 31.0218 89.9321 29.1415C92.0743 27.01 95.7243 26.7997 98.157 28.5374Z" fill="#F0F0F0"/>
<path d="M37.2202 43.6246H91.3341V85.112H37.2202V43.6246Z" fill="url(#paint0_linear)"/>
<path fill-rule="evenodd" clip-rule="evenodd" d="M36.4987 43.6247C36.4987 43.2262 36.8217 42.9031 37.2202 42.9031H91.3341C91.7326 42.9031 92.0556 43.2262 92.0556 43.6247V85.112C92.0556 85.5105 91.7326 85.8335 91.3341 85.8335H37.2202C36.8217 85.8335 36.4987 85.5105 36.4987 85.112V43.6247ZM37.9417 44.3462V84.3905H90.6126V44.3462H37.9417Z" fill="#31305B"/>
<path d="M44.4352 39.4469C44.4352 38.5663 45.149 37.8525 46.0296 37.8525V37.8525C46.9102 37.8525 47.624 38.5663 47.624 39.4469V48.5239C47.624 49.4045 46.9102 50.1183 46.0296 50.1183V50.1183C45.149 50.1183 44.4352 49.4045 44.4352 48.5239V39.4469Z" fill="url(#paint1_linear)"/>
<path fill-rule="evenodd" clip-rule="evenodd" d="M43.7139 39.4469C43.7139 38.1679 44.7508 37.131 46.0298 37.131C47.3089 37.131 48.3458 38.1679 48.3458 39.4469V48.5239C48.3458 49.803 47.3089 50.8398 46.0298 50.8398C44.7508 50.8398 43.7139 49.803 43.7139 48.5239V39.4469ZM46.0298 38.574C45.5477 38.574 45.1569 38.9648 45.1569 39.4469V48.5239C45.1569 49.006 45.5477 49.3968 46.0298 49.3968C46.5119 49.3968 46.9027 49.006 46.9027 48.5239V39.4469C46.9027 38.9648 46.5119 38.574 46.0298 38.574Z" fill="#31305B"/>
<path d="M80.9299 39.4469C80.9299 38.5663 81.6438 37.8525 82.5244 37.8525V37.8525C83.4049 37.8525 84.1188 38.5663 84.1188 39.4469V48.5239C84.1188 49.4045 83.4049 50.1183 82.5244 50.1183V50.1183C81.6438 50.1183 80.9299 49.4045 80.9299 48.5239V39.4469Z" fill="url(#paint2_linear)"/>
<path fill-rule="evenodd" clip-rule="evenodd" d="M80.2084 39.4469C80.2084 38.1679 81.2453 37.131 82.5243 37.131C83.8034 37.131 84.8403 38.1679 84.8403 39.4469V48.5239C84.8403 49.803 83.8034 50.8398 82.5243 50.8398C81.2453 50.8398 80.2084 49.803 80.2084 48.5239V39.4469ZM82.5243 38.574C82.0422 38.574 81.6514 38.9648 81.6514 39.4469V48.5239C81.6514 49.006 82.0422 49.3968 82.5243 49.3968C83.0064 49.3968 83.3972 49.006 83.3972 48.5239V39.4469C83.3972 38.9648 83.0064 38.574 82.5243 38.574Z" fill="#31305B"/>
<path d="M62.1514 39.4469C62.1514 38.5663 62.8652 37.8525 63.7458 37.8525V37.8525C64.6264 37.8525 65.3402 38.5663 65.3402 39.4469V48.5239C65.3402 49.4045 64.6264 50.1183 63.7458 50.1183V50.1183C62.8652 50.1183 62.1514 49.4045 62.1514 48.5239V39.4469Z" fill="url(#paint3_linear)"/>
<path fill-rule="evenodd" clip-rule="evenodd" d="M61.4297 39.4469C61.4297 38.1679 62.4666 37.131 63.7456 37.131C65.0247 37.131 66.0616 38.1679 66.0616 39.4469V48.5239C66.0616 49.803 65.0247 50.8398 63.7456 50.8398C62.4666 50.8398 61.4297 49.803 61.4297 48.5239V39.4469ZM63.7456 38.574C63.2635 38.574 62.8727 38.9648 62.8727 39.4469V48.5239C62.8727 49.006 63.2635 49.3968 63.7456 49.3968C64.2277 49.3968 64.6185 49.006 64.6185 48.5239V39.4469C64.6185 38.9648 64.2277 38.574 63.7456 38.574Z" fill="#31305B"/>
<path d="M71.3634 39.4469C71.3634 38.5663 72.0773 37.8525 72.9578 37.8525V37.8525C73.8384 37.8525 74.5523 38.5663 74.5523 39.4469V48.5239C74.5523 49.4045 73.8384 50.1183 72.9578 50.1183V50.1183C72.0773 50.1183 71.3634 49.4045 71.3634 48.5239V39.4469Z" fill="url(#paint4_linear)"/>
<path fill-rule="evenodd" clip-rule="evenodd" d="M70.6418 39.4469C70.6418 38.1679 71.6787 37.131 72.9578 37.131C74.2369 37.131 75.2737 38.1679 75.2737 39.4469V48.5239C75.2737 49.803 74.2369 50.8398 72.9578 50.8398C71.6787 50.8398 70.6418 49.803 70.6418 48.5239V39.4469ZM72.9578 38.574C72.4757 38.574 72.0849 38.9648 72.0849 39.4469V48.5239C72.0849 49.006 72.4757 49.3968 72.9578 49.3968C73.4399 49.3968 73.8307 49.006 73.8307 48.5239V39.4469C73.8307 38.9648 73.4399 38.574 72.9578 38.574Z" fill="#31305B"/>
<path d="M52.939 39.4469C52.939 38.5663 53.6528 37.8525 54.5334 37.8525V37.8525C55.414 37.8525 56.1278 38.5663 56.1278 39.4469V48.5239C56.1278 49.4045 55.414 50.1183 54.5334 50.1183V50.1183C53.6528 50.1183 52.939 49.4045 52.939 48.5239V39.4469Z" fill="url(#paint5_linear)"/>
<path fill-rule="evenodd" clip-rule="evenodd" d="M52.2175 39.4469C52.2175 38.1679 53.2544 37.131 54.5335 37.131C55.8125 37.131 56.8494 38.1679 56.8494 39.4469V48.5239C56.8494 49.803 55.8125 50.8398 54.5335 50.8398C53.2544 50.8398 52.2175 49.803 52.2175 48.5239V39.4469ZM54.5335 38.574C54.0514 38.574 53.6606 38.9648 53.6606 39.4469V48.5239C53.6606 49.006 54.0514 49.3968 54.5335 49.3968C55.0156 49.3968 55.4064 49.006 55.4064 48.5239V39.4469C55.4064 38.9648 55.0156 38.574 54.5335 38.574Z" fill="#31305B"/>
<path fill-rule="evenodd" clip-rule="evenodd" d="M42.2708 56.2513C42.2708 56.052 42.4323 55.8905 42.6315 55.8905H63.5556C63.7548 55.8905 63.9163 56.052 63.9163 56.2513C63.9163 56.4505 63.7548 56.612 63.5556 56.612H42.6315C42.4323 56.612 42.2708 56.4505 42.2708 56.2513Z" fill="#31305B"/>
<path fill-rule="evenodd" clip-rule="evenodd" d="M42.2709 53.7259C42.2709 53.5267 42.4324 53.3652 42.6316 53.3652H53.8152C54.0144 53.3652 54.1759 53.5267 54.1759 53.7259C54.1759 53.9252 54.0144 54.0867 53.8152 54.0867H42.6316C42.4324 54.0867 42.2709 53.9252 42.2709 53.7259Z" fill="#31305B"/>
<path d="M42.5209 59.0266H48.5145V65.0202H42.5209V59.0266Z" stroke="#CCD1E7" stroke-width="0.5"/>
<path d="M49.8469 58.7766H56.3406V65.2702H49.8469V58.7766Z" fill="#CCD1E8"/>
<path d="M57.6727 59.0266H63.6664V65.0202H57.6727V59.0266Z" stroke="#CCD1E7" stroke-width="0.5"/>
<path d="M64.9988 58.7766H71.4925V65.2702H64.9988V58.7766Z" fill="#CCD1E8"/>
<path d="M72.5748 58.7766H79.0685V65.2702H72.5748V58.7766Z" fill="#CCD1E8"/>
<path d="M80.1505 58.7766H86.6442V65.2702H80.1505V58.7766Z" fill="#CCD1E8"/>
<path d="M42.2708 66.3525H48.7644V72.8461H42.2708V66.3525Z" fill="#CCD1E8"/>
<path d="M49.8468 66.3525H56.3405V72.8461H49.8468V66.3525Z" fill="#CCD1E8"/>
<path d="M57.4226 66.3525H63.9163V72.8461H57.4226V66.3525Z" fill="#CCD1E8"/>
<path d="M64.9987 66.3525H71.4923V72.8461H64.9987V66.3525Z" fill="#CCD1E8"/>
<path d="M72.5747 66.3525H79.0684V72.8461H72.5747V66.3525Z" fill="#CCD1E8"/>
<path d="M80.1504 66.3525H86.6441V72.8461H80.1504V66.3525Z" fill="#CCD1E8"/>
<path d="M42.2708 73.9285H48.7644V80.4221H42.2708V73.9285Z" fill="#CCD1E8"/>
<path d="M50.0968 74.1785H56.0905V80.1721H50.0968V74.1785Z" stroke="#CCD1E7" stroke-width="0.5"/>
<path d="M57.4226 73.9285H63.9163V80.4221H57.4226V73.9285Z" fill="#CCD1E8"/>
<path d="M64.9987 73.9285H71.4923V80.4221H64.9987V73.9285Z" fill="#CCD1E8"/>
<path d="M72.5747 73.9285H79.0684V80.4221H72.5747V73.9285Z" fill="#CCD1E8"/>
<path d="M80.1504 73.9285H86.6441V80.4221H80.1504V73.9285Z" fill="#CCD1E8"/>
<g clip-path="url(#clip0)">
<path d="M45.5177 59.4981L46.2897 61.0907L48.0431 61.333L46.7669 62.5594L47.0784 64.3017L45.5177 63.4669L43.9569 64.3017L44.2686 62.5594L42.9924 61.333L44.7458 61.0907L45.5177 59.4981Z" fill="url(#paint6_linear)"/>
</g>
<path fill-rule="evenodd" clip-rule="evenodd" d="M62.5227 68.3483C62.8313 68.7504 63.0146 69.2537 63.0146 69.7997C63.0146 71.1177 61.9462 72.1862 60.6282 72.1862C59.3102 72.1862 58.2417 71.1177 58.2417 69.7997C58.2417 69.2514 58.4266 68.7463 58.7375 68.3433L60.6326 70.2384L62.5227 68.3483Z" fill="#00C2FF"/>
<path fill-rule="evenodd" clip-rule="evenodd" d="M58.7446 67.8959L60.6397 69.791L62.5298 67.9009C62.0936 67.3323 61.4072 66.9658 60.6353 66.9658C59.8656 66.9658 59.181 67.3302 58.7446 67.8959Z" fill="#00C2FF"/>
<path d="M98.5493 79.5203C98.5493 86.7926 92.6539 92.688 85.3816 92.688C78.1093 92.688 72.2139 86.7926 72.2139 79.5203C72.2139 72.2479 78.1093 66.3525 85.3816 66.3525C92.6539 66.3525 98.5493 72.2479 98.5493 79.5203Z" fill="url(#paint7_linear)"/>
<path fill-rule="evenodd" clip-rule="evenodd" d="M99.9923 79.5202C99.9923 87.5895 93.4508 94.131 85.3815 94.131C77.3122 94.131 70.7708 87.5895 70.7708 79.5202C70.7708 71.4509 77.3122 64.9095 85.3815 64.9095C93.4508 64.9095 99.9923 71.4509 99.9923 79.5202ZM85.3815 92.688C92.6538 92.688 98.5492 86.7926 98.5492 79.5202C98.5492 72.2479 92.6538 66.3525 85.3815 66.3525C78.1092 66.3525 72.2138 72.2479 72.2138 79.5202C72.2138 86.7926 78.1092 92.688 85.3815 92.688Z" fill="#31305B"/>
<path d="M96.7455 79.5202C96.7455 85.7964 91.6577 90.8842 85.3816 90.8842C79.1055 90.8842 74.0177 85.7964 74.0177 79.5202C74.0177 73.2441 79.1055 68.1563 85.3816 68.1563C91.6577 68.1563 96.7455 73.2441 96.7455 79.5202Z" fill="white"/>
<path fill-rule="evenodd" clip-rule="evenodd" d="M85.3815 68.5171C79.3047 68.5171 74.3784 73.4433 74.3784 79.5202C74.3784 85.5971 79.3047 90.5234 85.3815 90.5234C91.4584 90.5234 96.3847 85.5971 96.3847 79.5202C96.3847 73.4433 91.4584 68.5171 85.3815 68.5171ZM73.6569 79.5202C73.6569 73.0449 78.9062 67.7955 85.3815 67.7955C91.8569 67.7955 97.1062 73.0449 97.1062 79.5202C97.1062 85.9956 91.8569 91.2449 85.3815 91.2449C78.9062 91.2449 73.6569 85.9956 73.6569 79.5202Z" fill="#31305B"/>
<path fill-rule="evenodd" clip-rule="evenodd" d="M85.4425 80.4112C85.044 80.4112 84.7209 80.0882 84.7209 79.6897L84.7209 73.2069C84.7209 72.8085 85.044 72.4854 85.4425 72.4854C85.841 72.4854 86.164 72.8085 86.164 73.2069L86.164 79.6897C86.164 80.0882 85.841 80.4112 85.4425 80.4112Z" fill="#545289"/>
<path fill-rule="evenodd" clip-rule="evenodd" d="M88.8358 83.4368C88.543 83.7071 88.0866 83.6888 87.8163 83.396L84.9907 80.335C84.7204 80.0422 84.7386 79.5857 85.0314 79.3154C85.3243 79.0451 85.7807 79.0634 86.051 79.3562L88.8766 82.4172C89.1469 82.7101 89.1286 83.1665 88.8358 83.4368Z" fill="#545289"/>
<path fill-rule="evenodd" clip-rule="evenodd" d="M93.8593 79.7006C93.8593 79.5014 94.0208 79.3398 94.22 79.3398L96.3846 79.3398C96.5838 79.3398 96.7453 79.5014 96.7453 79.7006C96.7453 79.8998 96.5838 80.0614 96.3846 80.0614L94.22 80.0614C94.0208 80.0614 93.8593 79.8998 93.8593 79.7006Z" fill="#545289"/>
<path fill-rule="evenodd" clip-rule="evenodd" d="M74.0177 79.7006C74.0177 79.5014 74.1792 79.3398 74.3785 79.3398L76.543 79.3398C76.7423 79.3398 76.9038 79.5014 76.9038 79.7006C76.9038 79.8998 76.7423 80.0614 76.543 80.0614L74.3785 80.0614C74.1792 80.0614 74.0177 79.8998 74.0177 79.7006Z" fill="#545289"/>
<path fill-rule="evenodd" clip-rule="evenodd" d="M85.3817 87.9981C85.5809 87.9981 85.7424 88.1596 85.7424 88.3589L85.7424 90.5234C85.7424 90.7227 85.5809 90.8842 85.3817 90.8842C85.1824 90.8842 85.0209 90.7227 85.0209 90.5234L85.0209 88.3589C85.0209 88.1596 85.1824 87.9981 85.3817 87.9981Z" fill="#545289"/>
<path fill-rule="evenodd" clip-rule="evenodd" d="M85.3817 68.1563C85.5809 68.1563 85.7424 68.3178 85.7424 68.5171L85.7424 70.6816C85.7424 70.8809 85.5809 71.0424 85.3817 71.0424C85.1824 71.0424 85.0209 70.8809 85.0209 70.6816L85.0209 68.5171C85.0209 68.3178 85.1824 68.1563 85.3817 68.1563Z" fill="#545289"/>
<path fill-rule="evenodd" clip-rule="evenodd" d="M85.3815 68.5171C79.3047 68.5171 74.3784 73.4433 74.3784 79.5202C74.3784 85.5971 79.3047 90.5234 85.3815 90.5234C91.4584 90.5234 96.3847 85.5971 96.3847 79.5202C96.3847 73.4433 91.4584 68.5171 85.3815 68.5171ZM73.6569 79.5202C73.6569 73.0449 78.9062 67.7955 85.3815 67.7955C91.8569 67.7955 97.1062 73.0449 97.1062 79.5202C97.1062 85.9956 91.8569 91.2449 85.3815 91.2449C78.9062 91.2449 73.6569 85.9956 73.6569 79.5202Z" fill="#31305B"/>
<defs>
<linearGradient id="paint0_linear" x1="64.2772" y1="43.6246" x2="64.2772" y2="85.112" gradientUnits="userSpaceOnUse">
<stop stop-color="white"/>
<stop offset="1" stop-color="#F4F5F8"/>
</linearGradient>
<linearGradient id="paint1_linear" x1="46.0296" y1="37.8525" x2="46.0296" y2="50.1183" gradientUnits="userSpaceOnUse">
<stop stop-color="#E63877"/>
<stop offset="1" stop-color="#F65D7D"/>
</linearGradient>
<linearGradient id="paint2_linear" x1="82.5244" y1="37.8525" x2="82.5244" y2="50.1183" gradientUnits="userSpaceOnUse">
<stop stop-color="#E63877"/>
<stop offset="1" stop-color="#F65D7D"/>
</linearGradient>
<linearGradient id="paint3_linear" x1="63.7458" y1="37.8525" x2="63.7458" y2="50.1183" gradientUnits="userSpaceOnUse">
<stop stop-color="#E63877"/>
<stop offset="1" stop-color="#F65D7D"/>
</linearGradient>
<linearGradient id="paint4_linear" x1="72.9578" y1="37.8525" x2="72.9578" y2="50.1183" gradientUnits="userSpaceOnUse">
<stop stop-color="#E63877"/>
<stop offset="1" stop-color="#F65D7D"/>
</linearGradient>
<linearGradient id="paint5_linear" x1="54.5334" y1="37.8525" x2="54.5334" y2="50.1183" gradientUnits="userSpaceOnUse">
<stop stop-color="#E63877"/>
<stop offset="1" stop-color="#F65D7D"/>
</linearGradient>
<linearGradient id="paint6_linear" x1="45.5177" y1="59.4981" x2="45.5177" y2="64.3017" gradientUnits="userSpaceOnUse">
<stop stop-color="#EFC258"/>
<stop offset="1" stop-color="#EF966A"/>
</linearGradient>
<linearGradient id="paint7_linear" x1="85.8885" y1="85.9465" x2="94.6819" y2="54.1234" gradientUnits="userSpaceOnUse">
<stop stop-color="#F7CE5D"/>
<stop offset="1" stop-color="#FA9370"/>
</linearGradient>
<clipPath id="clip0">
<rect width="5.05063" height="5.05063" fill="white" transform="translate(42.9924 59.1373)"/>
</clipPath>
</defs>
</svg>
