<svg width="122" height="122" viewBox="0 0 122 122" fill="none" xmlns="http://www.w3.org/2000/svg">
<path d="M26.7841 49.5775C28.5806 50.7324 30.0919 52.6001 30.1365 54.819C30.4466 58.2694 27.5416 61.5843 24.0876 61.7519C20.4109 62.1279 16.8839 58.6864 17.1583 54.9937C17.2296 51.857 19.9065 49.0375 23.0343 48.7898C24.3122 48.6882 25.6738 48.8949 26.7841 49.5775Z" fill="#F0F0F0"/>
<path d="M98.157 28.5374C98.901 29.0634 99.5287 29.737 100.001 30.5161C100.474 31.2952 100.781 32.1631 100.903 33.066C101.092 34.9658 100.494 36.9726 99.1052 38.3253C91.6056 45.7964 84.1345 53.296 76.6492 60.7813C75.4177 62.1162 73.8956 63.2141 72.9778 64.8092C72.2631 66.2795 71.8176 67.9976 72.272 69.614C72.4689 70.4719 72.8447 71.2786 73.3748 71.9813C73.9048 72.684 74.5773 73.2669 75.3481 73.6918C77.7987 75.13 81.1475 74.6649 83.1347 72.642C86.2447 69.5641 89.3226 66.4542 92.4165 63.3602C93.6337 62.1929 94.6942 60.8366 96.1502 59.9473C97.5211 59.2026 99.1149 58.9785 100.638 59.3164C102.662 59.7156 104.356 61.1984 105.286 63.0056C105.953 64.6723 105.986 66.526 105.377 68.215C104.723 69.582 103.546 70.5978 102.484 71.6458C94.8801 79.2499 87.276 86.8541 79.6718 94.4582C77.8254 96.0765 75.0434 96.4062 72.821 95.4064C71.4112 94.9234 70.4773 93.7008 69.228 92.9398C67.1891 91.8954 64.58 91.9774 62.7015 93.3354C61.5395 94.1232 60.6537 95.2085 59.645 96.1888C55.6611 100.173 51.6779 104.156 47.6952 108.139C46.0734 109.849 43.4981 110.468 41.2489 109.833C37.9749 108.998 35.7935 105.308 36.7131 102.043C37.0482 100.311 38.3528 99.0314 39.5879 97.8783C42.083 95.3832 44.5781 92.8881 47.0732 90.393C48.2655 89.1329 49.6859 88.0583 50.5699 86.5398C51.4788 84.8609 51.5359 82.8221 50.9584 81.0256C49.7697 78.1045 46.3229 76.194 43.2378 77.119C41.903 77.4309 40.8016 78.297 39.8409 79.2363C38.0373 81.1218 36.1517 82.9255 34.3499 84.795C33.0061 86.1673 31.0724 87.0032 29.1422 86.8125C28.1894 86.7346 27.2646 86.452 26.431 85.9838C25.5975 85.5157 24.8748 84.8731 24.3124 84.0999C23.1255 82.6635 22.9098 80.6513 23.2128 78.8691C23.4908 77.037 24.9932 75.7627 26.2461 74.5348C39.4346 61.3463 52.623 48.1579 65.8115 34.9694C66.8131 33.9429 67.7862 32.8414 69.0605 32.1588C70.6395 31.4816 72.4627 31.519 74.0846 32.0323C76.1092 32.7202 77.0573 34.9837 79.0819 35.6823C80.7501 36.4344 82.8852 36.192 84.2022 34.8714C86.1128 32.9609 87.9948 31.0218 89.9321 29.1415C92.0743 27.01 95.7243 26.7997 98.157 28.5374Z" fill="#F0F0F0"/>
<path d="M67.6626 62.2797C67.6626 61.3804 68.3916 60.6514 69.2909 60.6514H91.7206C92.6199 60.6514 93.3489 61.3804 93.3489 62.2797V63.9157C93.3489 64.815 92.6199 65.544 91.7206 65.544H69.2909C68.3916 65.544 67.6626 64.815 67.6626 63.9157V62.2797Z" fill="white"/>
<path fill-rule="evenodd" clip-rule="evenodd" d="M67.0107 62.2797C67.0107 61.0206 68.0314 60 69.2904 60H91.7201C92.9791 60 93.9998 61.0206 93.9998 62.2797V63.9156C93.9998 65.1747 92.9791 66.1953 91.7201 66.1953H69.2904C68.0314 66.1953 67.0107 65.1747 67.0107 63.9156V62.2797ZM69.2904 61.3027C68.7508 61.3027 68.3134 61.7401 68.3134 62.2797V63.9156C68.3134 64.4552 68.7508 64.8926 69.2904 64.8926H91.7201C92.2597 64.8926 92.6971 64.4552 92.6971 63.9156V62.2797C92.6971 61.7401 92.2597 61.3027 91.7201 61.3027H69.2904Z" fill="#31305B"/>
<path d="M67.5522 62.2797C67.5522 61.3804 68.2813 60.6514 69.1806 60.6514H77.648C78.5473 60.6514 79.2763 61.3804 79.2763 62.2797V63.9081C79.2763 64.8074 78.5473 65.5364 77.648 65.5364H69.1806C68.2813 65.5364 67.5522 64.8074 67.5522 63.9081V62.2797Z" fill="url(#paint0_linear)"/>
<path fill-rule="evenodd" clip-rule="evenodd" d="M77.648 61.3027H69.1806C68.641 61.3027 68.2036 61.7401 68.2036 62.2797V63.9081C68.2036 64.4476 68.641 64.8851 69.1806 64.8851H77.648C78.1876 64.8851 78.625 64.4476 78.625 63.9081V62.2797C78.625 61.7401 78.1876 61.3027 77.648 61.3027ZM69.1806 60.6514C68.2813 60.6514 67.5522 61.3804 67.5522 62.2797V63.9081C67.5522 64.8074 68.2813 65.5364 69.1806 65.5364H77.648C78.5473 65.5364 79.2763 64.8074 79.2763 63.9081V62.2797C79.2763 61.3804 78.5473 60.6514 77.648 60.6514H69.1806Z" fill="#31305B"/>
<path d="M75.3071 62.2399C75.3071 61.7004 75.7445 61.2629 76.2841 61.2629H79.2228C79.7623 61.2629 80.1998 61.7004 80.1998 62.2399V63.9554C80.1998 64.495 79.7623 64.9324 79.2228 64.9324H76.2841C75.7445 64.9324 75.3071 64.495 75.3071 63.9554V62.2399Z" fill="#828282"/>
<path fill-rule="evenodd" clip-rule="evenodd" d="M76.2841 60.6116H79.2227C80.122 60.6116 80.8511 61.3406 80.8511 62.2399V63.9554C80.8511 64.8547 80.122 65.5837 79.2227 65.5837H76.2841C75.3848 65.5837 74.6558 64.8547 74.6558 63.9554V62.2399C74.6558 61.3406 75.3848 60.6116 76.2841 60.6116ZM76.2841 61.2629C75.7445 61.2629 75.3071 61.7003 75.3071 62.2399V63.9554C75.3071 64.495 75.7445 64.9324 76.2841 64.9324H79.2227C79.7623 64.9324 80.1997 64.495 80.1997 63.9554V62.2399C80.1997 61.7003 79.7623 61.2629 79.2227 61.2629H76.2841Z" fill="#31305B"/>
<path d="M67.6626 71.3984C67.6626 70.4991 68.3916 69.77 69.2909 69.77H91.7206C92.6199 69.77 93.3489 70.4991 93.3489 71.3984V73.0343C93.3489 73.9336 92.6199 74.6627 91.7206 74.6627H69.2909C68.3916 74.6627 67.6626 73.9336 67.6626 73.0343V71.3984Z" fill="white"/>
<path fill-rule="evenodd" clip-rule="evenodd" d="M67.0107 71.3985C67.0107 70.1394 68.0314 69.1188 69.2904 69.1188H91.7201C92.9791 69.1188 93.9998 70.1394 93.9998 71.3985V73.0344C93.9998 74.2934 92.9791 75.3141 91.7201 75.3141H69.2904C68.0314 75.3141 67.0107 74.2934 67.0107 73.0344V71.3985ZM69.2904 70.4214C68.7508 70.4214 68.3134 70.8589 68.3134 71.3985V73.0344C68.3134 73.574 68.7508 74.0114 69.2904 74.0114H91.7201C92.2597 74.0114 92.6971 73.574 92.6971 73.0344V71.3985C92.6971 70.8589 92.2597 70.4214 91.7201 70.4214H69.2904Z" fill="#31305B"/>
<path d="M67.5522 71.3984C67.5522 70.4991 68.2813 69.77 69.1806 69.77H81.556C82.4553 69.77 83.1843 70.4991 83.1843 71.3984V73.0267C83.1843 73.926 82.4553 74.655 81.556 74.655H69.1806C68.2813 74.655 67.5522 73.926 67.5522 73.0267V71.3984Z" fill="url(#paint1_linear)"/>
<path fill-rule="evenodd" clip-rule="evenodd" d="M81.556 70.4214H69.1806C68.641 70.4214 68.2036 70.8588 68.2036 71.3984V73.0267C68.2036 73.5663 68.641 74.0037 69.1806 74.0037H81.556C82.0956 74.0037 82.533 73.5663 82.533 73.0267V71.3984C82.533 70.8588 82.0956 70.4214 81.556 70.4214ZM69.1806 69.77C68.2813 69.77 67.5522 70.4991 67.5522 71.3984V73.0267C67.5522 73.926 68.2813 74.655 69.1806 74.655H81.556C82.4553 74.655 83.1843 73.926 83.1843 73.0267V71.3984C83.1843 70.4991 82.4553 69.77 81.556 69.77H69.1806Z" fill="#31305B"/>
<path d="M80.5791 71.3587C80.5791 70.8191 81.0165 70.3817 81.5561 70.3817H84.4947C85.0343 70.3817 85.4717 70.8191 85.4717 71.3587V73.0742C85.4717 73.6138 85.0343 74.0512 84.4947 74.0512H81.5561C81.0165 74.0512 80.5791 73.6138 80.5791 73.0742V71.3587Z" fill="#828282"/>
<path fill-rule="evenodd" clip-rule="evenodd" d="M81.5561 69.7303H84.4947C85.394 69.7303 86.123 70.4594 86.123 71.3587V73.0742C86.123 73.9735 85.394 74.7025 84.4947 74.7025H81.5561C80.6568 74.7025 79.9277 73.9735 79.9277 73.0742V71.3587C79.9277 70.4594 80.6568 69.7303 81.5561 69.7303ZM81.5561 70.3817C81.0165 70.3817 80.5791 70.8191 80.5791 71.3587V73.0742C80.5791 73.6137 81.0165 74.0512 81.5561 74.0512H84.4947C85.0343 74.0512 85.4717 73.6137 85.4717 73.0742V71.3587C85.4717 70.8191 85.0343 70.3817 84.4947 70.3817H81.5561Z" fill="#31305B"/>
<path d="M67.6626 80.1915C67.6626 79.2921 68.3916 78.5631 69.2909 78.5631H91.7206C92.6199 78.5631 93.3489 79.2921 93.3489 80.1915V81.8274C93.3489 82.7267 92.6199 83.4557 91.7206 83.4557H69.2909C68.3916 83.4557 67.6626 82.7267 67.6626 81.8274V80.1915Z" fill="white"/>
<path fill-rule="evenodd" clip-rule="evenodd" d="M67.0107 80.1914C67.0107 78.9324 68.0314 77.9117 69.2904 77.9117H91.7201C92.9791 77.9117 93.9998 78.9324 93.9998 80.1914V81.8274C93.9998 83.0864 92.9791 84.1071 91.7201 84.1071H69.2904C68.0314 84.1071 67.0107 83.0864 67.0107 81.8274V80.1914ZM69.2904 79.2144C68.7508 79.2144 68.3134 79.6518 68.3134 80.1914V81.8274C68.3134 82.367 68.7508 82.8044 69.2904 82.8044H91.7201C92.2597 82.8044 92.6971 82.367 92.6971 81.8274V80.1914C92.6971 79.6518 92.2597 79.2144 91.7201 79.2144H69.2904Z" fill="#31305B"/>
<path d="M67.5522 80.1915C67.5522 79.2921 68.2813 78.5631 69.1806 78.5631H79.602C80.5013 78.5631 81.2303 79.2921 81.2303 80.1915V81.8198C81.2303 82.7191 80.5013 83.4481 79.602 83.4481H69.1806C68.2813 83.4481 67.5522 82.7191 67.5522 81.8198V80.1915Z" fill="url(#paint2_linear)"/>
<path fill-rule="evenodd" clip-rule="evenodd" d="M79.602 79.2144H69.1806C68.641 79.2144 68.2036 79.6519 68.2036 80.1915V81.8198C68.2036 82.3594 68.641 82.7968 69.1806 82.7968H79.602C80.1416 82.7968 80.579 82.3594 80.579 81.8198V80.1915C80.579 79.6519 80.1416 79.2144 79.602 79.2144ZM69.1806 78.5631C68.2813 78.5631 67.5522 79.2921 67.5522 80.1915V81.8198C67.5522 82.7191 68.2813 83.4481 69.1806 83.4481H79.602C80.5013 83.4481 81.2303 82.7191 81.2303 81.8198V80.1915C81.2303 79.2921 80.5013 78.5631 79.602 78.5631H69.1806Z" fill="#31305B"/>
<path d="M77.3223 80.1517C77.3223 79.6121 77.7597 79.1747 78.2993 79.1747H81.2379C81.7775 79.1747 82.2149 79.6121 82.2149 80.1517V81.8672C82.2149 82.4067 81.7775 82.8442 81.2379 82.8442H78.2993C77.7597 82.8442 77.3223 82.4067 77.3223 81.8672V80.1517Z" fill="#828282"/>
<path fill-rule="evenodd" clip-rule="evenodd" d="M78.2997 78.5234H81.2384C82.1377 78.5234 82.8667 79.2525 82.8667 80.1518V81.8672C82.8667 82.7666 82.1377 83.4956 81.2384 83.4956H78.2997C77.4004 83.4956 76.6714 82.7666 76.6714 81.8672V80.1518C76.6714 79.2525 77.4004 78.5234 78.2997 78.5234ZM78.2997 79.1748C77.7601 79.1748 77.3227 79.6122 77.3227 80.1518V81.8672C77.3227 82.4068 77.7601 82.8443 78.2997 82.8443H81.2384C81.7779 82.8443 82.2154 82.4068 82.2154 81.8672V80.1518C82.2154 79.6122 81.7779 79.1748 81.2384 79.1748H78.2997Z" fill="#31305B"/>
<path d="M48.5771 66.4135H52.7756V67.0458C52.7756 67.9451 52.0465 68.6741 51.1472 68.6741H50.2055C49.3062 68.6741 48.5771 67.9451 48.5771 67.0458V66.4135Z" fill="white"/>
<path fill-rule="evenodd" clip-rule="evenodd" d="M48.2515 66.4136C48.2515 66.2337 48.3973 66.0879 48.5771 66.0879H52.7756C52.9554 66.0879 53.1012 66.2337 53.1012 66.4136V67.0459C53.1012 68.1251 52.2264 68.9999 51.1472 68.9999H50.2055C49.1263 68.9999 48.2515 68.1251 48.2515 67.0459V66.4136ZM48.9028 66.7392V67.0459C48.9028 67.7654 49.486 68.3486 50.2055 68.3486H51.1472C51.8667 68.3486 52.4499 67.7654 52.4499 67.0459V66.7392H48.9028Z" fill="black"/>
<path d="M60.975 85.4639C60.4707 89.4008 60.2186 91.3692 58.9057 92.5761C58.8538 92.6238 58.8009 92.6704 58.747 92.7158C57.3831 93.8647 55.3985 93.8647 51.4295 93.8647L49.1117 93.8647C45.0905 93.8647 43.0799 93.8647 41.7095 92.6943C41.6554 92.6481 41.6023 92.6007 41.5502 92.5521C40.2323 91.3229 40.0048 89.3252 39.5499 85.3299L39.4616 84.5537C38.9018 79.6371 38.6219 77.1788 39.9893 75.5666C40.0426 75.5039 40.0974 75.4425 40.1537 75.3825C41.6008 73.8415 44.075 73.8415 49.0233 73.8415L51.5289 73.8415C56.5408 73.8415 59.0467 73.8415 60.4967 75.4068C60.5531 75.4677 60.6079 75.53 60.6611 75.5936C62.0295 77.2307 61.7112 79.7164 61.0744 84.6876L60.975 85.4639Z" fill="url(#paint3_linear)"/>
<path fill-rule="evenodd" clip-rule="evenodd" d="M49.1117 92.5621L51.4295 92.5621C53.4471 92.5621 54.841 92.5598 55.9055 92.4283C56.9353 92.3011 57.4929 92.069 57.9077 91.7195C57.9472 91.6862 57.9861 91.6521 58.0241 91.6171C58.4235 91.25 58.7245 90.7264 58.9815 89.7211C59.2472 88.682 59.4265 87.2997 59.6829 85.2984L59.7823 84.5221C60.1055 81.9989 60.328 80.2388 60.3171 78.901C60.3064 77.5977 60.0709 76.9187 59.6616 76.4291C59.6226 76.3824 59.5824 76.3367 59.5411 76.2921C59.1074 75.8239 58.4638 75.5041 57.1724 75.3279C55.8468 75.1471 54.0727 75.1442 51.5289 75.1442L49.0233 75.1442C46.5115 75.1442 44.7607 75.147 43.4509 75.325C42.1755 75.4982 41.5366 75.8128 41.1033 76.2743C41.062 76.3182 41.0218 76.3633 40.9828 76.4093C40.5733 76.892 40.333 77.5624 40.3051 78.8492C40.2765 80.1707 40.4717 81.9106 40.7559 84.4063L40.8443 85.1825C41.0755 87.2134 41.2376 88.6168 41.4927 89.6724C41.7395 90.6939 42.0381 91.2259 42.4387 91.5995C42.4769 91.6351 42.5158 91.6699 42.5555 91.7038C42.972 92.0595 43.5344 92.296 44.5773 92.4257C45.6549 92.5597 47.0677 92.5621 49.1117 92.5621ZM58.9057 92.5761C60.2186 91.3692 60.4707 89.4008 60.975 85.4639L61.0744 84.6876C61.7112 79.7164 62.0295 77.2307 60.6611 75.5936C60.6079 75.53 60.5531 75.4677 60.4967 75.4068C59.0467 73.8415 56.5408 73.8415 51.5289 73.8415L49.0233 73.8415C44.075 73.8415 41.6008 73.8415 40.1537 75.3825C40.0974 75.4425 40.0426 75.5039 39.9893 75.5666C38.6219 77.1788 38.9018 79.6371 39.4616 84.5537L39.5499 85.3299C40.0048 89.3252 40.2323 91.3229 41.5502 92.5521C41.6023 92.6007 41.6554 92.6481 41.7095 92.6943C43.0799 93.8647 45.0905 93.8647 49.1117 93.8647L51.4295 93.8647C55.3985 93.8647 57.3831 93.8647 58.747 92.7158C58.8009 92.6704 58.8538 92.6238 58.9057 92.5761Z" fill="#31305B"/>
<path d="M47.2157 81.6645L50.353 79.3115C47.3412 79.3115 47.6863 76.488 47.6863 74.6056H45.8039C44.7058 79.939 46.5882 80.8802 47.2157 81.6645Z" fill="white"/>
<path fill-rule="evenodd" clip-rule="evenodd" d="M45.4849 74.5399C45.516 74.3885 45.6493 74.2799 45.8039 74.2799H47.6862C47.8661 74.2799 48.0119 74.4257 48.0119 74.6056C48.0119 74.7871 48.009 74.9701 48.006 75.1552C48.0009 75.4715 47.9957 75.794 48.0049 76.126C48.0193 76.6443 48.0691 77.1395 48.2014 77.5685C48.3326 77.994 48.54 78.339 48.8614 78.5806C49.1824 78.822 49.6512 78.9859 50.3529 78.9859C50.4931 78.9859 50.6176 79.0756 50.6619 79.2085C50.7062 79.3415 50.6605 79.488 50.5483 79.5721L47.411 81.925C47.2703 82.0306 47.0712 82.0053 46.9613 81.8679C46.9029 81.7948 46.8183 81.709 46.7175 81.6068C46.3907 81.2753 45.8934 80.7708 45.5615 79.9649C45.1162 78.8834 44.9284 77.2429 45.4849 74.5399ZM46.071 74.9312C45.5951 77.4011 45.7982 78.8291 46.1638 79.717C46.4415 80.3913 46.7944 80.7496 47.1117 81.0718C47.1622 81.1231 47.2118 81.1735 47.2601 81.2241L49.4901 79.5516C49.0879 79.4644 48.7501 79.3119 48.4699 79.1012C48.0089 78.7546 47.7379 78.2761 47.579 77.7604C47.421 77.2482 47.3688 76.6846 47.3538 76.1441C47.3443 75.801 47.3498 75.4481 47.355 75.1201C47.356 75.0561 47.357 74.9931 47.3579 74.9312H46.071Z" fill="#31305B"/>
<path d="M53.3327 81.6645L50.1963 79.2593C53.2072 79.2593 52.8622 76.3729 52.8622 74.4487H54.7441C55.8418 79.9007 53.96 80.8628 53.3327 81.6645Z" fill="white"/>
<path fill-rule="evenodd" clip-rule="evenodd" d="M55.0634 74.3844C55.0327 74.2324 54.8992 74.123 54.7441 74.123H52.8622C52.6824 74.123 52.5366 74.2689 52.5366 74.4487C52.5366 74.6338 52.5395 74.8206 52.5425 75.0098C52.5476 75.3334 52.5528 75.6637 52.5436 76.0033C52.5292 76.5337 52.4793 77.0413 52.3466 77.4815C52.2148 77.9187 52.0063 78.2727 51.6846 78.52C51.3639 78.7665 50.8963 78.9336 50.1963 78.9336C50.0568 78.9336 49.9327 79.0225 49.8879 79.1546C49.8431 79.2867 49.8874 79.4328 49.9981 79.5177L53.1345 81.9229C53.2763 82.0316 53.4791 82.0059 53.5892 81.8652C53.6481 81.7898 53.7331 81.7017 53.8343 81.5967C54.161 81.2578 54.6564 80.7439 54.9874 79.9221C55.4313 78.8197 55.6194 77.1458 55.0634 74.3844ZM54.4758 74.7744C54.953 77.3036 54.7501 78.7676 54.3832 79.6788C54.1049 80.3699 53.7506 80.7377 53.4331 81.0673C53.3837 81.1187 53.3351 81.1691 53.2878 81.2197L51.046 79.5004C51.4551 79.4116 51.798 79.2544 52.0816 79.0364C52.542 78.6824 52.8119 78.1945 52.9702 77.6696C53.1275 77.1477 53.1797 76.573 53.1947 76.021C53.2042 75.6706 53.1986 75.3105 53.1935 74.9755C53.1924 74.9073 53.1914 74.8402 53.1905 74.7744H54.4758Z" fill="#31305B"/>
<path d="M47.6079 71.7423C47.6079 70.2262 48.8369 68.9972 50.353 68.9972V68.9972C51.8691 68.9972 53.0982 70.2262 53.0982 71.7423V76.9096C53.0982 78.4257 51.8691 79.6547 50.353 79.6547V79.6547C48.8369 79.6547 47.6079 78.4257 47.6079 76.9096V71.7423Z" fill="#F59D6E"/>
<path fill-rule="evenodd" clip-rule="evenodd" d="M51.7955 76.9096V71.7423C51.7955 70.9457 51.1497 70.2999 50.353 70.2999C49.5564 70.2999 48.9106 70.9457 48.9106 71.7423V76.9096C48.9106 77.7062 49.5564 78.352 50.353 78.352C51.1497 78.352 51.7955 77.7062 51.7955 76.9096ZM50.353 68.9972C48.8369 68.9972 47.6079 70.2262 47.6079 71.7423V76.9096C47.6079 78.4257 48.8369 79.6547 50.353 79.6547C51.8691 79.6547 53.0982 78.4257 53.0982 76.9096V71.7423C53.0982 70.2262 51.8691 68.9972 50.353 68.9972Z" fill="#31305B"/>
<path fill-rule="evenodd" clip-rule="evenodd" d="M43.3287 62.2522C43.1123 61.5034 42.5855 60.7602 41.516 61.2644C39.7596 62.0923 40.6378 66.563 43.0967 65.5695C43.2723 66.563 43.6236 68.2187 44.853 69.3778C46.0673 70.5226 48.1181 72.1198 50.3226 72.1903C50.3333 72.1919 50.3441 72.1927 50.355 72.1927C50.3755 72.1927 50.3959 72.1926 50.4164 72.1923C50.4353 72.1926 50.4543 72.1927 50.4733 72.1927C50.4833 72.1927 50.4931 72.192 50.5029 72.1906C52.8534 72.1257 54.5986 70.5269 55.815 69.3814C57.0444 68.2239 57.3956 66.5702 57.5712 65.578C60.0299 66.5702 60.908 62.1053 59.1518 61.2785C58.0843 60.7759 57.5575 61.5144 57.3404 62.2609C58.7184 53.848 53.9588 51.9889 50.3397 51.9814C47.2856 51.7737 41.9182 53.5577 43.3287 62.2522Z" fill="url(#paint4_linear)"/>
<path fill-rule="evenodd" clip-rule="evenodd" d="M45.6144 54.2451C44.265 55.5593 43.2887 57.9383 43.9716 62.1479C44.0268 62.4879 43.8076 62.8121 43.4715 62.8877C43.1354 62.9632 42.7986 62.764 42.703 62.433C42.6105 62.1132 42.4784 61.9034 42.3549 61.812C42.3045 61.7748 42.2533 61.7546 42.1865 61.7512C42.1138 61.7475 41.9875 61.7621 41.7937 61.8535C41.5928 61.9482 41.4072 62.1756 41.3091 62.5797C41.2121 62.9795 41.2258 63.471 41.3528 63.9242C41.4814 64.3835 41.7037 64.727 41.9493 64.9062C42.1592 65.0594 42.4362 65.1338 42.8526 64.9656C43.0348 64.892 43.2404 64.9045 43.4123 64.9997C43.5841 65.0949 43.7038 65.2626 43.738 65.4561C43.9133 66.4473 44.2403 67.9051 45.2998 68.9039C45.8867 69.4572 46.6632 70.1074 47.5459 70.625C48.4319 71.1445 49.3881 71.5087 50.3434 71.5392C50.3549 71.5396 50.3665 71.5403 50.378 71.5413C50.3883 71.5412 50.3986 71.5411 50.4089 71.541C50.414 71.541 50.4191 71.541 50.4242 71.541C50.4336 71.5411 50.4429 71.5412 50.4522 71.5413C50.4631 71.5404 50.474 71.5398 50.4849 71.5395C52.5552 71.4824 54.1314 70.0722 55.3685 68.9072C56.4276 67.9099 56.7546 66.4544 56.9298 65.4645C56.964 65.2711 57.0837 65.1035 57.2555 65.0083C57.4273 64.9131 57.6328 64.9005 57.8149 64.974C58.2316 65.1421 58.5088 65.0677 58.7187 64.9147C58.9642 64.7358 59.1863 64.3929 59.3149 63.9345C59.4418 63.482 59.4555 62.9915 59.3585 62.5925C59.2605 62.1893 59.0752 61.9624 58.8743 61.8678C58.6808 61.7766 58.5545 61.7618 58.4817 61.7655C58.4146 61.7689 58.3634 61.7889 58.3132 61.8258C58.1903 61.9164 58.0584 62.1244 57.9658 62.4428C57.8695 62.7735 57.5324 62.9722 57.1965 62.8961C56.8605 62.82 56.6419 62.4955 56.6976 62.1556C57.3668 58.07 56.5231 55.7404 55.2461 54.4224C53.9481 53.0826 52.0592 52.6363 50.3384 52.6328C50.3241 52.6327 50.3098 52.6322 50.2955 52.6313C48.8925 52.5358 46.991 52.9045 45.6144 54.2451ZM50.4134 71.5455C50.4136 71.5454 50.4138 71.5454 50.414 71.5454ZM50.3623 51.3302C48.7128 51.223 46.4161 51.646 44.7055 53.3119C43.2178 54.7607 42.2701 57.0529 42.4735 60.4761C42.0938 60.4048 41.6745 60.4696 41.2382 60.6752C40.5609 60.9945 40.1976 61.6364 40.0432 62.2724C39.8878 62.9126 39.918 63.6319 40.0984 64.2757C40.2771 64.9134 40.6256 65.553 41.1814 65.9585C41.5852 66.2531 42.0653 66.3987 42.588 66.3569C42.8178 67.3849 43.2811 68.791 44.4062 69.8517C45.0336 70.4432 45.8896 71.1639 46.887 71.7488C47.874 72.3275 49.0359 72.7946 50.2752 72.8403C50.3017 72.8428 50.3283 72.844 50.3549 72.844C50.3754 72.844 50.3958 72.8439 50.4161 72.8437C50.4351 72.8439 50.4542 72.844 50.4733 72.844C50.4973 72.844 50.5215 72.843 50.5456 72.841C53.1634 72.7579 55.0696 70.978 56.2615 69.8556C57.3865 68.7963 57.8498 67.392 58.0797 66.3652C58.6023 66.4071 59.0822 66.2617 59.486 65.9674C60.0418 65.5624 60.3904 64.9235 60.5692 64.2863C60.7496 63.6432 60.7798 62.9245 60.6243 62.2848C60.4699 61.6492 60.1064 61.008 59.4292 60.6892C58.9959 60.4852 58.5793 60.42 58.2016 60.489C58.4142 57.2074 57.5909 54.9704 56.1817 53.5159C54.5458 51.8274 52.2564 51.3377 50.3623 51.3302Z" fill="#31305B"/>
<path d="M48.2539 67.0594H52.4523V67.6918C52.4523 68.5911 51.7233 69.3201 50.824 69.3201H49.8822C48.9829 69.3201 48.2539 68.5911 48.2539 67.6918V67.0594Z" fill="white"/>
<path fill-rule="evenodd" clip-rule="evenodd" d="M47.9282 67.0594C47.9282 66.8796 48.074 66.7338 48.2539 66.7338H52.4523C52.6322 66.7338 52.778 66.8796 52.778 67.0594V67.6918C52.778 68.7709 51.9031 69.6458 50.824 69.6458H49.8822C48.8031 69.6458 47.9282 68.7709 47.9282 67.6918V67.0594ZM48.5796 67.3851V67.6918C48.5796 68.4112 49.1628 68.9945 49.8822 68.9945H50.824C51.5434 68.9945 52.1266 68.4112 52.1266 67.6918V67.3851H48.5796Z" fill="#31305B"/>
<path d="M42.1469 59.409C42.2808 61.0563 43.3192 62.7836 43.9892 63.1839C43.5872 60.164 44.2683 57.6932 44.6591 56.8352C47.1327 57.35 51.5261 55.4625 54.0384 54.2614C56.0482 53.3006 56.9032 59.709 57.1823 63.0263C57.4867 61.6076 57.9955 60.9301 58.9879 61.071C59.4904 58.9547 59.5319 54.7762 56.0482 52.0308C51.6936 48.5991 47.3632 50.0696 44.9941 51.6877C42.4818 53.4035 41.9794 57.35 42.1469 59.409Z" fill="url(#paint5_linear)"/>
<path fill-rule="evenodd" clip-rule="evenodd" d="M55.645 52.5424C51.5978 49.353 47.5977 50.6982 45.3614 52.2255C44.2799 52.9642 43.5885 54.2167 43.1916 55.5994C42.7964 56.9758 42.7181 58.3978 42.796 59.3562C42.8402 59.8992 43.0001 60.4669 43.219 60.9849C43.2663 58.9054 43.7389 57.2841 44.0664 56.5652C44.1925 56.2882 44.4938 56.1355 44.7918 56.1975C45.847 56.4171 47.4192 56.1274 49.1335 55.5721C50.8146 55.0276 52.511 54.2697 53.7574 53.6738C54.1608 53.4809 54.5871 53.4579 54.9887 53.6245C55.3618 53.7794 55.6486 54.0709 55.8694 54.3822C56.3076 54.9997 56.6351 55.9097 56.8891 56.8735C57.2075 58.0813 57.4387 59.4896 57.6021 60.7828C57.854 60.5852 58.1411 60.4657 58.4553 60.4213C58.8116 58.3281 58.5934 54.8659 55.645 52.5424ZM44.6267 51.1498C47.1286 49.441 51.7892 47.8452 56.4513 51.5192C60.2215 54.4904 60.1517 58.9889 59.6216 61.2214C59.5439 61.5488 59.2295 61.7631 58.8963 61.7158C58.5937 61.6729 58.4454 61.7469 58.3163 61.8938C58.1406 62.0937 57.9654 62.4813 57.8191 63.1629C57.7514 63.4784 57.4629 63.6968 57.1408 63.6763C56.8188 63.6557 56.5603 63.4025 56.5332 63.0809C56.3944 61.4311 56.1144 59.0456 55.6295 57.2055C55.3836 56.2727 55.1031 55.5534 54.807 55.1359C54.6607 54.9297 54.5487 54.8523 54.4894 54.8277C54.4584 54.8148 54.4183 54.8017 54.3193 54.8491C53.0534 55.4543 51.2969 56.2407 49.5349 56.8114C48.0227 57.3012 46.4092 57.6661 45.0794 57.5523C44.734 58.5791 44.3078 60.6416 44.6348 63.098C44.6678 63.3457 44.5561 63.5905 44.3473 63.7279C44.1386 63.8654 43.8696 63.8712 43.655 63.743C43.3907 63.585 43.1428 63.3332 42.9273 63.0617C42.7046 62.7812 42.4861 62.4408 42.29 62.0661C41.9003 61.3218 41.5734 60.3933 41.4976 59.4618C41.4081 58.3612 41.4972 56.7805 41.9395 55.2399C42.3799 53.7056 43.196 52.127 44.6267 51.1498Z" fill="#31305B"/>
<path d="M45.6704 59.9544C45.6704 59.7761 45.815 59.6315 45.9934 59.6315H47.6081C47.7865 59.6315 47.9311 59.7761 47.9311 59.9544V59.9544C47.9311 60.1328 47.7865 60.2774 47.6081 60.2774H45.9934C45.815 60.2774 45.6704 60.1328 45.6704 59.9544V59.9544Z" fill="#31305B"/>
<path d="M52.7754 59.9544C52.7754 59.7761 52.92 59.6315 53.0983 59.6315H54.7131C54.8915 59.6315 55.0361 59.7761 55.0361 59.9544V59.9544C55.0361 60.1328 54.8915 60.2774 54.7131 60.2774H53.0983C52.92 60.2774 52.7754 60.1328 52.7754 59.9544V59.9544Z" fill="#31305B"/>
<path d="M54.7075 63.3441C54.7075 63.7935 54.3432 64.1578 53.8938 64.1578C53.4444 64.1578 53.0801 63.7935 53.0801 63.3441C53.0801 62.8947 53.4444 62.5304 53.8938 62.5304C54.3432 62.5304 54.7075 62.8947 54.7075 63.3441Z" fill="#31305B"/>
<path d="M47.8721 63.3441C47.8721 63.7935 47.5078 64.1578 47.0584 64.1578C46.6089 64.1578 46.2446 63.7935 46.2446 63.3441C46.2446 62.8947 46.6089 62.5304 47.0584 62.5304C47.5078 62.5304 47.8721 62.8947 47.8721 63.3441Z" fill="#31305B"/>
<defs>
<linearGradient id="paint0_linear" x1="73.4143" y1="60.1629" x2="73.4143" y2="65.5" gradientUnits="userSpaceOnUse">
<stop stop-color="white"/>
<stop offset="0.0001" stop-color="#F5C95B"/>
<stop offset="1" stop-color="#42FF00"/>
</linearGradient>
<linearGradient id="paint1_linear" x1="75.3683" y1="69.2815" x2="75.3683" y2="74.5" gradientUnits="userSpaceOnUse">
<stop stop-color="#EDC158"/>
<stop offset="1" stop-color="#42FF00"/>
</linearGradient>
<linearGradient id="paint2_linear" x1="74.4998" y1="79" x2="74.3913" y2="83" gradientUnits="userSpaceOnUse">
<stop stop-color="#EDC158"/>
<stop offset="1" stop-color="#42FF00"/>
</linearGradient>
<linearGradient id="paint3_linear" x1="57.4998" y1="76" x2="57.4998" y2="92.5" gradientUnits="userSpaceOnUse">
<stop stop-color="#9698E9"/>
<stop offset="1" stop-color="#433BC7"/>
</linearGradient>
<linearGradient id="paint4_linear" x1="48.5002" y1="49.5" x2="50.5002" y2="78.5" gradientUnits="userSpaceOnUse">
<stop stop-color="#FADBA5"/>
<stop offset="1" stop-color="#F3875B"/>
</linearGradient>
<linearGradient id="paint5_linear" x1="50.9998" y1="39.5" x2="50.0401" y2="59.803" gradientUnits="userSpaceOnUse">
<stop stop-color="#BF8B65"/>
<stop offset="1" stop-color="#502100"/>
</linearGradient>
</defs>
</svg>
