<svg width="122" height="122" viewBox="0 0 122 122" fill="none" xmlns="http://www.w3.org/2000/svg">
<path d="M26.7841 49.5775C28.5806 50.7324 30.0919 52.6001 30.1365 54.819C30.4466 58.2694 27.5416 61.5843 24.0876 61.7519C20.4109 62.1279 16.8839 58.6864 17.1583 54.9937C17.2296 51.857 19.9065 49.0375 23.0343 48.7898C24.3122 48.6882 25.6738 48.8949 26.7841 49.5775Z" fill="#F0F0F0"/>
<path d="M98.157 28.5374C98.901 29.0634 99.5287 29.737 100.001 30.5161C100.474 31.2952 100.781 32.1631 100.903 33.066C101.092 34.9658 100.494 36.9726 99.1052 38.3253C91.6056 45.7964 84.1345 53.296 76.6492 60.7813C75.4177 62.1162 73.8956 63.2141 72.9778 64.8092C72.2631 66.2795 71.8176 67.9976 72.272 69.614C72.4689 70.4719 72.8447 71.2786 73.3748 71.9813C73.9048 72.684 74.5773 73.2669 75.3481 73.6918C77.7987 75.13 81.1475 74.6649 83.1347 72.642C86.2447 69.5641 89.3226 66.4542 92.4165 63.3602C93.6337 62.1929 94.6942 60.8366 96.1502 59.9473C97.5211 59.2026 99.1149 58.9785 100.638 59.3164C102.662 59.7156 104.356 61.1984 105.286 63.0056C105.953 64.6723 105.986 66.526 105.377 68.215C104.723 69.582 103.546 70.5978 102.484 71.6458C94.8801 79.2499 87.276 86.8541 79.6718 94.4582C77.8254 96.0765 75.0434 96.4062 72.821 95.4064C71.4112 94.9234 70.4773 93.7008 69.228 92.9398C67.1891 91.8954 64.58 91.9774 62.7015 93.3354C61.5395 94.1232 60.6537 95.2085 59.645 96.1888C55.6611 100.173 51.6779 104.156 47.6952 108.139C46.0734 109.849 43.4981 110.468 41.2489 109.833C37.9749 108.998 35.7935 105.308 36.7131 102.043C37.0482 100.311 38.3528 99.0314 39.5879 97.8783C42.083 95.3832 44.5781 92.8881 47.0732 90.393C48.2655 89.1329 49.6859 88.0583 50.5699 86.5398C51.4788 84.8609 51.5359 82.8221 50.9584 81.0256C49.7697 78.1045 46.3229 76.194 43.2378 77.119C41.903 77.4309 40.8016 78.297 39.8409 79.2363C38.0373 81.1218 36.1517 82.9255 34.3499 84.795C33.0061 86.1673 31.0724 87.0032 29.1422 86.8125C28.1894 86.7346 27.2646 86.452 26.431 85.9838C25.5975 85.5157 24.8748 84.8731 24.3124 84.0999C23.1255 82.6635 22.9098 80.6513 23.2128 78.8691C23.4908 77.037 24.9932 75.7627 26.2461 74.5348C39.4346 61.3463 52.623 48.1579 65.8115 34.9694C66.8131 33.9429 67.7862 32.8414 69.0605 32.1588C70.6395 31.4816 72.4627 31.519 74.0846 32.0323C76.1092 32.7202 77.0573 34.9837 79.0819 35.6823C80.7501 36.4344 82.8852 36.192 84.2022 34.8714C86.1128 32.9609 87.9948 31.0218 89.9321 29.1415C92.0743 27.01 95.7243 26.7997 98.157 28.5374Z" fill="#F0F0F0"/>
<path fill-rule="evenodd" clip-rule="evenodd" d="M65.0719 49.5319C66.0449 50.3865 67.459 55.2308 65.3318 67.7709L62.8277 67.8071L59.9459 67.8488C57.4622 55.3754 58.7378 50.4922 59.686 49.6098L62.1901 49.5736L62.1901 49.5736L65.0719 49.5319Z" fill="url(#paint0_linear)"/>
<path fill-rule="evenodd" clip-rule="evenodd" d="M61.842 49.233L59.5496 49.2661L59.453 49.356C59.1445 49.6431 58.8657 50.1904 58.6466 50.9854C58.4237 51.7941 58.2504 52.9043 58.1861 54.3674C58.0576 57.2941 58.3641 61.6626 59.6094 67.9168L59.6655 68.1985L65.622 68.1124L65.67 67.8291C66.7366 61.5415 66.9185 57.166 66.7066 54.2442C66.6007 52.7836 66.3958 51.6789 66.1499 50.8769C65.9082 50.0885 65.614 49.5496 65.2974 49.2715L65.1983 49.1845L61.842 49.233ZM62.5381 49.9142L59.8369 49.9532C59.6805 50.1489 59.4845 50.5296 59.3079 51.1703C59.1026 51.9151 58.9344 52.9708 58.8717 54.3979C58.7483 57.2085 59.035 61.4312 60.2266 67.4991L65.0412 67.4295C66.0594 61.3297 66.2256 57.1004 66.0221 54.2946C65.9188 52.8698 65.7206 51.8194 65.4942 51.0808C65.2994 50.4455 65.0926 50.0706 64.9307 49.8796L62.5381 49.9142Z" fill="#31305B"/>
<path d="M58.9503 46.718L65.7246 46.6201L65.7659 49.5217L58.9917 49.6197L58.9503 46.718Z" fill="url(#paint1_linear)"/>
<path fill-rule="evenodd" clip-rule="evenodd" d="M65.6863 46.2922C65.9064 46.289 66.0875 46.472 66.0907 46.7009L66.1333 49.6907C66.1366 49.9196 65.9608 50.1078 65.7407 50.111L59.0346 50.2079C58.8145 50.2111 58.6334 50.0281 58.6302 49.7991L58.5876 46.8094C58.5843 46.5805 58.7601 46.3923 58.9801 46.3891L65.6863 46.2922ZM59.3904 47.2124L59.4212 49.3731L65.3304 49.2877L65.2997 47.127L59.3904 47.2124Z" fill="#31305B"/>
<path d="M57.2973 42.6027L62.0605 34.6495L66.861 42.4645L64.4822 46.6381L60.1691 46.7005L57.2973 42.6027Z" fill="url(#paint2_linear)"/>
<path fill-rule="evenodd" clip-rule="evenodd" d="M62.1567 34.1609C62.2868 34.159 62.4085 34.2277 62.4779 34.3421L67.3114 42.3067C67.3891 42.4346 67.3883 42.5978 67.3095 42.7248L64.7927 46.7784C64.725 46.8874 64.6093 46.954 64.4845 46.9558L60.1945 47.0178C60.0697 47.0196 59.9522 46.9564 59.8814 46.8494L57.2501 42.8702C57.1677 42.7455 57.1623 42.5825 57.2363 42.4523L61.8408 34.3513C61.907 34.2349 62.0266 34.1628 62.1567 34.1609ZM62.1729 35.2941L58.0005 42.6348L60.3832 46.2382L64.2736 46.1819L66.5527 42.5111L62.1729 35.2941Z" fill="#31305B"/>
<path fill-rule="evenodd" clip-rule="evenodd" d="M62.1567 34.1609C62.3629 34.1579 62.5325 34.3294 62.5356 34.5439L62.6335 41.4095C62.6365 41.624 62.4718 41.8003 62.2656 41.8032C62.0594 41.8062 61.8898 41.6348 61.8867 41.4203L61.7889 34.5546C61.7858 34.3402 61.9505 34.1639 62.1567 34.1609Z" fill="#31305B"/>
<path fill-rule="evenodd" clip-rule="evenodd" d="M62.8 42.05C62.504 41.7509 62.0312 41.7577 61.744 42.0653C61.4567 42.3729 61.4637 42.8647 61.7596 43.1638C62.0555 43.4629 62.5283 43.4561 62.8156 43.1485C63.1029 42.841 63.0959 42.3492 62.8 42.05ZM61.2081 41.5237C61.7827 40.9086 62.7283 40.8949 63.3201 41.4931C63.912 42.0914 63.926 43.075 63.3514 43.6901C62.7769 44.3053 61.8313 44.3189 61.2394 43.7207C60.6476 43.1224 60.6336 42.1388 61.2081 41.5237Z" fill="#31305B"/>
<path d="M70.172 52.0338L73.5831 41.5768L77.1591 51.9777L77.3101 71.068L70.3231 71.124L70.172 52.0338Z" fill="url(#paint3_linear)"/>
<path fill-rule="evenodd" clip-rule="evenodd" d="M73.5803 41.2312C73.7276 41.23 73.8591 41.3235 73.9073 41.4637L77.4833 51.8646C77.4956 51.9001 77.5019 51.9373 77.5022 51.9749L77.6532 71.0651C77.6548 71.256 77.5024 71.4119 77.3128 71.4135L70.3258 71.4695C70.1363 71.471 69.9814 71.3176 69.9799 71.1267L69.8289 52.0365C69.8286 51.9989 69.8344 51.9615 69.846 51.9258L73.2571 41.4689C73.303 41.328 73.4331 41.2324 73.5803 41.2312ZM70.5156 52.0877L70.6634 70.7756L76.9642 70.7251L76.8164 52.0371L73.5916 42.6578L70.5156 52.0877Z" fill="#31305B"/>
<path d="M72.2881 45.6329L73.4893 42.8149L74.7797 45.6329L72.2881 45.6329Z" fill="#31305B"/>
<path fill-rule="evenodd" clip-rule="evenodd" d="M73.4838 42.3902L75.0479 45.8059L72.0278 45.8059L73.4838 42.3902ZM73.495 43.2399L72.5486 45.4603L74.5117 45.4603L73.495 43.2399Z" fill="#31305B"/>
<path d="M70.4675 52.385L72.1014 53.7861L72.2356 70.7552L70.613 70.7682L70.4675 52.385Z" fill="#606060"/>
<path d="M76.8535 52.3337L75.1595 53.7615L75.2937 70.7306L76.9989 70.7169L76.8535 52.3337Z" fill="#606060"/>
<path d="M73.6194 52.3597L72.1017 53.7861L72.236 70.7552L73.7649 70.7429L73.6194 52.3597Z" fill="url(#paint4_linear)"/>
<path d="M73.6194 52.3597L75.1595 53.7616L75.2938 70.7307L73.7649 70.7429L73.6194 52.3597Z" fill="url(#paint5_linear)"/>
<path d="M46.7162 41.5488H53.4227V49.2242H46.7162V41.5488Z" fill="url(#paint6_linear)"/>
<path fill-rule="evenodd" clip-rule="evenodd" d="M52.7364 42.24H47.4025V48.533H52.7364V42.24ZM46.7162 41.5488V49.2242H53.4227V41.5488H46.7162Z" fill="#31305B"/>
<path d="M45.0396 50.0309C45.0396 49.0766 45.8077 48.303 46.7553 48.303H53.3836C54.3312 48.303 55.0993 49.0766 55.0993 50.0309V64.6889C55.0993 65.6432 54.3312 66.4169 53.3836 66.4169H46.7553C45.8077 66.4169 45.0396 65.6432 45.0396 64.6889V50.0309Z" fill="url(#paint7_linear)"/>
<path fill-rule="evenodd" clip-rule="evenodd" d="M53.3836 48.9942H46.7553C46.1867 48.9942 45.7258 49.4583 45.7258 50.0309V64.6889C45.7258 65.2615 46.1867 65.7257 46.7553 65.7257H53.3836C53.9522 65.7257 54.4131 65.2615 54.4131 64.6889V50.0309C54.4131 49.4583 53.9522 48.9942 53.3836 48.9942ZM46.7553 48.303C45.8077 48.303 45.0396 49.0766 45.0396 50.0309V64.6889C45.0396 65.6432 45.8077 66.4169 46.7553 66.4169H53.3836C54.3312 66.4169 55.0993 65.6432 55.0993 64.6889V50.0309C55.0993 49.0766 54.3312 48.303 53.3836 48.303H46.7553Z" fill="#31305B"/>
<path d="M48.0879 44.6576C48.0879 44.4667 48.2415 44.312 48.431 44.312H49.269C49.4585 44.312 49.6121 44.4667 49.6121 44.6576V45.5015C49.6121 45.6924 49.4585 45.8471 49.269 45.8471H48.431C48.2415 45.8471 48.0879 45.6924 48.0879 45.5015V44.6576Z" fill="#31305B"/>
<path d="M50.5264 44.6576C50.5264 44.4667 50.68 44.312 50.8695 44.312H51.7074C51.8969 44.312 52.0506 44.4667 52.0506 44.6576V45.5015C52.0506 45.6924 51.8969 45.8471 51.7074 45.8471H50.8695C50.68 45.8471 50.5264 45.6924 50.5264 45.5015V44.6576Z" fill="#31305B"/>
<path d="M38.0836 60.6104H75.3009V91.2451H38.0836V60.6104Z" fill="url(#paint8_linear)"/>
<path fill-rule="evenodd" clip-rule="evenodd" d="M73.9283 61.9927H39.4562V89.8628H73.9283V61.9927ZM38.0836 60.6104V91.2451H75.3009V60.6104H38.0836Z" fill="#31305B"/>
<path fill-rule="evenodd" clip-rule="evenodd" d="M62.418 76.2952C63.3157 77.4735 63.8492 78.9478 63.8492 80.5476C63.8492 84.4092 60.7409 87.5396 56.9067 87.5396C53.0725 87.5396 49.9643 84.4092 49.9643 80.5476C49.9643 78.9412 50.5022 77.4613 51.4066 76.2806L56.9196 81.8329L62.418 76.2952Z" fill="#E7895A"/>
<path fill-rule="evenodd" clip-rule="evenodd" d="M51.4277 74.9698L56.9406 80.522L62.4391 74.9844C61.1701 73.3187 59.1735 72.2449 56.9278 72.2449C54.6887 72.2449 52.6971 73.3125 51.4277 74.9698Z" fill="#E7895A"/>
<path d="M73.8696 60.6104H84.2475V91.2451H73.8696V60.6104Z" fill="#EF966A"/>
<path fill-rule="evenodd" clip-rule="evenodd" d="M82.8749 61.9927H75.2422V89.8628H82.8749V61.9927ZM73.8696 60.6104V91.2451H84.2475V60.6104H73.8696Z" fill="#31305B"/>
<path d="M84.182 60.6104H73.5117L80.2033 70.7018H90.3311L84.182 60.6104Z" fill="#EF966A"/>
<path fill-rule="evenodd" clip-rule="evenodd" d="M83.4139 61.9927L87.8783 69.3194H80.9372L76.0788 61.9927H83.4139ZM84.182 60.6104L90.3311 70.7018H80.2033L73.5117 60.6104H84.182Z" fill="#31305B"/>
<path d="M38.0836 60.6104H75.3008L69.2173 70.7018H32L38.0836 60.6104Z" fill="#EFC459"/>
<path fill-rule="evenodd" clip-rule="evenodd" d="M38.856 61.9927L34.4391 69.3194H68.4449L72.8618 61.9927H38.856ZM38.0836 60.6104L32 70.7018H69.2173L75.3008 60.6104H38.0836Z" fill="#31305B"/>
<defs>
<linearGradient id="paint0_linear" x1="64.427" y1="59.0552" x2="64.427" y2="50.0699" gradientUnits="userSpaceOnUse">
<stop stop-color="#E23779"/>
<stop offset="1" stop-color="#F4577A"/>
</linearGradient>
<linearGradient id="paint1_linear" x1="60.8239" y1="49.033" x2="65.6279" y2="49.033" gradientUnits="userSpaceOnUse">
<stop stop-color="#FFFAC8"/>
<stop offset="1" stop-color="#F9DD7C"/>
</linearGradient>
<linearGradient id="paint2_linear" x1="61.9668" y1="40" x2="61.9668" y2="47.5" gradientUnits="userSpaceOnUse">
<stop stop-color="white"/>
<stop offset="1" stop-color="#CBD0E7"/>
</linearGradient>
<linearGradient id="paint3_linear" x1="73.8166" y1="44.5405" x2="73.8166" y2="71.096" gradientUnits="userSpaceOnUse">
<stop stop-color="#FFFEFA"/>
<stop offset="0.786145" stop-color="#F9DD7C"/>
</linearGradient>
<linearGradient id="paint4_linear" x1="72.855" y1="52.3659" x2="73.0025" y2="70.7491" gradientUnits="userSpaceOnUse">
<stop stop-color="#EFC459"/>
<stop offset="1" stop-color="#E7895A"/>
</linearGradient>
<linearGradient id="paint5_linear" x1="74.3839" y1="52.3536" x2="74.5314" y2="70.7368" gradientUnits="userSpaceOnUse">
<stop stop-color="#EFC459"/>
<stop offset="1" stop-color="#E7895A"/>
</linearGradient>
<linearGradient id="paint6_linear" x1="50.0695" y1="42.467" x2="50.0695" y2="50.7611" gradientUnits="userSpaceOnUse">
<stop stop-color="white"/>
<stop offset="1" stop-color="#CBD0E7"/>
</linearGradient>
<linearGradient id="paint7_linear" x1="50.0694" y1="52.9999" x2="50.0694" y2="67.9999" gradientUnits="userSpaceOnUse">
<stop offset="0.046875" stop-color="#00ABFD"/>
<stop offset="1" stop-color="#005397"/>
</linearGradient>
<linearGradient id="paint8_linear" x1="54.0001" y1="63.0001" x2="53.0001" y2="91.0001" gradientUnits="userSpaceOnUse">
<stop stop-color="#EFC258"/>
<stop offset="1" stop-color="#F19669"/>
</linearGradient>
</defs>
</svg>
