<svg width="122" height="122" viewBox="0 0 122 122" fill="none" xmlns="http://www.w3.org/2000/svg">
<path d="M26.7841 49.5775C28.5806 50.7324 30.0919 52.6001 30.1365 54.819C30.4466 58.2694 27.5416 61.5843 24.0876 61.7519C20.4109 62.1279 16.8839 58.6864 17.1583 54.9937C17.2296 51.857 19.9065 49.0375 23.0343 48.7898C24.3122 48.6882 25.6738 48.8949 26.7841 49.5775Z" fill="#F0F0F0"/>
<path d="M98.157 28.5374C98.901 29.0634 99.5287 29.737 100.001 30.5161C100.474 31.2952 100.781 32.1631 100.903 33.066C101.092 34.9658 100.494 36.9726 99.1052 38.3253C91.6056 45.7964 84.1345 53.296 76.6492 60.7813C75.4177 62.1162 73.8956 63.2141 72.9778 64.8092C72.2631 66.2795 71.8176 67.9976 72.272 69.614C72.4689 70.4719 72.8447 71.2786 73.3748 71.9813C73.9048 72.684 74.5773 73.2669 75.3481 73.6918C77.7987 75.13 81.1475 74.6649 83.1347 72.642C86.2447 69.5641 89.3226 66.4542 92.4165 63.3602C93.6337 62.1929 94.6942 60.8366 96.1502 59.9473C97.5211 59.2026 99.1149 58.9785 100.638 59.3164C102.662 59.7156 104.356 61.1984 105.286 63.0056C105.953 64.6723 105.986 66.526 105.377 68.215C104.723 69.582 103.546 70.5978 102.484 71.6458C94.8801 79.2499 87.276 86.8541 79.6718 94.4582C77.8254 96.0765 75.0434 96.4062 72.821 95.4064C71.4112 94.9234 70.4773 93.7008 69.228 92.9398C67.1891 91.8954 64.58 91.9774 62.7015 93.3354C61.5395 94.1232 60.6537 95.2085 59.645 96.1888C55.6611 100.173 51.6779 104.156 47.6952 108.139C46.0734 109.849 43.4981 110.468 41.2489 109.833C37.9749 108.998 35.7935 105.308 36.7131 102.043C37.0482 100.311 38.3528 99.0314 39.5879 97.8783C42.083 95.3832 44.5781 92.8881 47.0732 90.393C48.2655 89.1329 49.6859 88.0583 50.5699 86.5398C51.4788 84.8609 51.5359 82.8221 50.9584 81.0256C49.7697 78.1045 46.3229 76.194 43.2378 77.119C41.903 77.4309 40.8016 78.297 39.8409 79.2363C38.0373 81.1218 36.1517 82.9255 34.3499 84.795C33.0061 86.1673 31.0724 87.0032 29.1422 86.8125C28.1894 86.7346 27.2646 86.452 26.431 85.9838C25.5975 85.5157 24.8748 84.8731 24.3124 84.0999C23.1255 82.6635 22.9098 80.6513 23.2128 78.8691C23.4908 77.037 24.9932 75.7627 26.2461 74.5348C39.4346 61.3463 52.623 48.1579 65.8115 34.9694C66.8131 33.9429 67.7862 32.8414 69.0605 32.1588C70.6395 31.4816 72.4627 31.519 74.0846 32.0323C76.1092 32.7202 77.0573 34.9837 79.0819 35.6823C80.7501 36.4344 82.8852 36.192 84.2022 34.8714C86.1128 32.9609 87.9948 31.0218 89.9321 29.1415C92.0743 27.01 95.7243 26.7997 98.157 28.5374Z" fill="#F0F0F0"/>
<path d="M84.1232 58.4349C84.1368 59.0863 83.622 59.6254 82.9733 59.6391C82.3246 59.6528 81.7878 59.1358 81.7741 58.4844C81.7605 57.833 82.2754 57.2939 82.924 57.2802C83.5727 57.2665 84.1096 57.7835 84.1232 58.4349Z" fill="#989898"/>
<path d="M84.4264 72.9786C84.44 73.63 83.9252 74.1691 83.2765 74.1828C82.6279 74.1965 82.091 73.6795 82.0774 73.0281C82.0638 72.3767 82.5786 71.8376 83.2273 71.8239C83.8759 71.8102 84.4128 72.3272 84.4264 72.9786Z" fill="#989898"/>
<path d="M83.3525 71.9493C83.4062 72.5986 82.9257 73.1687 82.2791 73.2227C81.6325 73.2767 81.0648 72.7942 81.011 72.1449C80.9572 71.4956 81.4377 70.9254 82.0843 70.8714C82.7309 70.8174 83.2987 71.3 83.3525 71.9493Z" fill="#989898"/>
<path fill-rule="evenodd" clip-rule="evenodd" d="M66.2016 38.8901C65.0149 37.7033 63.0908 37.7033 61.9041 38.8901L41.016 59.7782C40.9947 59.7995 40.9947 59.834 41.016 59.8553C41.0262 59.8655 41.032 59.8794 41.032 59.8939V85.9612C41.032 87.6395 42.3925 89 44.0708 89H84.0863C85.7646 89 87.1252 87.6395 87.1252 85.9612V59.823C87.1252 59.8219 87.1256 59.8209 87.1263 59.8202C87.1278 59.8187 87.1278 59.8162 87.1263 59.8147L66.2016 38.8901Z" fill="white"/>
<path fill-rule="evenodd" clip-rule="evenodd" d="M42.2475 60.2657V85.9612C42.2475 86.9681 43.0638 87.7845 44.0708 87.7845H84.0863C85.0933 87.7845 85.9096 86.9681 85.9096 85.9612V60.3171L65.3421 39.7496C64.6301 39.0375 63.4756 39.0375 62.7636 39.7496L42.2475 60.2657ZM86.2668 58.9607C86.1858 59.0417 86.1174 59.1329 86.0628 59.2313C86.1164 59.1343 86.1845 59.043 86.2668 58.9607ZM61.9041 38.8901C63.0908 37.7033 65.0149 37.7033 66.2016 38.8901L87.1263 59.8147C87.1272 59.8156 87.1276 59.8169 87.1274 59.818C87.1273 59.8188 87.1269 59.8196 87.1263 59.8202C87.1256 59.8209 87.1252 59.8219 87.1252 59.823V85.9612C87.1252 87.6395 85.7646 89 84.0863 89H44.0708C42.3925 89 41.032 87.6395 41.032 85.9612V59.8939C41.032 59.8794 41.0262 59.8655 41.016 59.8553C40.9947 59.834 40.9947 59.7995 41.016 59.7782L61.9041 38.8901Z" fill="#31305B"/>
<path d="M46.1434 56.6888C46.1328 56.1854 46.5323 55.7688 47.0357 55.7582L85.8845 54.9434C86.3879 54.9329 86.8045 55.3324 86.815 55.8358L87.2323 75.7307C87.2429 76.2341 86.8433 76.6508 86.34 76.6613L47.4912 77.4761C46.9878 77.4867 46.5712 77.0871 46.5606 76.5838L46.1434 56.6888Z" fill="#C4C4C4"/>
<path fill-rule="evenodd" clip-rule="evenodd" d="M47.365 56.9671L47.7695 76.2545L86.0107 75.4524L85.6061 56.1651L47.365 56.9671ZM47.0357 55.7582C46.5323 55.7688 46.1328 56.1854 46.1434 56.6888L46.5606 76.5838C46.5712 77.0871 46.9878 77.4867 47.4912 77.4761L86.34 76.6613C86.8433 76.6508 87.2429 76.2341 87.2323 75.7307L86.815 55.8358C86.8045 55.3324 86.3879 54.9329 85.8845 54.9434L47.0357 55.7582Z" fill="#31305B"/>
<path fill-rule="evenodd" clip-rule="evenodd" d="M49.4157 62.029C51.1603 61.9924 52.545 60.5484 52.5084 58.8037C52.5056 58.67 52.4945 58.5384 52.4757 58.4094L80.5604 57.8203C80.547 57.95 80.5414 58.082 80.5442 58.2157C80.5808 59.9604 82.0248 61.345 83.7694 61.3084C83.9032 61.3056 84.0348 61.2946 84.1638 61.2757L84.3553 70.4066C84.2256 70.3932 84.0936 70.3876 83.9599 70.3905C82.2153 70.427 80.8306 71.871 80.8672 73.6157C80.87 73.7494 80.8811 73.881 80.8999 74.01L52.8153 74.5991C52.8287 74.4694 52.8342 74.3374 52.8314 74.2037C52.7948 72.459 51.3508 71.0744 49.6062 71.111C49.4725 71.1138 49.3408 71.1248 49.2118 71.1437L49.0203 62.0128C49.15 62.0262 49.282 62.0318 49.4157 62.029Z" fill="#989898"/>
<path fill-rule="evenodd" clip-rule="evenodd" d="M49.0203 62.0128C49.15 62.0262 49.282 62.0318 49.4157 62.029C49.4872 62.0275 49.5581 62.0236 49.6283 62.0174C51.2012 61.8796 52.4341 60.594 52.5058 59.0166C52.509 58.9462 52.5099 58.8752 52.5084 58.8037C52.5056 58.67 52.4945 58.5384 52.4757 58.4094L80.5604 57.8203C80.547 57.95 80.5414 58.082 80.5442 58.2157C80.5457 58.2872 80.5496 58.3581 80.5557 58.4283C80.6935 60.0013 81.9792 61.2341 83.5565 61.3059C83.6269 61.3091 83.6979 61.3099 83.7694 61.3084C83.9032 61.3056 84.0348 61.2946 84.1638 61.2757L84.3553 70.4066C84.2256 70.3932 84.0936 70.3876 83.9599 70.3905C83.8884 70.392 83.8175 70.3958 83.7473 70.402C82.1744 70.5398 80.9415 71.8255 80.8698 73.4028C80.8666 73.4732 80.8657 73.5442 80.8672 73.6157C80.87 73.7494 80.8811 73.881 80.8999 74.01L52.8153 74.5991C52.8287 74.4694 52.8342 74.3374 52.8314 74.2037C52.8299 74.1322 52.8261 74.0613 52.8199 73.9911C52.6821 72.4181 51.3964 71.1853 49.8191 71.1136C49.7487 71.1104 49.6777 71.1095 49.6062 71.111C49.4725 71.1138 49.3408 71.1248 49.2118 71.1437L49.0203 62.0128ZM49.8063 70.5048C51.7194 70.5711 53.2822 72.0697 53.4287 73.9783L80.261 73.4155C80.3273 71.5025 81.8259 69.9397 83.7345 69.7932L83.5693 61.9146C81.6562 61.8483 80.0934 60.3497 79.947 58.4411L53.1146 59.0039C53.0483 60.9169 51.5497 62.4797 49.6411 62.6262L49.8063 70.5048Z" fill="#31305B"/>
<path d="M72.4091 65.8922C72.4732 68.9454 70.05 71.4723 66.9969 71.5364C63.9438 71.6004 61.4168 69.1773 61.3528 66.1241C61.2887 63.071 63.7119 60.544 66.765 60.48C69.8181 60.416 72.3451 62.8391 72.4091 65.8922Z" fill="#C4C4C4"/>
<path d="M77.9375 65.7763C77.9603 66.8667 77.0065 67.7711 75.8071 67.7962C74.6076 67.8214 73.6168 66.9578 73.5939 65.8674C73.571 64.777 74.5248 63.8727 75.7243 63.8475C76.9237 63.8224 77.9146 64.6859 77.9375 65.7763Z" fill="#C4C4C4"/>
<path d="M60.1684 66.1489C60.1913 67.2393 59.2375 68.1436 58.0381 68.1688C56.8386 68.1939 55.8477 67.3304 55.8249 66.24C55.802 65.1496 56.7558 64.2452 57.9552 64.2201C59.1547 64.1949 60.1456 65.0585 60.1684 66.1489Z" fill="#C4C4C4"/>
<path d="M84.5012 58.5279C84.515 59.1821 83.9957 59.7236 83.3415 59.7373C82.6872 59.751 82.1457 59.2318 82.132 58.5776C82.1183 57.9233 82.6375 57.3818 83.2918 57.3681C83.946 57.3544 84.4875 57.8736 84.5012 58.5279Z" fill="#989898"/>
<path d="M50.9373 59.2317C50.951 59.886 50.4318 60.4275 49.7775 60.4412C49.1233 60.4549 48.5818 59.9357 48.5681 59.2814C48.5543 58.6272 49.0736 58.0857 49.7278 58.072C50.3821 58.0582 50.9236 58.5775 50.9373 59.2317Z" fill="#989898"/>
<path d="M84.8076 73.138C84.8214 73.7922 84.3021 74.3337 83.6479 74.3474C82.9936 74.3612 82.4521 73.8419 82.4384 73.1877C82.4247 72.5334 82.9439 71.9919 83.5982 71.9782C84.2524 71.9645 84.7939 72.4837 84.8076 73.138Z" fill="#989898"/>
<path d="M51.2434 73.8421C51.2572 74.4963 50.7379 75.0378 50.0837 75.0515C49.4294 75.0653 48.8879 74.546 48.8742 73.8918C48.8605 73.2375 49.3797 72.696 50.034 72.6823C50.6882 72.6686 51.2297 73.1878 51.2434 73.8421Z" fill="#989898"/>
<path d="M44.1144 58.0833C44.0727 57.5816 44.4456 57.141 44.9473 57.0992L83.6708 53.8776C84.1726 53.8358 84.6132 54.2088 84.6549 54.7105L86.3048 74.5413C86.3465 75.0431 85.9736 75.4837 85.4719 75.5254L46.7483 78.7471C46.2466 78.7888 45.806 78.4159 45.7642 77.9141L44.1144 58.0833Z" fill="#C4C4C4"/>
<path fill-rule="evenodd" clip-rule="evenodd" d="M45.3509 58.2854L46.9504 77.5105L85.0682 74.3393L83.4688 55.1141L45.3509 58.2854ZM44.9473 57.0992C44.4456 57.141 44.0727 57.5816 44.1144 58.0833L45.7642 77.9141C45.806 78.4159 46.2466 78.7888 46.7483 78.7471L85.4719 75.5254C85.9736 75.4837 86.3465 75.0431 86.3048 74.5413L84.6549 54.7105C84.6132 54.2088 84.1726 53.8358 83.6708 53.8776L44.9473 57.0992Z" fill="#31305B"/>
<path fill-rule="evenodd" clip-rule="evenodd" d="M47.7117 63.2104C49.4508 63.0657 50.7432 61.5387 50.5985 59.7997C50.5875 59.6664 50.5682 59.5357 50.5414 59.4081L78.5356 57.0791C78.5302 57.2094 78.5329 57.3415 78.544 57.4747C78.6887 59.2138 80.2157 60.5062 81.9547 60.3616C82.088 60.3505 82.2187 60.3313 82.3463 60.3045L83.1035 69.4059C82.9732 69.4006 82.8412 69.4032 82.7079 69.4143C80.9689 69.559 79.6764 71.086 79.8211 72.8251C79.8322 72.9583 79.8514 73.089 79.8782 73.2166L51.884 75.5456C51.8894 75.4153 51.8867 75.2833 51.8757 75.15C51.731 73.411 50.2039 72.1185 48.4649 72.2632C48.3316 72.2743 48.2009 72.2935 48.0733 72.3203L47.3161 63.2188C47.4464 63.2242 47.5784 63.2215 47.7117 63.2104Z" fill="#989898"/>
<path fill-rule="evenodd" clip-rule="evenodd" d="M47.3161 63.2188C47.4464 63.2242 47.5784 63.2215 47.7117 63.2104C47.783 63.2045 47.8535 63.1962 47.9232 63.1857C49.4846 62.9507 50.6354 61.5911 50.6092 60.0124C50.608 59.9419 50.6045 59.871 50.5985 59.7997C50.5875 59.6664 50.5682 59.5357 50.5414 59.4081L78.5356 57.0791C78.5302 57.2094 78.5329 57.3415 78.544 57.4747C78.5499 57.546 78.5582 57.6165 78.5687 57.6862C78.8037 59.2476 80.1633 60.3984 81.7421 60.3722C81.8125 60.371 81.8835 60.3675 81.9547 60.3616C82.088 60.3505 82.2187 60.3313 82.3463 60.3045L83.1035 69.4059C82.9732 69.4006 82.8412 69.4032 82.7079 69.4143C82.6366 69.4202 82.5661 69.4285 82.4964 69.439C80.935 69.674 79.7843 71.0337 79.8105 72.6124C79.8117 72.6829 79.8152 72.7538 79.8211 72.8251C79.8322 72.9583 79.8514 73.089 79.8782 73.2166L51.884 75.5456C51.8894 75.4153 51.8867 75.2833 51.8757 75.15C51.8697 75.0787 51.8615 75.0082 51.851 74.9385C51.6159 73.3771 50.2563 72.2264 48.6776 72.2526C48.6071 72.2537 48.5362 72.2572 48.4649 72.2632C48.3316 72.2743 48.2009 72.2935 48.0733 72.3203L47.3161 63.2188ZM48.6271 71.6457C50.5406 71.5933 52.1933 72.9922 52.4578 74.888L79.2037 72.6629C79.1513 70.7494 80.5501 69.0967 82.4459 68.8322L81.7925 60.979C79.8791 61.0314 78.2264 59.6326 77.9618 57.7367L51.216 59.9619C51.2684 61.8754 49.8696 63.528 47.9737 63.7926L48.6271 71.6457Z" fill="#31305B"/>
<path d="M70.9006 65.6407C71.1537 68.684 68.8919 71.3563 65.8486 71.6095C62.8053 71.8627 60.133 69.6009 59.8798 66.5576C59.6266 63.5143 61.8885 60.842 64.9317 60.5888C67.975 60.3356 70.6474 62.5974 70.9006 65.6407Z" fill="#C4C4C4"/>
<path d="M76.4108 65.1822C76.5012 66.2691 75.6053 67.2309 74.4097 67.3303C73.2141 67.4298 72.1716 66.6293 72.0812 65.5424C71.9908 64.4556 72.8867 63.4938 74.0823 63.3944C75.2778 63.2949 76.3204 64.0954 76.4108 65.1822Z" fill="#C4C4C4"/>
<path d="M58.6989 66.6558C58.7893 67.7426 57.8934 68.7044 56.6978 68.8038C55.5022 68.9033 54.4597 68.1028 54.3693 67.016C54.2789 65.9291 55.1748 64.9673 56.3704 64.8679C57.5659 64.7684 58.6084 65.5689 58.6989 66.6558Z" fill="#C4C4C4"/>
<path d="M82.5123 57.5408C82.5666 58.193 82.0819 58.7656 81.4298 58.8199C80.7776 58.8741 80.205 58.3894 80.1507 57.7373C80.0965 57.0852 80.5811 56.5125 81.2333 56.4583C81.8854 56.404 82.4581 56.8887 82.5123 57.5408Z" fill="#989898"/>
<path d="M49.0567 60.3243C49.111 60.9764 48.6263 61.5491 47.9742 61.6033C47.3221 61.6576 46.7494 61.1729 46.6952 60.5208C46.6409 59.8686 47.1256 59.296 47.7777 59.2417C48.4298 59.1875 49.0025 59.6722 49.0567 60.3243Z" fill="#989898"/>
<path d="M83.724 72.1039C83.7782 72.7561 83.2936 73.3287 82.6414 73.383C81.9893 73.4372 81.4167 72.9526 81.3624 72.3004C81.3081 71.6483 81.7928 71.0756 82.445 71.0214C83.0971 70.9671 83.6697 71.4518 83.724 72.1039Z" fill="#989898"/>
<path d="M50.2684 74.8873C50.3227 75.5394 49.838 76.112 49.1859 76.1663C48.5337 76.2206 47.9611 75.7359 47.9068 75.0837C47.8526 74.4316 48.3373 73.859 48.9894 73.8047C49.6415 73.7505 50.2142 74.2351 50.2684 74.8873Z" fill="#989898"/>
<path d="M41.4373 57.6268C41.3484 57.1312 41.6781 56.6574 42.1737 56.5685L80.4206 49.7085C80.9162 49.6196 81.39 49.9493 81.4789 50.4449L84.9921 70.0316C85.0809 70.5272 84.7513 71.001 84.2557 71.0899L46.0087 77.95C45.5131 78.0389 45.0393 77.7092 44.9504 77.2136L41.4373 57.6268Z" fill="#C4C4C4"/>
<path fill-rule="evenodd" clip-rule="evenodd" d="M42.6874 57.7113L46.0932 76.6999L83.742 69.9471L80.3361 50.9586L42.6874 57.7113ZM42.1737 56.5685C41.6781 56.6574 41.3484 57.1312 41.4373 57.6268L44.9504 77.2136C45.0393 77.7092 45.5131 78.0389 46.0087 77.95L84.2557 71.0899C84.7513 71.001 85.0809 70.5272 84.9921 70.0316L81.4789 50.4449C81.39 49.9493 80.9162 49.6196 80.4206 49.7085L42.1737 56.5685Z" fill="#31305B"/>
<path fill-rule="evenodd" clip-rule="evenodd" d="M79.7079 56.2316C79.5834 56.2703 79.4551 56.3018 79.3235 56.3254C77.6059 56.6335 75.9637 55.4908 75.6556 53.7732C75.632 53.6415 75.6169 53.5103 75.61 53.3801L47.9603 58.3394C47.9991 58.4639 48.0305 58.5922 48.0541 58.7239C48.3622 60.4415 47.2195 62.0836 45.5019 62.3917C45.3703 62.4153 45.239 62.4304 45.1088 62.4374L46.7212 71.4268C46.8457 71.3881 46.974 71.3566 47.1057 71.333C48.8233 71.025 50.4654 72.1676 50.7735 73.8852C50.7971 74.0169 50.8122 74.1481 50.8192 74.2783L78.4688 69.319C78.4301 69.1945 78.3986 69.0662 78.375 68.9346C78.0669 67.2169 79.2096 65.5748 80.9272 65.2667C81.0589 65.2431 81.1901 65.228 81.3203 65.221L79.7079 56.2316Z" fill="#989898"/>
<path fill-rule="evenodd" clip-rule="evenodd" d="M79.2202 56.9554C77.3202 57.188 75.543 55.9513 75.1008 54.0889L48.6841 58.8271C48.9168 60.7271 47.6801 62.5044 45.8176 62.9465L47.2088 70.7031C49.1089 70.4704 50.8862 71.7071 51.3283 73.5695L77.745 68.8313C77.5124 66.9313 78.749 65.1541 80.6115 64.7119L79.2202 56.9554ZM79.1127 56.356C77.5435 56.531 76.0814 55.5136 75.7001 53.9814C75.6831 53.913 75.6682 53.8436 75.6556 53.7732C75.632 53.6415 75.6169 53.5103 75.61 53.3801L47.9603 58.3394C47.9991 58.4639 48.0305 58.5922 48.0541 58.7239C48.0667 58.7942 48.0769 58.8645 48.0847 58.9346C48.2598 60.5038 47.2424 61.9659 45.7101 62.3472C45.6417 62.3642 45.5723 62.3791 45.5019 62.3917C45.3703 62.4153 45.239 62.4304 45.1088 62.4374L46.7212 71.4268C46.8457 71.3881 46.974 71.3566 47.1057 71.333C47.176 71.3204 47.2463 71.3102 47.3164 71.3024C48.8856 71.1274 50.3477 72.1448 50.729 73.677C50.746 73.7454 50.7609 73.8148 50.7735 73.8852C50.7971 74.0169 50.8122 74.1481 50.8192 74.2783L78.4688 69.319C78.4301 69.1945 78.3986 69.0662 78.375 68.9346C78.3624 68.8642 78.3522 68.7939 78.3444 68.7238C78.1694 67.1546 79.1868 65.6925 80.719 65.3112C80.7874 65.2942 80.8568 65.2793 80.9272 65.2667C81.0589 65.2431 81.1901 65.228 81.3203 65.221L79.7079 56.2316C79.5834 56.2703 79.4551 56.3018 79.3235 56.3254C79.2531 56.338 79.1828 56.3482 79.1127 56.356Z" fill="#31305B"/>
<path d="M68.8169 62.6237C69.356 65.6296 67.3563 68.5033 64.3505 69.0425C61.3447 69.5816 58.4709 67.5819 57.9318 64.5761C57.3926 61.5703 59.3923 58.6965 62.3981 58.1574C65.404 57.6182 68.2777 59.6179 68.8169 62.6237Z" fill="#C4C4C4"/>
<path d="M74.2594 61.6476C74.452 62.7211 73.6508 63.7631 72.4699 63.9749C71.2891 64.1867 70.1757 63.4881 69.9832 62.4146C69.7906 61.3411 70.5918 60.2991 71.7727 60.0873C72.9535 59.8755 74.0669 60.5741 74.2594 61.6476Z" fill="#C4C4C4"/>
<path d="M56.7656 64.7853C56.9581 65.8588 56.1569 66.9007 54.976 67.1126C53.7952 67.3244 52.6818 66.6258 52.4893 65.5523C52.2967 64.4788 53.0979 63.4368 54.2788 63.225C55.4596 63.0132 56.573 63.7118 56.7656 64.7853Z" fill="#C4C4C4"/>
<path d="M79.613 53.4647C79.7285 54.1088 79.3 54.7246 78.6559 54.8401C78.0118 54.9557 77.396 54.5272 77.2805 53.8831C77.1649 53.2389 77.5934 52.6231 78.2375 52.5076C78.8817 52.3921 79.4975 52.8206 79.613 53.4647Z" fill="#989898"/>
<path d="M46.569 59.3916C46.6846 60.0357 46.2561 60.6515 45.612 60.767C44.9679 60.8825 44.3521 60.454 44.2365 59.8099C44.121 59.1658 44.5495 58.55 45.1936 58.4345C45.8377 58.319 46.4535 58.7475 46.569 59.3916Z" fill="#989898"/>
<path d="M82.1928 67.8485C82.3084 68.4926 81.8799 69.1084 81.2358 69.2239C80.5916 69.3395 79.9758 68.911 79.8603 68.2668C79.7448 67.6227 80.1733 67.0069 80.8174 66.8914C81.4615 66.7759 82.0773 67.2044 82.1928 67.8485Z" fill="#989898"/>
<path d="M49.1486 73.7754C49.2642 74.4195 48.8357 75.0353 48.1916 75.1508C47.5475 75.2663 46.9316 74.8378 46.8161 74.1937C46.7006 73.5496 47.1291 72.9338 47.7732 72.8183C48.4173 72.7028 49.0331 73.1313 49.1486 73.7754Z" fill="#989898"/>
<path d="M59.9421 76.7681L41.7091 61.0952V85.5578L41.7596 86.4695L42.2154 87.2292L42.8232 87.9889L43.279 88.1408L44.0387 88.2928L44.4946 88.1408L44.9504 87.8369L50.8761 83.2787L59.9421 76.7681Z" fill="white"/>
<path fill-rule="evenodd" clip-rule="evenodd" d="M41.1016 59.7712V85.5745L41.1613 86.6531L41.7155 87.5768L42.4609 88.5086L43.1229 88.7293L44.078 88.9203L44.7642 88.6916L45.3048 88.3311L51.239 83.7664L60.9246 76.8109L41.1016 59.7712ZM58.9601 76.7252L50.5137 82.7908L44.5963 87.3426L44.2254 87.5899L43.9999 87.6651L43.4355 87.5522L43.1859 87.469L42.7158 86.8813L42.3583 86.2856L42.3171 85.5409V62.419L58.9601 76.7252Z" fill="#31305B"/>
<path d="M68.6533 76.6806L86.2786 61.0952V85.4212L86.2297 86.3277L85.7891 87.0832L85.2016 87.8386L84.761 87.9897L84.0266 88.1408L83.586 87.9897L83.1453 87.6876L77.4171 83.1548L68.6533 76.6806Z" fill="white"/>
<path fill-rule="evenodd" clip-rule="evenodd" d="M86.8864 59.7463V85.4374L86.8289 86.5069L86.2938 87.4242L85.5703 88.3546L84.9215 88.5771L83.9866 88.7694L83.3106 88.5376L82.7846 88.1769L77.048 83.6374L67.688 76.7228L86.8864 59.7463ZM69.6189 76.638L77.7865 82.6718L83.5063 87.1979L83.8615 87.4415L84.0668 87.5119L84.6006 87.4021L84.8332 87.3224L85.2846 86.7419L85.6309 86.1482L85.6709 85.4047V62.4438L69.6189 76.638Z" fill="#31305B"/>
<path d="M58.1969 76.1604H70.1793L85.4685 88.6196H42.9248L58.1969 76.1604Z" fill="white"/>
<path fill-rule="evenodd" clip-rule="evenodd" d="M58.6298 77.3759L46.3377 87.4041H82.0527L69.7468 77.3759H58.6298ZM70.1793 76.1604H58.1969L42.9248 88.6196H85.4685L70.1793 76.1604Z" fill="#31305B"/>
<path d="M42.5195 57.6005L43.2792 61.7029L60.1448 76.2893L68.9574 75.9854L85.8229 60.7912L85.671 56.0811C85.1138 56.1317 83.8477 56.233 83.6957 56.0811C83.5438 55.9291 83.6451 55.2201 83.5438 55.0175L81.2647 55.3213L80.353 50.915L42.5195 57.6005Z" fill="url(#paint0_linear)" style="mix-blend-mode:overlay"/>
<path d="M59.5369 76.7451L42.0636 62.0068L41.9116 86.3174L43.1272 87.8368H84.9111L85.9747 86.1655V61.7029L69.2611 76.7451H59.5369Z" fill="url(#paint1_linear)" style="mix-blend-mode:multiply"/>
<path fill-rule="evenodd" clip-rule="evenodd" d="M45.5658 85.989H28V89.9262V90.229H28.0358C28.4392 91.927 32.2014 93.2576 36.7829 93.2576C41.3644 93.2576 45.1266 91.927 45.53 90.229H45.5658V89.9262V85.989Z" fill="url(#paint2_linear)"/>
<path fill-rule="evenodd" clip-rule="evenodd" d="M28.9086 89.9719L28.9198 90.019C28.9532 90.1599 29.086 90.3988 29.4763 90.6937C29.8582 90.9824 30.4162 91.2693 31.1416 91.5221C32.5893 92.0266 34.5707 92.3491 36.7829 92.3491C38.9952 92.3491 40.9765 92.0266 42.4243 91.5221C43.1497 91.2693 43.7076 90.9824 44.0896 90.6937C44.4799 90.3988 44.6126 90.1599 44.6461 90.019L44.6573 89.9719V86.8976H28.9086V89.9719ZM45.53 90.229H45.5658V85.989H28V90.229H28.0358C28.4392 91.927 32.2014 93.2576 36.7829 93.2576C41.3644 93.2576 45.1266 91.927 45.53 90.229Z" fill="#31305B"/>
<path d="M45.5658 86.2919C45.5658 88.1318 41.6336 89.6234 36.7829 89.6234C31.9322 89.6234 28 88.1318 28 86.2919C28 84.452 31.9322 82.9604 36.7829 82.9604C41.6336 82.9604 45.5658 84.452 45.5658 86.2919Z" fill="#EFC459"/>
<path fill-rule="evenodd" clip-rule="evenodd" d="M44.269 86.9122C44.6014 86.6142 44.6573 86.4029 44.6573 86.2919C44.6573 86.1809 44.6014 85.9696 44.269 85.6716C43.9371 85.3739 43.4056 85.0643 42.6712 84.7857C41.2087 84.231 39.1271 83.869 36.7829 83.869C34.4387 83.869 32.3571 84.231 30.8947 84.7857C30.1603 85.0643 29.6287 85.3739 29.2968 85.6716C28.9645 85.9696 28.9086 86.1809 28.9086 86.2919C28.9086 86.4029 28.9645 86.6142 29.2968 86.9122C29.6287 87.2099 30.1603 87.5195 30.8947 87.7981C32.3571 88.3528 34.4387 88.7148 36.7829 88.7148C39.1271 88.7148 41.2087 88.3528 42.6712 87.7981C43.4056 87.5195 43.9371 87.2099 44.269 86.9122ZM36.7829 89.6234C41.6336 89.6234 45.5658 88.1318 45.5658 86.2919C45.5658 84.452 41.6336 82.9604 36.7829 82.9604C31.9322 82.9604 28 84.452 28 86.2919C28 88.1318 31.9322 89.6234 36.7829 89.6234Z" fill="#31305B"/>
<path d="M42.5374 86.2919C42.5374 87.1282 39.9611 87.8062 36.7831 87.8062C33.605 87.8062 31.0287 87.1282 31.0287 86.2919C31.0287 85.4556 33.605 84.7776 36.7831 84.7776C39.9611 84.7776 42.5374 85.4556 42.5374 86.2919Z" fill="url(#paint3_linear)"/>
<path fill-rule="evenodd" clip-rule="evenodd" d="M30.1198 91.4406V87.8063H30.7256V91.4406H30.1198Z" fill="#31305B" fill-opacity="0.38"/>
<path fill-rule="evenodd" clip-rule="evenodd" d="M31.9373 92.6519V89.0176H32.543V92.6519H31.9373Z" fill="#31305B" fill-opacity="0.38"/>
<path fill-rule="evenodd" clip-rule="evenodd" d="M33.7543 92.6519V89.0176H34.36V92.6519H33.7543Z" fill="#31305B" fill-opacity="0.38"/>
<path fill-rule="evenodd" clip-rule="evenodd" d="M43.4458 91.4406V87.8063H42.8401V91.4406H43.4458Z" fill="#31305B" fill-opacity="0.38"/>
<path fill-rule="evenodd" clip-rule="evenodd" d="M41.6288 92.0462V89.0176H41.0231V92.0462H41.6288Z" fill="#31305B" fill-opacity="0.38"/>
<path fill-rule="evenodd" clip-rule="evenodd" d="M39.2057 92.6519L39.2057 89.0176L39.8114 89.0176L39.8114 92.6519L39.2057 92.6519Z" fill="#31305B" fill-opacity="0.38"/>
<path fill-rule="evenodd" clip-rule="evenodd" d="M35.5713 92.6519V89.0176H36.177V92.6519H35.5713Z" fill="#31305B" fill-opacity="0.38"/>
<path fill-rule="evenodd" clip-rule="evenodd" d="M37.3887 92.6519V89.0176H37.9944V92.6519H37.3887Z" fill="#31305B" fill-opacity="0.38"/>
<path fill-rule="evenodd" clip-rule="evenodd" d="M45.5658 82.0286H28V85.9657V86.2686H28.0358C28.4392 87.9666 32.2014 89.2972 36.7829 89.2972C41.3644 89.2972 45.1266 87.9666 45.53 86.2686H45.5658V85.9657V82.0286Z" fill="url(#paint4_linear)"/>
<path fill-rule="evenodd" clip-rule="evenodd" d="M28.9086 86.0114L28.9198 86.0586C28.9532 86.1994 29.086 86.4383 29.4763 86.7333C29.8582 87.022 30.4162 87.3089 31.1416 87.5617C32.5893 88.0662 34.5707 88.3886 36.7829 88.3886C38.9952 88.3886 40.9765 88.0662 42.4243 87.5617C43.1497 87.3089 43.7076 87.022 44.0896 86.7333C44.4799 86.4383 44.6126 86.1994 44.6461 86.0586L44.6573 86.0114V82.9371H28.9086V86.0114ZM45.53 86.2686H45.5658V82.0286H28V86.2686H28.0358C28.4392 87.9666 32.2014 89.2972 36.7829 89.2972C41.3644 89.2972 45.1266 87.9666 45.53 86.2686Z" fill="#31305B"/>
<path d="M45.5658 82.3315C45.5658 84.1714 41.6336 85.6629 36.7829 85.6629C31.9322 85.6629 28 84.1714 28 82.3315C28 80.4915 31.9322 79 36.7829 79C41.6336 79 45.5658 80.4915 45.5658 82.3315Z" fill="#EFC459"/>
<path fill-rule="evenodd" clip-rule="evenodd" d="M44.269 82.9518C44.6014 82.6538 44.6573 82.4424 44.6573 82.3315C44.6573 82.2205 44.6014 82.0091 44.269 81.7111C43.9371 81.4135 43.4056 81.1039 42.6712 80.8253C41.2087 80.2706 39.1271 79.9086 36.7829 79.9086C34.4387 79.9086 32.3571 80.2706 30.8947 80.8253C30.1603 81.1039 29.6287 81.4135 29.2968 81.7111C28.9645 82.0091 28.9086 82.2205 28.9086 82.3315C28.9086 82.4424 28.9645 82.6538 29.2968 82.9518C29.6287 83.2494 30.1603 83.5591 30.8947 83.8376C32.3571 84.3923 34.4387 84.7543 36.7829 84.7543C39.1271 84.7543 41.2087 84.3923 42.6712 83.8376C43.4056 83.5591 43.9371 83.2494 44.269 82.9518ZM36.7829 85.6629C41.6336 85.6629 45.5658 84.1714 45.5658 82.3315C45.5658 80.4915 41.6336 79 36.7829 79C31.9322 79 28 80.4915 28 82.3315C28 84.1714 31.9322 85.6629 36.7829 85.6629Z" fill="#31305B"/>
<path d="M42.5374 82.3314C42.5374 83.1678 39.9611 83.8457 36.7831 83.8457C33.605 83.8457 31.0287 83.1678 31.0287 82.3314C31.0287 81.4951 33.605 80.8171 36.7831 80.8171C39.9611 80.8171 42.5374 81.4951 42.5374 82.3314Z" fill="url(#paint5_linear)"/>
<path fill-rule="evenodd" clip-rule="evenodd" d="M30.1198 87.4801V83.8458H30.7256V87.4801H30.1198Z" fill="#31305B" fill-opacity="0.38"/>
<path fill-rule="evenodd" clip-rule="evenodd" d="M31.9373 88.6914V85.0571H32.543V88.6914H31.9373Z" fill="#31305B" fill-opacity="0.38"/>
<path fill-rule="evenodd" clip-rule="evenodd" d="M33.7543 88.6914V85.0571H34.36V88.6914H33.7543Z" fill="#31305B" fill-opacity="0.38"/>
<path fill-rule="evenodd" clip-rule="evenodd" d="M43.4458 87.4801V83.8458H42.8401V87.4801H43.4458Z" fill="#31305B" fill-opacity="0.38"/>
<path fill-rule="evenodd" clip-rule="evenodd" d="M41.6288 88.0857V85.0571H41.0231V88.0857H41.6288Z" fill="#31305B" fill-opacity="0.38"/>
<path fill-rule="evenodd" clip-rule="evenodd" d="M39.2057 88.6914L39.2057 85.0571L39.8114 85.0571L39.8114 88.6914L39.2057 88.6914Z" fill="#31305B" fill-opacity="0.38"/>
<path fill-rule="evenodd" clip-rule="evenodd" d="M35.5713 88.6914V85.0571H36.177V88.6914H35.5713Z" fill="#31305B" fill-opacity="0.38"/>
<path fill-rule="evenodd" clip-rule="evenodd" d="M37.3887 88.6914V85.0571H37.9944V88.6914H37.3887Z" fill="#31305B" fill-opacity="0.38"/>
<path fill-rule="evenodd" clip-rule="evenodd" d="M59.8237 94.7019H42.2578V98.6391V98.9419H42.2936C42.697 100.64 46.4592 101.971 51.0407 101.971C55.6223 101.971 59.3845 100.64 59.7879 98.9419H59.8237V98.6391V94.7019Z" fill="url(#paint6_linear)"/>
<path fill-rule="evenodd" clip-rule="evenodd" d="M43.1664 98.6848L43.1776 98.7319C43.2111 98.8728 43.3438 99.1117 43.7341 99.4066C44.116 99.6953 44.674 99.9822 45.3994 100.235C46.8471 100.74 48.8285 101.062 51.0407 101.062C53.253 101.062 55.2343 100.74 56.6821 100.235C57.4075 99.9822 57.9654 99.6953 58.3474 99.4066C58.7377 99.1117 58.8704 98.8728 58.9039 98.7319L58.9151 98.6848V95.6105H43.1664V98.6848ZM59.7879 98.9419H59.8237V94.7019H42.2578V98.9419H42.2936C42.697 100.64 46.4592 101.971 51.0407 101.971C55.6223 101.971 59.3845 100.64 59.7879 98.9419Z" fill="#31305B"/>
<path d="M59.8237 95.0048C59.8237 96.8447 55.8914 98.3362 51.0407 98.3362C46.1901 98.3362 42.2578 96.8447 42.2578 95.0048C42.2578 93.1649 46.1901 91.6733 51.0407 91.6733C55.8914 91.6733 59.8237 93.1649 59.8237 95.0048Z" fill="#EFC459"/>
<path fill-rule="evenodd" clip-rule="evenodd" d="M58.5268 95.6251C58.8592 95.3271 58.9151 95.1158 58.9151 95.0048C58.9151 94.8938 58.8592 94.6825 58.5268 94.3845C58.195 94.0868 57.6634 93.7772 56.929 93.4986C55.4665 92.9439 53.385 92.5819 51.0407 92.5819C48.6965 92.5819 46.6149 92.9439 45.1525 93.4986C44.4181 93.7772 43.8865 94.0868 43.5546 94.3845C43.2223 94.6825 43.1664 94.8938 43.1664 95.0048C43.1664 95.1158 43.2223 95.3271 43.5546 95.6251C43.8865 95.9228 44.4181 96.2324 45.1525 96.511C46.6149 97.0657 48.6965 97.4277 51.0407 97.4277C53.385 97.4277 55.4665 97.0657 56.929 96.511C57.6634 96.2324 58.195 95.9228 58.5268 95.6251ZM51.0407 98.3362C55.8914 98.3362 59.8237 96.8447 59.8237 95.0048C59.8237 93.1649 55.8914 91.6733 51.0407 91.6733C46.1901 91.6733 42.2578 93.1649 42.2578 95.0048C42.2578 96.8447 46.1901 98.3362 51.0407 98.3362Z" fill="#31305B"/>
<path d="M56.7952 95.0048C56.7952 95.8411 54.2189 96.5191 51.0409 96.5191C47.8629 96.5191 45.2866 95.8411 45.2866 95.0048C45.2866 94.1685 47.8629 93.4905 51.0409 93.4905C54.2189 93.4905 56.7952 94.1685 56.7952 95.0048Z" fill="url(#paint7_linear)"/>
<path fill-rule="evenodd" clip-rule="evenodd" d="M44.3777 100.153V96.5192H44.9834V100.153H44.3777Z" fill="#31305B" fill-opacity="0.38"/>
<path fill-rule="evenodd" clip-rule="evenodd" d="M46.1951 101.365V97.7305H46.8008V101.365H46.1951Z" fill="#31305B" fill-opacity="0.38"/>
<path fill-rule="evenodd" clip-rule="evenodd" d="M48.0121 101.365V97.7305H48.6178V101.365H48.0121Z" fill="#31305B" fill-opacity="0.38"/>
<path fill-rule="evenodd" clip-rule="evenodd" d="M57.7036 100.153V96.5192H57.0979V100.153H57.7036Z" fill="#31305B" fill-opacity="0.38"/>
<path fill-rule="evenodd" clip-rule="evenodd" d="M55.8866 100.759V97.7305H55.2809V100.759H55.8866Z" fill="#31305B" fill-opacity="0.38"/>
<path fill-rule="evenodd" clip-rule="evenodd" d="M53.4635 101.365L53.4635 97.7305L54.0693 97.7305L54.0693 101.365L53.4635 101.365Z" fill="#31305B" fill-opacity="0.38"/>
<path fill-rule="evenodd" clip-rule="evenodd" d="M49.8291 101.365V97.7305H50.4348V101.365H49.8291Z" fill="#31305B" fill-opacity="0.38"/>
<path fill-rule="evenodd" clip-rule="evenodd" d="M51.6465 101.365V97.7305H52.2522V101.365H51.6465Z" fill="#31305B" fill-opacity="0.38"/>
<defs>
<linearGradient id="paint0_linear" x1="64.2472" y1="50.4592" x2="64.2472" y2="76.8971" gradientUnits="userSpaceOnUse">
<stop stop-color="#00C797"/>
<stop offset="1" stop-color="#008905"/>
</linearGradient>
<linearGradient id="paint1_linear" x1="63.9432" y1="76.2893" x2="63.9432" y2="107.437" gradientUnits="userSpaceOnUse">
<stop stop-color="white"/>
<stop offset="1" stop-color="#C1B46E" stop-opacity="0.33"/>
</linearGradient>
<linearGradient id="paint2_linear" x1="36.7829" y1="86.2919" x2="36.7829" y2="93.2576" gradientUnits="userSpaceOnUse">
<stop stop-color="#EFC459"/>
<stop offset="1" stop-color="#E7895A"/>
</linearGradient>
<linearGradient id="paint3_linear" x1="36.7831" y1="87.8062" x2="36.7831" y2="85.0804" gradientUnits="userSpaceOnUse">
<stop stop-color="#E9985A"/>
<stop offset="1" stop-color="#E9985A" stop-opacity="0"/>
</linearGradient>
<linearGradient id="paint4_linear" x1="36.7829" y1="82.3314" x2="36.7829" y2="89.2972" gradientUnits="userSpaceOnUse">
<stop stop-color="#EFC459"/>
<stop offset="1" stop-color="#E7895A"/>
</linearGradient>
<linearGradient id="paint5_linear" x1="36.7831" y1="83.8457" x2="36.7831" y2="81.12" gradientUnits="userSpaceOnUse">
<stop stop-color="#E9985A"/>
<stop offset="1" stop-color="#E9985A" stop-opacity="0"/>
</linearGradient>
<linearGradient id="paint6_linear" x1="51.0407" y1="95.0048" x2="51.0407" y2="101.971" gradientUnits="userSpaceOnUse">
<stop stop-color="#EFC459"/>
<stop offset="1" stop-color="#E7895A"/>
</linearGradient>
<linearGradient id="paint7_linear" x1="51.0409" y1="96.5191" x2="51.0409" y2="93.7933" gradientUnits="userSpaceOnUse">
<stop stop-color="#E9985A"/>
<stop offset="1" stop-color="#E9985A" stop-opacity="0"/>
</linearGradient>
</defs>
</svg>
