<svg width="122" height="122" viewBox="0 0 122 122" fill="none" xmlns="http://www.w3.org/2000/svg">
<path d="M26.7841 49.5775C28.5806 50.7324 30.0919 52.6001 30.1365 54.819C30.4466 58.2694 27.5416 61.5843 24.0876 61.7519C20.4109 62.1279 16.8839 58.6864 17.1583 54.9937C17.2296 51.857 19.9065 49.0375 23.0343 48.7898C24.3122 48.6882 25.6738 48.8949 26.7841 49.5775Z" fill="#F0F0F0"/>
<path d="M98.157 28.5374C98.901 29.0634 99.5287 29.737 100.001 30.5161C100.474 31.2952 100.781 32.1631 100.903 33.066C101.092 34.9658 100.494 36.9726 99.1052 38.3253C91.6056 45.7964 84.1345 53.296 76.6492 60.7813C75.4177 62.1162 73.8956 63.2141 72.9778 64.8092C72.2631 66.2795 71.8176 67.9976 72.272 69.614C72.4689 70.4719 72.8447 71.2786 73.3748 71.9813C73.9048 72.684 74.5773 73.2669 75.3481 73.6918C77.7987 75.13 81.1475 74.6649 83.1347 72.642C86.2447 69.5641 89.3226 66.4542 92.4165 63.3602C93.6337 62.1929 94.6942 60.8366 96.1502 59.9473C97.5211 59.2026 99.1149 58.9785 100.638 59.3164C102.662 59.7156 104.356 61.1984 105.286 63.0056C105.953 64.6723 105.986 66.526 105.377 68.215C104.723 69.582 103.546 70.5978 102.484 71.6458C94.8801 79.2499 87.276 86.8541 79.6718 94.4582C77.8254 96.0765 75.0434 96.4062 72.821 95.4064C71.4112 94.9234 70.4773 93.7008 69.228 92.9398C67.1891 91.8954 64.58 91.9774 62.7015 93.3354C61.5395 94.1232 60.6537 95.2085 59.645 96.1888C55.6611 100.173 51.6779 104.156 47.6952 108.139C46.0734 109.849 43.4981 110.468 41.2489 109.833C37.9749 108.998 35.7935 105.308 36.7131 102.043C37.0482 100.311 38.3528 99.0314 39.5879 97.8783C42.083 95.3832 44.5781 92.8881 47.0732 90.393C48.2655 89.1329 49.6859 88.0583 50.5699 86.5398C51.4788 84.8609 51.5359 82.8221 50.9584 81.0256C49.7697 78.1045 46.3229 76.194 43.2378 77.119C41.903 77.4309 40.8016 78.297 39.8409 79.2363C38.0373 81.1218 36.1517 82.9255 34.3499 84.795C33.0061 86.1673 31.0724 87.0032 29.1422 86.8125C28.1894 86.7346 27.2646 86.452 26.431 85.9838C25.5975 85.5157 24.8748 84.8731 24.3124 84.0999C23.1255 82.6635 22.9098 80.6513 23.2128 78.8691C23.4908 77.037 24.9932 75.7627 26.2461 74.5348C39.4346 61.3463 52.623 48.1579 65.8115 34.9694C66.8131 33.9429 67.7862 32.8414 69.0605 32.1588C70.6395 31.4816 72.4627 31.519 74.0846 32.0323C76.1092 32.7202 77.0573 34.9837 79.0819 35.6823C80.7501 36.4344 82.8852 36.192 84.2022 34.8714C86.1128 32.9609 87.9948 31.0218 89.9321 29.1415C92.0743 27.01 95.7243 26.7997 98.157 28.5374Z" fill="#F0F0F0"/>
<path d="M87.3295 66.5643C87.3295 80.0043 76.4342 90.8996 62.9942 90.8996C49.5542 90.8996 38.6589 80.0043 38.6589 66.5643C38.6589 53.1243 49.5542 42.2291 62.9942 42.2291C76.4342 42.2291 87.3295 53.1243 87.3295 66.5643Z" fill="url(#paint0_linear)"/>
<path fill-rule="evenodd" clip-rule="evenodd" d="M88.7103 66.5644C88.7103 80.7669 77.1968 92.2804 62.9943 92.2804C48.7918 92.2804 37.2783 80.7669 37.2783 66.5644C37.2783 52.3618 48.7918 40.8484 62.9943 40.8484C77.1968 40.8484 88.7103 52.3618 88.7103 66.5644ZM62.9943 90.8996C76.4343 90.8996 87.3296 80.0044 87.3296 66.5644C87.3296 53.1244 76.4343 42.2291 62.9943 42.2291C49.5543 42.2291 38.659 53.1244 38.659 66.5644C38.659 80.0044 49.5543 90.8996 62.9943 90.8996Z" fill="#31305B"/>
<path d="M83.9958 66.5644C83.9958 78.1633 74.593 87.5661 62.9941 87.5661C51.3952 87.5661 41.9924 78.1633 41.9924 66.5644C41.9924 54.9655 51.3952 45.5627 62.9941 45.5627C74.593 45.5627 83.9958 54.9655 83.9958 66.5644Z" fill="white"/>
<path fill-rule="evenodd" clip-rule="evenodd" d="M62.9942 45.9079C51.5859 45.9079 42.3377 55.1561 42.3377 66.5644C42.3377 77.9726 51.5859 87.2209 62.9942 87.2209C74.4024 87.2209 83.6506 77.9726 83.6506 66.5644C83.6506 55.1561 74.4024 45.9079 62.9942 45.9079ZM41.6473 66.5644C41.6473 54.7748 51.2046 45.2175 62.9942 45.2175C74.7837 45.2175 84.341 54.7748 84.341 66.5644C84.341 78.3539 74.7837 87.9112 62.9942 87.9112C51.2046 87.9112 41.6473 78.3539 41.6473 66.5644Z" fill="#1F1F1F"/>
<path fill-rule="evenodd" clip-rule="evenodd" d="M78.6385 66.8978C78.6385 66.5165 78.9476 66.2074 79.3289 66.2074L83.3292 66.2074C83.7105 66.2074 84.0195 66.5165 84.0195 66.8978C84.0195 67.279 83.7105 67.5881 83.3292 67.5881L79.3289 67.5881C78.9476 67.5881 78.6385 67.279 78.6385 66.8978Z" fill="#31305B"/>
<path fill-rule="evenodd" clip-rule="evenodd" d="M41.7655 66.8978C41.7655 66.5165 42.0746 66.2074 42.4559 66.2074L46.4562 66.2074C46.8375 66.2074 47.1465 66.5165 47.1465 66.8978C47.1465 67.279 46.8375 67.5881 46.4562 67.5881L42.4559 67.5881C42.0746 67.5881 41.7655 67.279 41.7655 66.8978Z" fill="#31305B"/>
<path fill-rule="evenodd" clip-rule="evenodd" d="M62.9943 82.2086C63.3755 82.2086 63.6846 82.5176 63.6846 82.8989L63.6846 86.8992C63.6846 87.2805 63.3755 87.5896 62.9943 87.5896C62.613 87.5896 62.3039 87.2805 62.3039 86.8992L62.3039 82.8989C62.3039 82.5176 62.613 82.2086 62.9943 82.2086Z" fill="#31305B"/>
<path fill-rule="evenodd" clip-rule="evenodd" d="M74.0695 77.6398C74.3392 77.3702 74.7763 77.3702 75.0459 77.6398L77.8745 80.4684C78.1441 80.738 78.1441 81.1751 77.8745 81.4447C77.6049 81.7143 77.1678 81.7143 76.8982 81.4447L74.0695 78.6161C73.7999 78.3465 73.7999 77.9094 74.0695 77.6398Z" fill="#31305B"/>
<path fill-rule="evenodd" clip-rule="evenodd" d="M51.986 77.9849C52.2556 78.2545 52.2556 78.6916 51.986 78.9612L49.1573 81.7899C48.8877 82.0595 48.4506 82.0595 48.181 81.7899C47.9114 81.5203 47.9114 81.0832 48.181 80.8136L51.0097 77.9849C51.2793 77.7153 51.7164 77.7153 51.986 77.9849Z" fill="#31305B"/>
<path fill-rule="evenodd" clip-rule="evenodd" d="M76.629 50.5134C67.2529 42.8292 56.6129 45.295 48.884 51.3583C48.5423 51.7 48.2136 52.0489 47.898 52.4046L63.2599 67.7665L78.6173 52.4091C78.0106 51.7366 77.3477 51.1025 76.629 50.5134Z" fill="url(#paint1_linear)"/>
<path fill-rule="evenodd" clip-rule="evenodd" d="M62.9943 46.3713C51.8419 46.3713 42.8012 55.412 42.8012 66.5644C42.8012 77.7167 51.8419 86.7574 62.9943 86.7574C74.1466 86.7574 83.1874 77.7167 83.1874 66.5644C83.1874 55.412 74.1466 46.3713 62.9943 46.3713ZM41.4205 66.5644C41.4205 54.6495 51.0794 44.9905 62.9943 44.9905C74.9092 44.9905 84.5681 54.6495 84.5681 66.5644C84.5681 78.4792 74.9092 88.1382 62.9943 88.1382C51.0794 88.1382 41.4205 78.4792 41.4205 66.5644Z" fill="#31305B"/>
<path d="M63.7555 68.6195C63.7454 68.9714 63.452 69.2484 63.1002 69.2383V69.2383C62.7484 69.2282 62.4713 68.9348 62.4815 68.583L62.9543 52.1174C62.9644 51.7656 63.2578 51.4886 63.6096 51.4987V51.4987C63.9615 51.5088 64.2385 51.8022 64.2284 52.154L63.7555 68.6195Z" fill="#545289"/>
<path fill-rule="evenodd" clip-rule="evenodd" d="M61.7914 68.5631L62.2642 52.0976C62.2853 51.3646 62.8965 50.7875 63.6294 50.8086C64.3624 50.8296 64.9395 51.4409 64.9185 52.1738L64.4456 68.6394C64.4246 69.3723 63.8133 69.9494 63.0804 69.9284C62.3474 69.9073 61.7703 69.2961 61.7914 68.5631ZM63.1002 69.2383C63.452 69.2484 63.7454 68.9714 63.7555 68.6196L64.2284 52.154C64.2385 51.8022 63.9615 51.5088 63.6096 51.4987C63.2578 51.4886 62.9644 51.7656 62.9543 52.1174L62.4814 68.583C62.4713 68.9348 62.7484 69.2282 63.1002 69.2383Z" fill="#31305B"/>
<path d="M63.0887 69.5191C62.7506 69.4214 62.5556 69.0681 62.6533 68.73C62.751 68.3918 63.1044 68.1969 63.4425 68.2946L74.0653 71.3638C74.4034 71.4615 74.5983 71.8148 74.5006 72.1529C74.4029 72.4911 74.0496 72.686 73.7115 72.5883L63.0887 69.5191Z" fill="#545289"/>
<path fill-rule="evenodd" clip-rule="evenodd" d="M63.634 67.6314L74.2568 70.7005C74.9612 70.9041 75.3673 71.6401 75.1638 72.3446C74.9602 73.049 74.2242 73.4551 73.5198 73.2515L62.897 70.1824C62.1926 69.9788 61.7865 69.2428 61.99 68.5383C62.1935 67.8339 62.9296 67.4278 63.634 67.6314ZM62.6532 68.73C62.5555 69.0681 62.7505 69.4214 63.0886 69.5191L73.7114 72.5883C74.0495 72.686 74.4028 72.4911 74.5005 72.1529C74.5982 71.8148 74.4033 71.4615 74.0652 71.3638L63.4424 68.2946C63.1043 68.1969 62.7509 68.3918 62.6532 68.73Z" fill="#31305B"/>
<defs>
<linearGradient id="paint0_linear" x1="63.931" y1="78.4407" x2="80.1821" y2="19.6283" gradientUnits="userSpaceOnUse">
<stop stop-color="#FA9A6E"/>
<stop offset="0.401042" stop-color="#F8CB5A"/>
</linearGradient>
<linearGradient id="paint1_linear" x1="63.2057" y1="58.0334" x2="63.7235" y2="37.1499" gradientUnits="userSpaceOnUse">
<stop stop-color="#00ABFD"/>
<stop offset="1" stop-color="#006CE2"/>
</linearGradient>
</defs>
</svg>
