<svg width="122" height="122" viewBox="0 0 122 122" fill="none" xmlns="http://www.w3.org/2000/svg">
<path d="M26.7841 49.5775C28.5806 50.7324 30.0919 52.6001 30.1365 54.819C30.4466 58.2694 27.5416 61.5843 24.0876 61.7519C20.4109 62.1279 16.8839 58.6864 17.1583 54.9937C17.2296 51.857 19.9065 49.0375 23.0343 48.7898C24.3122 48.6882 25.6738 48.8949 26.7841 49.5775Z" fill="#F0F0F0"/>
<path d="M98.157 28.5374C98.901 29.0634 99.5287 29.737 100.001 30.5161C100.474 31.2952 100.781 32.1631 100.903 33.066C101.092 34.9658 100.494 36.9726 99.1052 38.3253C91.6056 45.7964 84.1345 53.296 76.6492 60.7813C75.4177 62.1162 73.8956 63.2141 72.9778 64.8092C72.2631 66.2795 71.8176 67.9976 72.272 69.614C72.4689 70.4719 72.8447 71.2786 73.3748 71.9813C73.9048 72.684 74.5773 73.2669 75.3481 73.6918C77.7987 75.13 81.1475 74.6649 83.1347 72.642C86.2447 69.5641 89.3226 66.4542 92.4165 63.3602C93.6337 62.1929 94.6942 60.8366 96.1502 59.9473C97.5211 59.2026 99.1149 58.9785 100.638 59.3164C102.662 59.7156 104.356 61.1984 105.286 63.0056C105.953 64.6723 105.986 66.526 105.377 68.215C104.723 69.582 103.546 70.5978 102.484 71.6458C94.8801 79.2499 87.276 86.8541 79.6718 94.4582C77.8254 96.0765 75.0434 96.4062 72.821 95.4064C71.4112 94.9234 70.4773 93.7008 69.228 92.9398C67.1891 91.8954 64.58 91.9774 62.7015 93.3354C61.5395 94.1232 60.6537 95.2085 59.645 96.1888C55.6611 100.173 51.6779 104.156 47.6952 108.139C46.0734 109.849 43.4981 110.468 41.2489 109.833C37.9749 108.998 35.7935 105.308 36.7131 102.043C37.0482 100.311 38.3528 99.0314 39.5879 97.8783C42.083 95.3832 44.5781 92.8881 47.0732 90.393C48.2655 89.1329 49.6859 88.0583 50.5699 86.5398C51.4788 84.8609 51.5359 82.8221 50.9584 81.0256C49.7697 78.1045 46.3229 76.194 43.2378 77.119C41.903 77.4309 40.8016 78.297 39.8409 79.2363C38.0373 81.1218 36.1517 82.9255 34.3499 84.795C33.0061 86.1673 31.0724 87.0032 29.1422 86.8125C28.1894 86.7346 27.2646 86.452 26.431 85.9838C25.5975 85.5157 24.8748 84.8731 24.3124 84.0999C23.1255 82.6635 22.9098 80.6513 23.2128 78.8691C23.4908 77.037 24.9932 75.7627 26.2461 74.5348C39.4346 61.3463 52.623 48.1579 65.8115 34.9694C66.8131 33.9429 67.7862 32.8414 69.0605 32.1588C70.6395 31.4816 72.4627 31.519 74.0846 32.0323C76.1092 32.7202 77.0573 34.9837 79.0819 35.6823C80.7501 36.4344 82.8852 36.192 84.2022 34.8714C86.1128 32.9609 87.9948 31.0218 89.9321 29.1415C92.0743 27.01 95.7243 26.7997 98.157 28.5374Z" fill="#F0F0F0"/>
<path d="M42.129 74.327C47.5771 71.271 63.2939 62.5492 87.1145 75.1211C114.199 89.4157 12.3981 91.004 42.129 74.327Z" fill="url(#paint0_linear)"/>
<path fill-rule="evenodd" clip-rule="evenodd" d="M57.8176 69.5177C50.3596 70.4917 45.1591 73.3839 42.4522 74.9023C40.6216 75.9291 39.3352 76.8652 38.501 77.7058C37.6614 78.5518 37.3359 79.2434 37.2952 79.785C37.2566 80.2977 37.4645 80.8102 38.0187 81.3423C38.5842 81.8854 39.4717 82.4061 40.6691 82.8843C45.4813 84.8063 54.4612 85.7283 63.6259 85.6788C72.7823 85.6292 81.9463 84.6112 87.1072 82.7522C88.3934 82.2889 89.3903 81.7872 90.0694 81.263C90.7525 80.7358 91.0394 80.2462 91.0814 79.8116C91.1228 79.3844 90.945 78.8221 90.2664 78.1042C89.5876 77.3862 88.4695 76.5823 86.8064 75.7045C75.0135 69.4805 65.2664 68.5449 57.8176 69.5177ZM57.6466 68.2095C65.3734 67.2004 75.395 68.1898 87.4228 74.5378C89.1452 75.4469 90.4058 76.3305 91.226 77.1981C92.0462 78.0658 92.4876 78.987 92.3955 79.9387C92.3041 80.883 91.7049 81.6677 90.8764 82.3072C90.044 82.9497 88.9039 83.5075 87.5549 83.9934C82.1747 85.9314 72.825 86.9484 63.6331 86.9981C54.4495 87.0478 45.2465 86.1334 40.1792 84.1095C38.9067 83.6012 37.8433 83.0036 37.104 82.2938C36.3534 81.573 35.9027 80.6981 35.9787 79.6861C36.0526 78.703 36.615 77.7327 37.5637 76.7767C38.5178 75.8153 39.9202 74.8095 41.806 73.7517C44.5472 72.2141 49.929 69.2174 57.6466 68.2095Z" fill="#31305B"/>
<path d="M83.661 38.8129C86.1051 38.8129 88.0865 36.8327 88.0865 34.3901C88.0865 31.9474 86.1051 29.9672 83.661 29.9672C81.2168 29.9672 79.2354 31.9474 79.2354 34.3901C79.2354 36.8327 81.2168 38.8129 83.661 38.8129Z" fill="#EEC259"/>
<path fill-rule="evenodd" clip-rule="evenodd" d="M83.6612 30.6269C81.5816 30.6269 79.8958 32.3117 79.8958 34.3901C79.8958 36.4684 81.5816 38.1533 83.6612 38.1533C85.7408 38.1533 87.4267 36.4684 87.4267 34.3901C87.4267 32.3117 85.7408 30.6269 83.6612 30.6269ZM78.5756 34.3901C78.5756 31.583 80.8525 29.3075 83.6612 29.3075C86.4699 29.3075 88.7468 31.583 88.7468 34.3901C88.7468 37.1971 86.4699 39.4726 83.6612 39.4726C80.8525 39.4726 78.5756 37.1971 78.5756 34.3901Z" fill="#31305B"/>
<path fill-rule="evenodd" clip-rule="evenodd" d="M83.661 24C84.0255 24 84.3211 24.2954 84.3211 24.6597V26.4288C84.3211 26.7932 84.0255 27.0885 83.661 27.0885C83.2964 27.0885 83.0009 26.7932 83.0009 26.4288V24.6597C83.0009 24.2954 83.2964 24 83.661 24Z" fill="#31305B"/>
<path fill-rule="evenodd" clip-rule="evenodd" d="M83.661 41.6915C84.0255 41.6915 84.3211 41.9869 84.3211 42.3512V44.1204C84.3211 44.4847 84.0255 44.7801 83.661 44.7801C83.2964 44.7801 83.0009 44.4847 83.0009 44.1204V42.3512C83.0009 41.9869 83.2964 41.6915 83.661 41.6915Z" fill="#31305B"/>
<path fill-rule="evenodd" clip-rule="evenodd" d="M76.3085 27.0416C76.5663 26.784 76.9842 26.784 77.242 27.0416L78.4988 28.2977C78.7566 28.5553 78.7566 28.973 78.4988 29.2306C78.241 29.4883 77.8231 29.4883 77.5653 29.2306L76.3085 27.9745C76.0507 27.7169 76.0507 27.2992 76.3085 27.0416Z" fill="#31305B"/>
<path fill-rule="evenodd" clip-rule="evenodd" d="M88.8237 39.5494C89.0815 39.2918 89.4995 39.2918 89.7572 39.5494L91.0141 40.8055C91.2719 41.0631 91.2719 41.4808 91.0141 41.7385C90.7563 41.9961 90.3384 41.9961 90.0806 41.7385L88.8237 40.4824C88.566 40.2247 88.566 39.807 88.8237 39.5494Z" fill="#31305B"/>
<path fill-rule="evenodd" clip-rule="evenodd" d="M73.2646 34.39C73.2646 34.0257 73.5601 33.7303 73.9247 33.7303H75.6949C76.0595 33.7303 76.355 34.0257 76.355 34.39C76.355 34.7544 76.0595 35.0497 75.6949 35.0497H73.9247C73.5601 35.0497 73.2646 34.7544 73.2646 34.39Z" fill="#31305B"/>
<path fill-rule="evenodd" clip-rule="evenodd" d="M90.9671 34.39C90.9671 34.0257 91.2626 33.7303 91.6272 33.7303H93.3974C93.762 33.7303 94.0575 34.0257 94.0575 34.39C94.0575 34.7544 93.762 35.0497 93.3974 35.0497H91.6272C91.2626 35.0497 90.9671 34.7544 90.9671 34.39Z" fill="#31305B"/>
<path fill-rule="evenodd" clip-rule="evenodd" d="M78.4988 39.5494C78.7566 39.807 78.7566 40.2247 78.4988 40.4824L77.242 41.7385C76.9842 41.9961 76.5663 41.9961 76.3085 41.7385C76.0507 41.4808 76.0507 41.0631 76.3085 40.8055L77.5653 39.5494C77.8231 39.2918 78.241 39.2918 78.4988 39.5494Z" fill="#31305B"/>
<path fill-rule="evenodd" clip-rule="evenodd" d="M91.0141 27.0416C91.2719 27.2992 91.2719 27.7169 91.0141 27.9745L89.7572 29.2306C89.4995 29.4883 89.0815 29.4883 88.8237 29.2306C88.566 28.973 88.566 28.5553 88.8237 28.2977L90.0806 27.0416C90.3384 26.784 90.7563 26.784 91.0141 27.0416Z" fill="#31305B"/>
<path d="M52.8992 25.6492C53.1641 25.8363 53.2599 26.0811 53.2458 26.4084C53.2205 26.9998 53.2458 27.5967 53.2345 28.1881C53.2317 28.3752 53.2881 28.4137 53.4741 28.4274C58.2735 28.7548 62.3542 30.639 65.8065 33.871C68.2245 36.1349 69.9576 38.8443 71.2202 41.8563C71.3808 42.2414 71.5274 42.6237 71.6147 43.0721C70.5889 41.837 69.2531 41.1851 67.7228 40.8633C65.5556 40.4067 63.4674 40.591 61.5059 41.6362C60.3899 42.2304 59.5078 43.0584 59.1668 44.3154C59.1358 44.4309 59.1161 44.552 59.0907 44.673C59.0372 44.6813 59.0287 44.6317 59.0203 44.596C58.7695 43.2647 57.8789 42.4174 56.7545 41.7518C55.7596 41.1631 54.6605 40.8688 53.5164 40.6955C53.2007 40.6487 53.2289 40.8055 53.2289 41.0036C53.2317 46.8213 53.2317 52.6363 53.2317 58.454C53.2317 62.1151 53.2289 72.0219 53.2402 75.6858C53.2402 76.0104 53.1585 76.2552 52.8935 76.445C52.7583 76.445 52.623 76.445 52.4877 76.445C52.1721 76.28 52.0875 76.0159 52.0875 75.6803C52.0932 66.2125 52.0904 50.499 52.0988 41.0311C52.0988 40.7065 52.0425 40.6047 51.6845 40.635C50.1486 40.7698 48.6916 41.1301 47.4206 42.0186C46.4709 42.6843 45.7297 43.4985 45.5635 44.695C45.4282 44.574 45.462 44.4034 45.4197 44.2604C45.1097 43.1986 44.3939 42.4477 43.478 41.859C40.8655 40.1811 36.7735 40.2251 34.2034 41.9526C33.7722 42.2469 33.3945 42.6017 33 43.0721C33.093 42.7255 33.0958 42.4614 33.2114 42.2001C34.0596 40.2967 34.9755 38.4317 36.2437 36.7483C39.1803 32.845 42.9454 30.1136 47.8067 28.9253C49.0777 28.6145 50.3656 28.4274 51.6761 28.4137C51.9748 28.4109 52.1383 28.3614 52.1101 27.9983C52.0678 27.4619 52.1101 26.92 52.0932 26.3837C52.0819 26.0536 52.1946 25.8088 52.4934 25.652C52.6286 25.6492 52.7639 25.6492 52.8992 25.6492Z" fill="#31305B"/>
<path d="M59.0503 41.8667C58.9866 42.009 58.9146 42.0062 58.8067 41.8968C56.5948 39.6996 53.8597 39.1634 50.87 39.4862C49.2809 39.6586 47.8248 40.2031 46.5459 41.1717C46.2718 41.3796 46.0337 41.6232 45.7957 41.8667C45.7514 41.9105 45.732 42.0144 45.6296 41.9542C45.4468 41.5466 45.5991 41.1279 45.6351 40.7257C45.8206 38.7256 46.2552 36.7747 46.9528 34.8867C47.6172 33.0891 48.4892 31.4036 49.71 29.9042C49.8152 29.7729 49.9315 29.6607 50.0838 29.5896C51.1883 29.409 52.3012 29.4199 53.4113 29.4883C53.9455 29.5211 54.4743 29.5923 55.0058 29.647C55.2522 30.1122 55.5871 30.5171 55.8667 30.9631C56.9436 32.6732 57.7215 34.5092 58.2669 36.4436C58.6766 37.8993 58.9617 39.374 59.0115 40.8899C59.0254 41.2155 59.114 41.5383 59.0503 41.8667Z" fill="white"/>
<path d="M50.1621 29.6073C47.1282 33.2491 45.9281 37.5371 45.6323 42.1413C44.3196 40.7406 42.6519 40.014 40.7814 39.6867C39.125 39.3954 37.4911 39.5064 35.8826 39.9945C35.8094 40.0167 35.7446 40.0777 35.6404 40.025C36.2009 38.9655 36.8432 37.9587 37.5813 37.0129C40.2321 33.6069 43.5928 31.2021 47.8212 30.0428C48.5874 29.832 49.3621 29.6434 50.1621 29.6073Z" fill="url(#paint1_linear)"/>
<path d="M59.0347 42.1413C58.8845 41.841 58.9355 41.507 58.9185 41.1955C58.7541 38.0438 57.8814 35.0885 56.4392 32.2875C55.9972 31.4287 55.4928 30.6092 54.895 29.8459C54.8468 29.7869 54.6683 29.6831 54.895 29.6073C56.5979 29.8487 58.2158 30.3651 59.76 31.1032C63.8203 33.0481 66.8011 36.0904 68.9291 39.9971C68.9432 40.0252 68.9517 40.0589 68.9744 40.1262C68.3142 39.9298 67.6767 39.7502 67.0165 39.68C64.2199 39.3797 61.6386 39.8708 59.4398 41.7372C59.2982 41.8607 59.1707 42.0066 59.0347 42.1413Z" fill="url(#paint2_linear)"/>
<path d="M68.9083 78.1259C69.2583 78.2136 69.471 78.5684 69.3831 78.9183V78.9183C69.2953 79.2682 68.9403 79.4807 68.5903 79.3929L55.5607 76.1266C55.2107 76.0389 54.998 75.6841 55.0859 75.3342V75.3342C55.1737 74.9844 55.5287 74.7719 55.8787 74.8596L68.9083 78.1259Z" fill="url(#paint3_linear)"/>
<path fill-rule="evenodd" clip-rule="evenodd" d="M55.8783 74.8596C55.5282 74.7719 55.1732 74.9844 55.0854 75.3342C54.9976 75.6841 55.2102 76.0389 55.5603 76.1266L68.5898 79.3929C68.5898 79.3929 68.5898 79.3929 68.5898 79.3929C68.9399 79.4807 69.2948 79.2682 69.3827 78.9183C69.4705 78.5684 69.2579 78.2136 68.9078 78.1259L55.8783 74.8596ZM68.2686 80.6726L55.2391 77.4064C54.1818 77.1413 53.5397 76.0699 53.8049 75.0132C54.0701 73.9566 55.1422 73.3149 56.1994 73.5799L69.229 76.8462C70.2862 77.1112 70.9284 78.1826 70.6632 79.2393C70.398 80.2959 69.3259 80.9377 68.2686 80.6726Z" fill="#31305B"/>
<path d="M81.1348 73.2901C81.2967 73.6125 81.1666 74.005 80.844 74.1669V74.1669C80.5215 74.3287 80.1287 74.1986 79.9667 73.8763L75.7949 65.573C75.6329 65.2506 75.7631 64.8581 76.0857 64.6962V64.6962C76.4082 64.5343 76.801 64.6644 76.963 64.9868L81.1348 73.2901Z" fill="url(#paint4_linear)"/>
<path fill-rule="evenodd" clip-rule="evenodd" d="M76.963 64.9868C76.8011 64.6644 76.4083 64.5343 76.0857 64.6962C75.7632 64.8581 75.633 65.2506 75.795 65.573L79.9668 73.8763C80.1287 74.1986 80.5215 74.3287 80.8441 74.1669C81.1666 74.005 81.2968 73.6125 81.1348 73.2901C81.1348 73.2901 81.1348 73.2901 81.1348 73.2901L76.963 64.9868ZM78.787 74.4683L74.6152 66.165C74.126 65.1915 74.5192 64.006 75.4933 63.5171C76.4674 63.0283 77.6537 63.4212 78.1428 64.3948L82.3146 72.6981C82.8038 73.6716 82.4106 74.8571 81.4365 75.3459C80.4623 75.8348 79.2761 75.4419 78.787 74.4683Z" fill="#31305B"/>
<path d="M68.3398 48.6441C68.5203 48.3317 68.92 48.2247 69.2326 48.4051V48.4051C69.5451 48.5854 69.6522 48.9849 69.4718 49.2973L52.2841 79.0493L51.1522 78.3962L68.3398 48.6441Z" fill="url(#paint5_linear)"/>
<path fill-rule="evenodd" clip-rule="evenodd" d="M52.7673 80.8516L49.3487 78.8791L67.1964 47.9845C67.7415 47.0411 68.9485 46.7178 69.8925 47.2625C70.8365 47.8072 71.16 49.0136 70.615 49.957L52.7673 80.8516ZM51.1521 78.3962L52.284 79.0493L69.4717 49.2973C69.6521 48.9849 69.545 48.5855 69.2325 48.4051C68.9199 48.2247 68.5202 48.3318 68.3397 48.6442C68.3397 48.6442 68.3397 48.6442 68.3397 48.6442L51.1521 78.3962Z" fill="#31305B"/>
<path d="M80.8249 73.3611C81.175 73.4489 81.3876 73.8036 81.2998 74.1535V74.1535C81.212 74.5034 80.857 74.7159 80.5069 74.6281L66.2666 71.0584C65.9165 70.9706 65.7039 70.6158 65.7917 70.266V70.266C65.8796 69.9161 66.2345 69.7036 66.5846 69.7914L80.8249 73.3611Z" fill="url(#paint6_linear)"/>
<path fill-rule="evenodd" clip-rule="evenodd" d="M66.5844 69.7914C66.2343 69.7037 65.8793 69.9161 65.7915 70.266C65.7037 70.6159 65.9163 70.9707 66.2664 71.0584L80.5067 74.6282C80.8568 74.7159 81.2117 74.5035 81.2996 74.1536C81.3874 73.8037 81.1748 73.4489 80.8247 73.3612C80.8247 73.3612 80.8247 73.3612 80.8247 73.3612L66.5844 69.7914ZM80.1855 75.9079L65.9452 72.3382C64.888 72.0731 64.2458 71.0017 64.511 69.945C64.7762 68.8884 65.8483 68.2466 66.9056 68.5117L81.1459 72.0814C82.2031 72.3465 82.8453 73.4179 82.5801 74.4746C82.3149 75.5312 81.2428 76.173 80.1855 75.9079Z" fill="#31305B"/>
<path d="M82.1758 53.1689L68.783 50.3874C66.9788 61.4983 63.6538 66.8688 56.1026 69.5032L71.2051 73.4764L82.1758 53.1689Z" fill="white"/>
<path fill-rule="evenodd" clip-rule="evenodd" d="M68.4092 49.8439C68.5576 49.7419 68.7412 49.7049 68.9175 49.7415L82.3103 52.523C82.5145 52.5654 82.6866 52.7017 82.7745 52.8907C82.8625 53.0796 82.8559 53.299 82.7569 53.4823L71.7862 73.7898C71.6414 74.0578 71.332 74.1919 71.0373 74.1144L55.9348 70.1412C55.6541 70.0673 55.4546 69.8189 55.4433 69.5291C55.4319 69.2392 55.6113 68.976 55.8853 68.8804C59.5432 67.6043 62.1354 65.6856 64.0456 62.7632C65.9718 59.8164 67.2352 55.8028 68.1317 50.2817C68.1605 50.1041 68.2608 49.9459 68.4092 49.8439ZM69.3213 51.1729C68.4193 56.4274 67.141 60.4401 65.1508 63.4848C63.4128 66.1438 61.1534 68.0322 58.2046 69.374L70.8712 72.7063L81.1743 53.6347L69.3213 51.1729Z" fill="#31305B"/>
<path d="M82.1758 53.1689L68.783 50.3874C66.9788 61.4983 63.6538 66.8688 56.1026 69.5032L71.2051 73.4764L82.1758 53.1689Z" fill="url(#paint7_linear)"/>
<path fill-rule="evenodd" clip-rule="evenodd" d="M68.4092 49.8439C68.5576 49.7419 68.7412 49.7049 68.9175 49.7415L82.3103 52.523C82.5145 52.5654 82.6866 52.7017 82.7745 52.8907C82.8625 53.0796 82.8559 53.299 82.7569 53.4823L71.7862 73.7898C71.6414 74.0578 71.332 74.1919 71.0373 74.1144L55.9348 70.1412C55.6541 70.0673 55.4546 69.8189 55.4433 69.5291C55.4319 69.2392 55.6113 68.976 55.8853 68.8804C59.5432 67.6043 62.1354 65.6856 64.0456 62.7632C65.9718 59.8164 67.2352 55.8028 68.1317 50.2817C68.1605 50.1041 68.2608 49.9459 68.4092 49.8439ZM69.3213 51.1729C68.4193 56.4274 67.141 60.4401 65.1508 63.4848C63.4128 66.1438 61.1534 68.0322 58.2046 69.374L70.8712 72.7063L81.1743 53.6347L69.3213 51.1729Z" fill="#31305B"/>
<path d="M83.0258 51.6268C83.199 51.3103 83.5961 51.194 83.9128 51.3671V51.3671C84.2294 51.5401 84.3458 51.937 84.1726 52.2535L67.4782 82.7662L66.3314 82.1395L83.0258 51.6268Z" fill="url(#paint8_linear)"/>
<path fill-rule="evenodd" clip-rule="evenodd" d="M68.0033 84.5568L64.5399 82.6641L81.8676 50.9937C82.3906 50.0379 83.5898 49.6867 84.5462 50.2094C85.5026 50.732 85.854 51.9306 85.331 52.8864L68.0033 84.5568ZM66.3315 82.1395L67.4783 82.7662L84.1727 52.2534C84.3459 51.9369 84.2295 51.5401 83.9129 51.367C83.5962 51.194 83.1991 51.3102 83.0259 51.6267L66.3315 82.1395Z" fill="#31305B"/>
<defs>
<linearGradient id="paint0_linear" x1="67.0001" y1="60.5" x2="64.5001" y2="87" gradientUnits="userSpaceOnUse">
<stop stop-color="white"/>
<stop offset="1" stop-color="#EEC259"/>
</linearGradient>
<linearGradient id="paint1_linear" x1="42.9097" y1="45.7569" x2="42.9097" y2="32.1841" gradientUnits="userSpaceOnUse">
<stop stop-color="#346DF1"/>
<stop offset="1" stop-color="#4436C3"/>
</linearGradient>
<linearGradient id="paint2_linear" x1="61.8868" y1="45.7569" x2="61.8868" y2="32.1841" gradientUnits="userSpaceOnUse">
<stop stop-color="#346DF1"/>
<stop offset="1" stop-color="#4436C3"/>
</linearGradient>
<linearGradient id="paint3_linear" x1="69.3831" y1="78.9183" x2="55.0869" y2="75.3302" gradientUnits="userSpaceOnUse">
<stop stop-color="#F9DD7A"/>
<stop offset="1" stop-color="#FFFCF2"/>
</linearGradient>
<linearGradient id="paint4_linear" x1="80.844" y1="74.1669" x2="76.0902" y2="64.6939" gradientUnits="userSpaceOnUse">
<stop stop-color="#F9DD7A"/>
<stop offset="1" stop-color="#FFFCF2"/>
</linearGradient>
<linearGradient id="paint5_linear" x1="69.2326" y1="48.4051" x2="51.7339" y2="78.7318" gradientUnits="userSpaceOnUse">
<stop stop-color="#F9DD7A"/>
<stop offset="1" stop-color="#FFFCF2"/>
</linearGradient>
<linearGradient id="paint6_linear" x1="81.2998" y1="74.1535" x2="65.7928" y2="70.2616" gradientUnits="userSpaceOnUse">
<stop stop-color="#F9DD7A"/>
<stop offset="1" stop-color="#FFFCF2"/>
</linearGradient>
<linearGradient id="paint7_linear" x1="67.654" y1="65.7251" x2="75.0717" y2="41.1493" gradientUnits="userSpaceOnUse">
<stop stop-color="#E23A7E"/>
<stop offset="1" stop-color="#FFAC61"/>
</linearGradient>
<linearGradient id="paint8_linear" x1="83.9128" y1="51.3671" x2="66.9205" y2="82.4614" gradientUnits="userSpaceOnUse">
<stop stop-color="#F9DD7A"/>
<stop offset="1" stop-color="#FFFCF2"/>
</linearGradient>
</defs>
</svg>
