<svg width="108" height="107" viewBox="0 0 108 107" fill="none" xmlns="http://www.w3.org/2000/svg">
<path d="M12.7841 34.5775C14.5806 35.7324 16.0919 37.6001 16.1365 39.819C16.4466 43.2694 13.5416 46.5843 10.0876 46.7519C6.4109 47.1279 2.88388 43.6864 3.15834 39.9937C3.22963 36.857 5.90653 34.0375 9.03433 33.7898C10.3122 33.6882 11.6738 33.8949 12.7841 34.5775Z" fill="#F0F0F0"/>
<path d="M84.157 13.5374C84.901 14.0634 85.5287 14.737 86.0012 15.5161C86.4737 16.2952 86.7808 17.1631 86.9034 18.066C87.0924 19.9658 86.4935 21.9726 85.1052 23.3253C77.6056 30.7964 70.1345 38.296 62.6492 45.7813C61.4177 47.1162 59.8956 48.2141 58.9778 49.8092C58.2631 51.2795 57.8176 52.9976 58.272 54.614C58.4689 55.4719 58.8447 56.2786 59.3748 56.9813C59.9048 57.684 60.5773 58.2669 61.3481 58.6918C63.7987 60.13 67.1475 59.6649 69.1347 57.642C72.2447 54.5641 75.3226 51.4542 78.4165 48.3602C79.6337 47.1929 80.6942 45.8366 82.1502 44.9473C83.5211 44.2026 85.1149 43.9785 86.6379 44.3164C88.6625 44.7156 90.3556 46.1984 91.2859 48.0056C91.9532 49.6723 91.9856 51.526 91.3768 53.215C90.7227 54.582 89.5465 55.5978 88.4843 56.6458C80.8801 64.2499 73.276 71.8541 65.6718 79.4582C63.8254 81.0765 61.0434 81.4062 58.821 80.4064C57.4112 79.9234 56.4773 78.7008 55.228 77.9398C53.1891 76.8954 50.58 76.9774 48.7015 78.3354C47.5395 79.1232 46.6537 80.2085 45.645 81.1888C41.6611 85.1726 37.6779 89.1559 33.6952 93.1386C32.0734 94.8495 29.4981 95.4679 27.2489 94.8335C23.9749 93.9976 21.7935 90.3084 22.7131 87.0434C23.0482 85.311 24.3528 84.0314 25.5879 82.8783C28.083 80.3832 30.5781 77.8881 33.0732 75.393C34.2655 74.1329 35.6859 73.0583 36.5699 71.5398C37.4788 69.8609 37.5359 67.8221 36.9584 66.0256C35.7697 63.1045 32.3229 61.194 29.2378 62.119C27.903 62.4309 26.8016 63.297 25.8409 64.2363C24.0373 66.1218 22.1517 67.9255 20.3499 69.795C19.0061 71.1673 17.0724 72.0032 15.1422 71.8125C14.1894 71.7346 13.2646 71.452 12.431 70.9838C11.5975 70.5157 10.8748 69.8731 10.3124 69.0999C9.12546 67.6635 8.90981 65.6513 9.21279 63.8691C9.49082 62.037 10.9932 60.7627 12.2461 59.5348C25.4346 46.3463 38.623 33.1579 51.8115 19.9694C52.8131 18.9429 53.7862 17.8414 55.0605 17.1588C56.6395 16.4816 58.4627 16.519 60.0846 17.0323C62.1092 17.7202 63.0573 19.9837 65.0819 20.6823C66.7501 21.4344 68.8852 21.192 70.2022 19.8714C72.1128 17.9609 73.9948 16.0218 75.9321 14.1415C78.0743 12.01 81.7243 11.7997 84.157 13.5374Z" fill="#F0F0F0"/>
<path fill-rule="evenodd" clip-rule="evenodd" d="M25.6799 22H58.5664V26.8906C57.6431 27.286 57.0209 28.0303 57.0209 28.8832C57.0209 29.7362 57.6431 30.4804 58.5664 30.8758V82.4194H25.6799V30.8758C26.6033 30.4804 27.2255 29.7362 27.2255 28.8832C27.2255 28.0303 26.6033 27.286 25.6799 26.8906V22Z" fill="white"/>
<path d="M26.9385 75.7062H57.1482V82.4194H26.9385V75.7062Z" fill="url(#paint0_linear)"/>
<path fill-rule="evenodd" clip-rule="evenodd" d="M25.6799 22H58.5664V26.8906C57.6431 27.286 57.0209 28.0303 57.0209 28.8832C57.0209 29.7362 57.6431 30.4804 58.5664 30.8758V82.4194H25.6799V30.8758C26.6033 30.4804 27.2255 29.7362 27.2255 28.8832C27.2255 28.0303 26.6033 27.286 25.6799 26.8906V22ZM27.3582 25.9398C28.2331 26.6056 28.9038 27.6076 28.9038 28.8832C28.9038 30.1588 28.2331 31.1608 27.3582 31.8267V80.7411H56.8881V31.8267C56.0133 31.1608 55.3426 30.1588 55.3426 28.8832C55.3426 27.6076 56.0133 26.6056 56.8881 25.9398V23.6783H27.3582V25.9398Z" fill="#31305B"/>
<path d="M33.6218 56.4054C30.5428 56.4054 29.773 53.307 30.5428 51.7578L33.6218 46.3355L36.7008 51.7578C37.4705 53.307 36.7008 56.4054 33.6218 56.4054Z" fill="#9C9C9C"/>
<path d="M33.2649 60.5882V63.9771C33.2649 64.1924 33.2022 64.3884 33.0769 64.5649C32.9516 64.7414 32.7883 64.8649 32.5871 64.9355V69.0605C32.5871 69.2441 32.52 69.4029 32.3859 69.5371C32.2518 69.6712 32.0929 69.7383 31.9093 69.7383H31.2315C31.048 69.7383 30.8891 69.6712 30.755 69.5371C30.6208 69.4029 30.5538 69.2441 30.5538 69.0605V64.9355C30.3525 64.8649 30.1893 64.7414 30.064 64.5649C29.9386 64.3884 29.876 64.1924 29.876 63.9771V60.5882C29.876 60.4964 29.9095 60.417 29.9766 60.3499C30.0437 60.2828 30.1231 60.2493 30.2149 60.2493C30.3067 60.2493 30.3861 60.2828 30.4532 60.3499C30.5202 60.417 30.5538 60.4964 30.5538 60.5882V62.791C30.5538 62.8828 30.5873 62.9622 30.6544 63.0293C30.7214 63.0963 30.8009 63.1299 30.8927 63.1299C30.9844 63.1299 31.0639 63.0963 31.1309 63.0293C31.198 62.9622 31.2315 62.8828 31.2315 62.791V60.5882C31.2315 60.4964 31.2651 60.417 31.3322 60.3499C31.3992 60.2828 31.4787 60.2493 31.5704 60.2493C31.6622 60.2493 31.7417 60.2828 31.8087 60.3499C31.8758 60.417 31.9093 60.4964 31.9093 60.5882V62.791C31.9093 62.8828 31.9429 62.9622 32.0099 63.0293C32.077 63.0963 32.1564 63.1299 32.2482 63.1299C32.34 63.1299 32.4194 63.0963 32.4865 63.0293C32.5536 62.9622 32.5871 62.8828 32.5871 62.791V60.5882C32.5871 60.4964 32.6207 60.417 32.6877 60.3499C32.7548 60.2828 32.8342 60.2493 32.926 60.2493C33.0178 60.2493 33.0972 60.2828 33.1643 60.3499C33.2314 60.417 33.2649 60.4964 33.2649 60.5882ZM37.3316 60.5882V69.0605C37.3316 69.2441 37.2645 69.4029 37.1304 69.5371C36.9963 69.6712 36.8374 69.7383 36.6538 69.7383H35.976C35.7925 69.7383 35.6336 69.6712 35.4995 69.5371C35.3653 69.4029 35.2983 69.2441 35.2983 69.0605V66.3494H34.1121C34.0662 66.3494 34.0265 66.3326 33.993 66.2991C33.9595 66.2655 33.9427 66.2258 33.9427 66.1799V61.9438C33.9427 61.4778 34.1086 61.0789 34.4404 60.747C34.7723 60.4152 35.1712 60.2493 35.6372 60.2493H36.9927C37.0845 60.2493 37.1639 60.2828 37.231 60.3499C37.2981 60.417 37.3316 60.4964 37.3316 60.5882Z" fill="#9C9C9C"/>
<path fill-rule="evenodd" clip-rule="evenodd" d="M42.4634 27.4546C42.9268 27.4546 43.3025 27.8303 43.3025 28.2937V40.8811C43.3025 41.3446 42.9268 41.7203 42.4634 41.7203C41.9999 41.7203 41.6242 41.3446 41.6242 40.8811V28.2937C41.6242 27.8303 41.9999 27.4546 42.4634 27.4546Z" fill="#31305B"/>
<path fill-rule="evenodd" clip-rule="evenodd" d="M39.0974 30.7598C39.6241 30.2519 40.3322 29.9717 41.0644 29.9717H45.2602C45.7236 29.9717 46.0993 30.3474 46.0993 30.8108C46.0993 31.2743 45.7236 31.65 45.2602 31.65H41.0644C40.758 31.65 40.47 31.7677 40.2623 31.9679C40.0557 32.1672 39.9455 32.4308 39.9455 32.6989C39.9455 32.9671 40.0557 33.2307 40.2623 33.43C40.47 33.6302 40.758 33.7479 41.0644 33.7479H43.8616C44.5938 33.7479 45.3019 34.0281 45.8286 34.536C46.3564 35.0449 46.6588 35.7418 46.6588 36.4752C46.6588 37.2085 46.3564 37.9054 45.8286 38.4143C45.3019 38.9222 44.5938 39.2024 43.8616 39.2024H39.1064C38.6429 39.2024 38.2672 38.8267 38.2672 38.3633C38.2672 37.8998 38.6429 37.5241 39.1064 37.5241H43.8616C44.168 37.5241 44.456 37.4065 44.6636 37.2062C44.8703 37.0069 44.9805 36.7433 44.9805 36.4752C44.9805 36.207 44.8703 35.9434 44.6636 35.7441C44.456 35.5439 44.168 35.4262 43.8616 35.4262H41.0644C40.3322 35.4262 39.6241 35.146 39.0974 34.6381C38.5696 34.1292 38.2672 33.4323 38.2672 32.6989C38.2672 31.9656 38.5696 31.2687 39.0974 30.7598Z" fill="#31305B"/>
<path fill-rule="evenodd" clip-rule="evenodd" d="M39.7989 68.8859C39.7989 68.6542 39.9867 68.4664 40.2185 68.4664H57.6699C57.9016 68.4664 58.0895 68.6542 58.0895 68.8859C58.0895 69.1177 57.9016 69.3055 57.6699 69.3055H40.2185C39.9867 69.3055 39.7989 69.1177 39.7989 68.8859Z" fill="#31305B"/>
<path fill-rule="evenodd" clip-rule="evenodd" d="M39.9167 65.5869C39.9167 65.3552 40.1046 65.1674 40.3363 65.1674H49.4264C49.6581 65.1674 49.846 65.3552 49.846 65.5869C49.846 65.8187 49.6581 66.0065 49.4264 66.0065H40.3363C40.1046 66.0065 39.9167 65.8187 39.9167 65.5869Z" fill="#31305B"/>
<path fill-rule="evenodd" clip-rule="evenodd" d="M39.7471 54.9714C39.7471 54.7397 39.935 54.5518 40.1667 54.5518H54.6311C54.8628 54.5518 55.0507 54.7397 55.0507 54.9714C55.0507 55.2031 54.8628 55.391 54.6311 55.391H40.1667C39.935 55.391 39.7471 55.2031 39.7471 54.9714Z" fill="#31305B"/>
<path fill-rule="evenodd" clip-rule="evenodd" d="M39.9453 51.7902C39.9453 51.5585 40.1331 51.3706 40.3648 51.3706H49.5956C49.8273 51.3706 50.0152 51.5585 50.0152 51.7902C50.0152 52.0219 49.8273 52.2098 49.5956 52.2098H40.3648C40.1331 52.2098 39.9453 52.0219 39.9453 51.7902Z" fill="#31305B"/>
<path d="M42.5693 65.4938C43.678 62.4076 47.0347 63.282 48.5746 64.105L57.9674 67.8171V47.5941C59.9384 47.5941 61.663 49.0343 62.2789 49.7544L81.0646 73.3635L75.6753 84.9366C75.1107 84.8852 72.688 84.7206 67.5143 84.4737C62.3405 84.2268 59.8152 81.9019 59.1993 80.7703L56.8896 76.1411C53.7073 74.958 46.8808 72.4068 45.033 71.6661C42.7233 70.7403 41.1835 69.3515 42.5693 65.4938Z" fill="url(#paint1_linear)"/>
<path fill-rule="evenodd" clip-rule="evenodd" d="M57.1285 47.5942C57.1285 47.1308 57.5042 46.7551 57.9676 46.7551C59.1537 46.7551 60.227 47.1859 61.0614 47.6837C61.8962 48.1816 62.551 48.7815 62.9168 49.2091C62.9232 49.2166 62.9296 49.2243 62.9357 49.232L81.7215 72.8412C81.9195 73.0901 81.9598 73.4296 81.8255 73.7179L76.4362 85.291C76.2867 85.612 75.9519 85.8046 75.5993 85.7725C75.0553 85.7229 72.65 85.559 67.4745 85.3121C62.0784 85.0546 59.2491 82.617 58.4624 81.1716C58.4592 81.1657 58.456 81.1597 58.4529 81.1537C58.4515 81.1508 58.45 81.148 58.4486 81.1451L56.2868 76.8123C52.9953 75.5878 46.5227 73.1674 44.721 72.4452C43.5226 71.9648 42.3196 71.2917 41.6739 70.0722C41.0158 68.8295 41.049 67.2445 41.7797 65.2103C42.1094 64.2926 42.6281 63.6172 43.2845 63.1672C43.9341 62.7218 44.6639 62.5342 45.3644 62.4958C46.7156 62.4215 48.0714 62.8933 48.9263 63.3418L57.1285 66.5833V47.5942ZM57.6573 68.5969L48.2663 64.8856C48.2365 64.8738 48.2074 64.8604 48.1792 64.8453C47.4913 64.4776 46.4224 64.1185 45.4565 64.1715C44.9867 64.1974 44.5732 64.3185 44.2335 64.5514C43.9006 64.7796 43.5839 65.1523 43.3592 65.7777C42.7042 67.6012 42.8143 68.6394 43.1571 69.2869C43.5123 69.9577 44.2341 70.4419 45.3454 70.8874C47.1806 71.623 53.9939 74.1694 57.1822 75.3547C57.3817 75.4288 57.5456 75.5761 57.6406 75.7666L59.9429 80.381C60.4027 81.2079 62.6264 83.4005 67.5545 83.6357C71.6787 83.8325 74.0658 83.9775 75.1603 84.0552L80.085 73.48L61.6323 50.2894C61.3789 49.9961 60.8678 49.5224 60.2016 49.125C59.7698 48.8674 59.297 48.6562 58.8068 48.5376V67.2481L61.3576 68.2634C61.7882 68.4348 61.9983 68.9228 61.8269 69.3534C61.6555 69.784 61.1675 69.9941 60.7369 69.8227L57.6573 68.5969Z" fill="#31305B"/>
<defs>
<linearGradient id="paint0_linear" x1="42.0608" y1="84.356" x2="42.0433" y2="73.1887" gradientUnits="userSpaceOnUse">
<stop stop-color="#00ABFD"/>
<stop offset="1" stop-color="#006CE2"/>
</linearGradient>
<linearGradient id="paint1_linear" x1="61.5542" y1="47.5941" x2="61.5542" y2="84.9366" gradientUnits="userSpaceOnUse">
<stop stop-color="#FFF7DA"/>
<stop offset="1" stop-color="#F8B498"/>
</linearGradient>
</defs>
</svg>
