<svg width="122" height="122" viewBox="0 0 122 122" fill="none" xmlns="http://www.w3.org/2000/svg">
<path d="M26.7841 49.5775C28.5806 50.7324 30.0919 52.6001 30.1365 54.819C30.4466 58.2694 27.5416 61.5843 24.0876 61.7519C20.4109 62.1279 16.8839 58.6864 17.1583 54.9937C17.2296 51.857 19.9065 49.0375 23.0343 48.7898C24.3122 48.6882 25.6738 48.8949 26.7841 49.5775Z" fill="#F0F0F0"/>
<path d="M98.157 28.5374C98.901 29.0634 99.5287 29.737 100.001 30.5161C100.474 31.2952 100.781 32.1631 100.903 33.066C101.092 34.9658 100.494 36.9726 99.1052 38.3253C91.6056 45.7964 84.1345 53.296 76.6492 60.7813C75.4177 62.1162 73.8956 63.2141 72.9778 64.8092C72.2631 66.2795 71.8176 67.9976 72.272 69.614C72.4689 70.4719 72.8447 71.2786 73.3748 71.9813C73.9048 72.684 74.5773 73.2669 75.3481 73.6918C77.7987 75.13 81.1475 74.6649 83.1347 72.642C86.2447 69.5641 89.3226 66.4542 92.4165 63.3602C93.6337 62.1929 94.6942 60.8366 96.1502 59.9473C97.5211 59.2026 99.1149 58.9785 100.638 59.3164C102.662 59.7156 104.356 61.1984 105.286 63.0056C105.953 64.6723 105.986 66.526 105.377 68.215C104.723 69.582 103.546 70.5978 102.484 71.6458C94.8801 79.2499 87.276 86.8541 79.6718 94.4582C77.8254 96.0765 75.0434 96.4062 72.821 95.4064C71.4112 94.9234 70.4773 93.7008 69.228 92.9398C67.1891 91.8954 64.58 91.9774 62.7015 93.3354C61.5395 94.1232 60.6537 95.2085 59.645 96.1888C55.6611 100.173 51.6779 104.156 47.6952 108.139C46.0734 109.849 43.4981 110.468 41.2489 109.833C37.9749 108.998 35.7935 105.308 36.7131 102.043C37.0482 100.311 38.3528 99.0314 39.5879 97.8783C42.083 95.3832 44.5781 92.8881 47.0732 90.393C48.2655 89.1329 49.6859 88.0583 50.5699 86.5398C51.4788 84.8609 51.5359 82.8221 50.9584 81.0256C49.7697 78.1045 46.3229 76.194 43.2378 77.119C41.903 77.4309 40.8016 78.297 39.8409 79.2363C38.0373 81.1218 36.1517 82.9255 34.3499 84.795C33.0061 86.1673 31.0724 87.0032 29.1422 86.8125C28.1894 86.7346 27.2646 86.452 26.431 85.9838C25.5975 85.5157 24.8748 84.8731 24.3124 84.0999C23.1255 82.6635 22.9098 80.6513 23.2128 78.8691C23.4908 77.037 24.9932 75.7627 26.2461 74.5348C39.4346 61.3463 52.623 48.1579 65.8115 34.9694C66.8131 33.9429 67.7862 32.8414 69.0605 32.1588C70.6395 31.4816 72.4627 31.519 74.0846 32.0323C76.1092 32.7202 77.0573 34.9837 79.0819 35.6823C80.7501 36.4344 82.8852 36.192 84.2022 34.8714C86.1128 32.9609 87.9948 31.0218 89.9321 29.1415C92.0743 27.01 95.7243 26.7997 98.157 28.5374Z" fill="#F0F0F0"/>
<path d="M70.437 80.7763C69.4943 76.5428 72.7155 72.5254 77.0528 72.5254H83.3171C87.6137 72.5254 90.826 76.472 89.9538 80.6791L88.9702 85.4235C88.318 88.5696 85.5465 90.8254 82.3335 90.8254H78.1092C74.9336 90.8254 72.1837 88.6205 71.4935 85.5208L70.437 80.7763Z" fill="#545289"/>
<path fill-rule="evenodd" clip-rule="evenodd" d="M83.3171 73.8809H77.0528C73.5829 73.8809 71.006 77.0948 71.7602 80.4817L72.8166 85.2261C73.3688 87.7059 75.5687 89.4698 78.1092 89.4698H82.3335C84.9039 89.4698 87.1211 87.6652 87.6429 85.1483L88.6265 80.4039C89.3242 77.0382 86.7544 73.8809 83.3171 73.8809ZM77.0528 72.5254C72.7155 72.5254 69.4943 76.5428 70.437 80.7763L71.4935 85.5208C72.1837 88.6205 74.9336 90.8254 78.1092 90.8254H82.3335C85.5465 90.8254 88.318 88.5696 88.9702 85.4235L89.9538 80.6791C90.826 76.472 87.6137 72.5254 83.3171 72.5254H77.0528Z" fill="#31305B"/>
<path d="M85.6218 81.1234C85.2035 84.3891 84.9944 86.022 84.0651 87.1525C83.7177 87.5751 83.3043 87.9389 82.841 88.2298C81.6016 89.0079 79.9554 89.0079 76.663 89.0079L75.1926 89.0079C71.8573 89.0079 70.1896 89.0079 68.9417 88.215C68.4755 87.9188 68.0606 87.5485 67.7135 87.1187C66.7845 85.9686 66.5959 84.3116 66.2186 80.9976V80.9976C65.7549 76.9251 65.5231 74.8888 66.4108 73.4104C66.7397 72.8627 67.1689 72.3819 67.6758 71.9932C69.0444 70.9439 71.0938 70.9439 75.1926 70.9439L76.663 70.9439C80.8141 70.9439 82.8896 70.9439 84.2646 72.0101C84.7737 72.4048 85.2031 72.8927 85.53 73.4479C86.4129 74.9472 86.1492 77.0059 85.6218 81.1234V81.1234Z" fill="url(#paint0_linear)"/>
<path fill-rule="evenodd" clip-rule="evenodd" d="M75.1926 87.6524L76.663 87.6524C78.3364 87.6524 79.4923 87.6508 80.3877 87.5618C81.2585 87.4752 81.7476 87.3157 82.1202 87.0818C82.46 86.8684 82.7632 86.6017 83.0179 86.2917C83.2973 85.9518 83.5176 85.4869 83.7141 84.6342C83.9162 83.7573 84.0646 82.6111 84.2772 80.9512C84.5449 78.8616 84.7295 77.4046 84.7494 76.2799C84.7689 75.1773 84.6218 74.577 84.3619 74.1357C84.1222 73.7286 83.8073 73.3708 83.434 73.0813C83.0292 72.7674 82.4525 72.5453 81.3564 72.4245C80.2383 72.3014 78.7696 72.2994 76.663 72.2994L75.1926 72.2994C73.1123 72.2994 71.6628 72.3013 70.5582 72.4225C69.4758 72.5412 68.9041 72.7596 68.5006 73.0689C68.1289 73.354 67.8141 73.7065 67.573 74.1082C67.3113 74.544 67.159 75.1368 67.1635 76.2256C67.168 77.3369 67.3301 78.7773 67.5654 80.8443C67.7572 82.5286 67.8913 83.6922 68.084 84.5828C68.2716 85.4492 68.489 85.9215 68.768 86.2669C69.0226 86.5821 69.3268 86.8536 69.6687 87.0709C70.0436 87.3091 70.5374 87.4717 71.4194 87.56C72.3261 87.6508 73.4975 87.6524 75.1926 87.6524ZM84.0651 87.1525C84.9944 86.022 85.2035 84.3891 85.6218 81.1234C86.1492 77.0059 86.4129 74.9472 85.53 73.4479C85.2031 72.8927 84.7737 72.4048 84.2646 72.0101C82.8896 70.9439 80.8141 70.9439 76.663 70.9439L75.1926 70.9439C71.0938 70.9439 69.0444 70.9439 67.6758 71.9932C67.1689 72.3819 66.7397 72.8627 66.4108 73.4104C65.5231 74.8888 65.7549 76.9251 66.2186 80.9976C66.5959 84.3116 66.7845 85.9686 67.7135 87.1187C68.0606 87.5485 68.4755 87.9188 68.9417 88.215C70.1896 89.0079 71.8573 89.0079 75.1926 89.0079L76.663 89.0079C79.9554 89.0079 81.6016 89.0079 82.841 88.2298C83.3043 87.9389 83.7177 87.5751 84.0651 87.1525Z" fill="#31305B"/>
<path d="M73.1689 78.0013L75.9993 75.8786C73.2822 75.8786 73.5935 73.3313 73.5935 71.6331H71.8953C70.9047 76.4446 72.6029 77.2937 73.1689 78.0013Z" fill="white"/>
<path fill-rule="evenodd" clip-rule="evenodd" d="M71.5634 71.5647C71.5958 71.4072 71.7345 71.2942 71.8953 71.2942H73.5935C73.7807 71.2942 73.9324 71.4459 73.9324 71.6331C73.9324 71.7984 73.9297 71.9641 73.927 72.1313C73.9224 72.4158 73.9178 72.7047 73.9261 73.0035C73.939 73.4695 73.9838 73.9115 74.1013 74.2928C74.2178 74.6705 74.4005 74.9725 74.6808 75.1832C74.9606 75.3936 75.3733 75.5397 75.9993 75.5397C76.1452 75.5397 76.2747 75.633 76.3208 75.7714C76.3669 75.9098 76.3193 76.0622 76.2026 76.1497L73.3723 78.2724C73.2258 78.3823 73.0187 78.356 72.9043 78.213C72.8546 78.1509 72.781 78.0763 72.6924 77.9864C72.3983 77.6883 71.9384 77.222 71.635 76.4852C71.2286 75.4983 71.0603 74.0082 71.5634 71.5647ZM72.1736 71.972C71.7543 74.1725 71.9382 75.4415 72.2617 76.2272C72.5087 76.827 72.8182 77.141 73.1026 77.4297C73.1403 77.468 73.1776 77.5058 73.2142 77.5438L75.1165 76.117C74.7893 76.0346 74.5096 75.9025 74.2734 75.7249C73.8479 75.4049 73.599 74.9639 73.4536 74.4925C73.3094 74.0247 73.2621 73.5115 73.2486 73.0223C73.2399 72.712 73.245 72.3914 73.2496 72.0948C73.2503 72.0534 73.2509 72.0124 73.2515 71.972H72.1736Z" fill="#31305B"/>
<path d="M78.687 78.0013L75.8575 75.8314C78.5739 75.8314 78.2626 73.2275 78.2626 71.4916H79.9603C80.9507 76.4101 79.2529 77.278 78.687 78.0013Z" fill="white"/>
<path fill-rule="evenodd" clip-rule="evenodd" d="M80.2931 71.4247C80.2612 71.2665 80.1222 71.1527 79.9609 71.1527H78.2631C78.076 71.1527 77.9243 71.3044 77.9243 71.4916C77.9243 71.66 77.9269 71.8292 77.9296 72.0001C77.9342 72.2912 77.9389 72.5872 77.9306 72.8928C77.9176 73.3698 77.8728 73.8231 77.7548 74.2147C77.6377 74.603 77.4539 74.913 77.1733 75.1288C76.8937 75.3437 76.4823 75.4926 75.858 75.4926C75.7129 75.4926 75.5838 75.5851 75.5371 75.7226C75.4905 75.8601 75.5366 76.012 75.6518 76.1004L78.4814 78.2703C78.6289 78.3834 78.8399 78.3566 78.9545 78.2102C79.0047 78.146 79.0787 78.0693 79.1677 77.9771C79.4618 77.6721 79.9197 77.1974 80.2222 76.4463C80.6271 75.4407 80.7957 73.9208 80.2931 71.4247ZM79.6814 71.8305C80.1021 74.0846 79.9184 75.3862 79.5935 76.1931C79.3458 76.808 79.0349 77.1307 78.7503 77.4261C78.7137 77.4641 78.6775 77.5016 78.6419 77.5393L76.7276 76.0712C77.0617 75.987 77.3466 75.8505 77.5864 75.6661C78.0113 75.3394 78.2591 74.89 78.4037 74.4103C78.5474 73.9339 78.5945 73.4107 78.6081 72.9113C78.6167 72.5944 78.6117 72.2674 78.607 71.9644C78.6064 71.9192 78.6057 71.8745 78.605 71.8305H79.6814Z" fill="#31305B"/>
<path d="M87.1565 60.9355C87.8659 69.2609 82.2242 70.7301 76.14 70.7301C70.0558 70.7301 64.488 69.016 65.1235 60.9355C65.6243 54.5691 68.8792 48.5094 76.14 48.5094C83.6512 48.5094 86.6557 55.0588 87.1565 60.9355Z" fill="url(#paint1_linear)"/>
<path fill-rule="evenodd" clip-rule="evenodd" d="M83.4365 67.8319C85.0061 66.7706 86.1309 64.8661 85.8058 61.0506C85.5689 58.2698 84.7438 55.4312 83.1869 53.3243C81.6706 51.2721 79.434 49.865 76.14 49.865C72.9442 49.865 70.706 51.1734 69.1697 53.1634C67.5952 55.203 66.7119 58.0293 66.4749 61.0418C66.1853 64.7244 67.2996 66.6493 68.8847 67.7493C70.604 68.9424 73.1635 69.3745 76.14 69.3745C79.1428 69.3745 81.7141 68.9965 83.4365 67.8319ZM76.14 70.7301C82.2242 70.7301 87.8659 69.2609 87.1565 60.9355C86.6557 55.0588 83.6512 48.5094 76.14 48.5094C68.8792 48.5094 65.6243 54.5691 65.1235 60.9355C64.488 69.016 70.0558 70.7301 76.14 70.7301Z" fill="#31305B"/>
<path d="M73.5228 69.05C73.5228 67.6823 74.6315 66.5735 75.9993 66.5735V66.5735C77.367 66.5735 78.4758 67.6823 78.4758 69.05V73.7117C78.4758 75.0795 77.367 76.1882 75.9993 76.1882V76.1882C74.6315 76.1882 73.5228 75.0795 73.5228 73.7117V69.05Z" fill="url(#paint2_linear)"/>
<path fill-rule="evenodd" clip-rule="evenodd" d="M77.1203 73.7117V69.05C77.1203 68.4309 76.6184 67.929 75.9993 67.929C75.3802 67.929 74.8783 68.4309 74.8783 69.05V73.7117C74.8783 74.3308 75.3802 74.8327 75.9993 74.8327C76.6184 74.8327 77.1203 74.3308 77.1203 73.7117ZM75.9993 66.5735C74.6315 66.5735 73.5228 67.6823 73.5228 69.05V73.7117C73.5228 75.0795 74.6315 76.1882 75.9993 76.1882C77.367 76.1882 78.4758 75.0795 78.4758 73.7117V69.05C78.4758 67.6823 77.367 66.5735 75.9993 66.5735Z" fill="#31305B"/>
<path d="M69.8838 64.722L69.6512 64.487C67.6423 63.5645 67.8592 61.9629 68.2344 61.2375L69.6512 60.7276L72.2095 59.3178L74.7677 56.7332L74.5352 57.6731L73.8375 58.8479L75.698 58.6129L78.0237 57.4381L79.6517 55.7933L80.8146 58.3779L82.4426 60.4926L84.0705 61.1975L84.3031 62.8423L83.6054 64.0171L82.4426 64.722L81.9774 65.8968L80.3494 68.0115L78.4889 69.6562L75.9306 70.3611L73.8375 69.8912C73.1398 69.4213 71.9304 68.1995 71.7443 68.0115L71.7443 68.0115C71.5583 67.8235 70.8916 66.9933 70.5815 66.6017L69.8838 64.722Z" fill="url(#paint3_linear)"/>
<path d="M78.0524 58.8844C78.0524 58.7248 78.1818 58.5953 78.3415 58.5953H79.7869C79.9466 58.5953 80.076 58.7248 80.076 58.8844V58.8844C80.076 59.0441 79.9466 59.1735 79.7869 59.1735H78.3415C78.1818 59.1735 78.0524 59.0441 78.0524 58.8844V58.8844Z" fill="#31305B"/>
<path fill-rule="evenodd" clip-rule="evenodd" d="M80.2615 55.1021L79.7806 53.6443L79.0279 54.9808L79.0277 54.981L79.0276 54.9812L79.0275 54.9815L79.0273 54.9819L79.0254 54.985C79.023 54.9893 79.0187 54.9966 79.0126 55.0068C79.0005 55.0273 78.9811 55.0593 78.9547 55.1013C78.9017 55.1853 78.8208 55.3087 78.713 55.4588C78.4967 55.76 78.1763 56.1631 77.7617 56.5692C77.1358 57.1821 76.3295 57.7696 75.3697 58.0563C75.5264 57.1845 75.34 56.5112 75.2392 56.1475C75.2317 56.1205 75.2247 56.0951 75.2183 56.0715L74.8735 54.7942L74.0383 55.8203C73.4527 56.5398 72.4712 57.6346 71.3031 58.4986C70.118 59.3752 68.8544 59.9306 67.6719 59.7777C67.3007 59.7297 66.9608 59.9917 66.9128 60.363C66.878 60.6321 67.0061 60.8847 67.2207 61.0216C67.0636 61.3921 67.0171 61.7985 67.062 62.1902C67.1734 63.1627 67.8523 64.1255 69.0072 64.5149C70.2025 67.4064 72.1249 70.337 75.7673 70.4608V70.4648C75.8082 70.4648 75.849 70.4645 75.8895 70.4639C75.9288 70.4645 75.9683 70.4648 76.008 70.4648V70.461C79.7045 70.3426 81.6706 67.499 82.8984 64.6693C84.0209 64.3328 84.789 63.568 85.0736 62.6902C85.2294 62.2093 85.2332 61.6941 85.0687 61.2328C85.2652 61.0905 85.3786 60.8473 85.343 60.5903C85.2916 60.2195 84.9494 59.9606 84.5786 60.012C83.6105 60.1461 82.7215 59.5511 81.9198 58.4657C81.1344 57.4024 80.572 56.0432 80.2615 55.1021ZM83.4252 61.2686C82.341 60.969 81.4738 60.1434 80.8295 59.2711C80.2429 58.477 79.7777 57.5641 79.4326 56.7466C79.2303 56.9938 78.989 57.2645 78.7102 57.5376C77.7531 58.475 76.2925 59.4976 74.4042 59.5875L73.2481 59.6426L73.7657 58.6074C73.8959 58.347 73.9767 58.1059 74.0228 57.8838C73.482 58.4474 72.8319 59.0538 72.1093 59.5884C71.2377 60.2331 70.2076 60.8123 69.1014 61.0475L69.1105 61.1227C68.8037 61.1599 68.6357 61.2869 68.5405 61.4215C68.4372 61.5674 68.3795 61.7807 68.4087 62.0359C68.4667 62.542 68.8609 63.118 69.653 63.2888L70.0069 63.365L70.1403 63.7015C71.3208 66.6786 72.9665 69.0461 75.89 69.108C78.9019 69.0465 80.5808 66.7192 81.7801 63.8348L81.9179 63.5033L82.2695 63.4311C83.1664 63.2467 83.6384 62.7214 83.7841 62.2722C83.9267 61.8322 83.7831 61.4725 83.4133 61.2932L83.4252 61.2686Z" fill="#31305B"/>
<path d="M79.6418 61.7661C79.6418 62.1684 79.3157 62.4945 78.9134 62.4945C78.5111 62.4945 78.185 62.1684 78.185 61.7661C78.185 61.3638 78.5111 61.0377 78.9134 61.0377C79.3157 61.0377 79.6418 61.3638 79.6418 61.7661Z" fill="#31305B"/>
<path d="M73.5229 61.7661C73.5229 62.1684 73.1968 62.4945 72.7945 62.4945C72.3922 62.4945 72.0661 62.1684 72.0661 61.7661C72.0661 61.3638 72.3922 61.0377 72.7945 61.0377C73.1968 61.0377 73.5229 61.3638 73.5229 61.7661Z" fill="#31305B"/>
<path d="M74.1061 65.1167H77.8937V65.4617C77.8937 66.3976 77.1351 67.1562 76.1993 67.1562H75.8005C74.8647 67.1562 74.1061 66.3976 74.1061 65.4617V65.1167Z" fill="white"/>
<path fill-rule="evenodd" clip-rule="evenodd" d="M73.7667 65.1166C73.7667 64.9294 73.9184 64.7777 74.1056 64.7777H77.8932C78.0803 64.7777 78.2321 64.9294 78.2321 65.1166V65.4616C78.2321 66.5846 77.3217 67.495 76.1987 67.495H75.8C74.677 67.495 73.7667 66.5846 73.7667 65.4616V65.1166ZM74.4444 65.4555V65.4616C74.4444 66.2103 75.0513 66.8172 75.8 66.8172H76.1987C76.9474 66.8172 77.5543 66.2103 77.5543 65.4616V65.4555H74.4444Z" fill="#31305B"/>
<path d="M32.6777 87.4364H92.3222V91.1642H32.6777V87.4364Z" fill="#37A2F7"/>
<path fill-rule="evenodd" clip-rule="evenodd" d="M32 87.4364C32 87.0621 32.3035 86.7587 32.6778 86.7587H92.3222C92.6965 86.7587 93 87.0621 93 87.4364V91.1642C93 91.5385 92.6965 91.842 92.3222 91.842H32.6778C32.3035 91.842 32 91.5385 32 91.1642V87.4364ZM33.3556 88.1142V90.4864H91.6444V88.1142H33.3556Z" fill="#31305B"/>
<path d="M35.7282 64.0532H62.5004V82.3532H35.7282V64.0532Z" fill="url(#paint4_linear)"/>
<path fill-rule="evenodd" clip-rule="evenodd" d="M61.1449 65.4088H37.0838V80.9977H61.1449V65.4088ZM35.7282 64.0532V82.3532H62.5004V64.0532H35.7282Z" fill="#31305B"/>
<path d="M46.5723 75.5753H51.9945V86.0809H46.5723V75.5753Z" fill="#C4C4C4"/>
<path d="M46.5723 75.4753H46.4723V75.5753V86.0809V86.1809H46.5723H51.9945H52.0945V86.0809V75.5753V75.4753H51.9945H46.5723ZM47.35 76.3531H51.2167V85.3031H47.35V76.3531Z" fill="#31305B" stroke="#31305B" stroke-width="0.2"/>
<path d="M42.5057 84.7255H55.7224V87.4366H42.5057V84.7255Z" fill="#C4C4C4"/>
<path d="M42.5057 84.6255H42.4057V84.7255V87.4366V87.5366H42.5057H55.7224H55.8224V87.4366V84.7255V84.6255H55.7224H42.5057ZM43.2835 85.5032H54.9446V86.6588H43.2835V85.5032Z" fill="#31305B" stroke="#31305B" stroke-width="0.2"/>
<path fill-rule="evenodd" clip-rule="evenodd" d="M49.0418 37.6777C44.5164 37.6777 40.8473 41.3466 40.8473 45.8723C40.8473 50.398 49.0418 59.5298 49.0418 59.5298C49.0418 59.5298 57.2367 50.3981 57.2367 45.8723C57.2367 41.3465 53.5675 37.6777 49.0418 37.6777ZM49.0418 49.2865C46.7791 49.2865 44.9446 47.4521 44.9446 45.1894C44.9446 42.9264 46.7791 41.0921 49.0418 41.0921C51.3048 41.0921 53.1391 42.9264 53.1391 45.1894C53.1391 47.4521 51.3048 49.2865 49.0418 49.2865Z" fill="#F9627A"/>
<path fill-rule="evenodd" clip-rule="evenodd" d="M40.169 45.8723C40.169 40.9723 44.1416 37 49.0413 37C53.9413 37 57.914 40.9722 57.914 45.8723C57.914 47.1733 57.3367 48.7137 56.5584 50.2258C55.7687 51.7599 54.7233 53.3559 53.689 54.794C52.653 56.2346 51.6184 57.5302 50.8436 58.4649C50.4559 58.9326 50.1325 59.3108 49.9056 59.5726C49.7922 59.7035 49.7028 59.8054 49.6415 59.8748C49.6108 59.9095 49.5872 59.9361 49.5711 59.9542L49.5526 59.975L49.546 59.9823C49.5459 59.9825 49.5458 59.9826 49.0413 59.5299C48.5369 59.9826 48.5368 59.9825 48.5367 59.9823L48.535 59.9804L48.5301 59.9749L48.5116 59.9542C48.505 59.9468 48.497 59.9379 48.4879 59.9276C48.4748 59.9128 48.4592 59.8952 48.4412 59.8748C48.3799 59.8053 48.2905 59.7035 48.177 59.5726C47.9501 59.3108 47.6268 58.9326 47.2391 58.4649C46.4643 57.5301 45.4298 56.2346 44.3938 54.794C43.3596 53.3559 42.3142 51.7599 41.5245 50.2258C40.7462 48.7137 40.169 47.1733 40.169 45.8723ZM49.0413 59.5299L48.5367 59.9823L49.0413 60.5447L49.546 59.9823L49.0413 59.5299ZM49.0413 58.4992C49.2455 58.2616 49.5034 57.9576 49.8 57.5998C50.5617 56.6809 51.5758 55.4106 52.5885 54.0026C53.603 52.592 54.6062 51.0565 55.3531 49.6054C56.1113 48.1325 56.5584 46.8342 56.5584 45.8723C56.5584 41.7209 53.1927 38.3556 49.0413 38.3556C44.8902 38.3556 41.5246 41.721 41.5246 45.8723C41.5246 46.8342 41.9717 48.1325 42.7298 49.6054C43.4767 51.0565 44.4799 52.592 45.4943 54.0025C46.507 55.4106 47.5211 56.6809 48.2828 57.5998C48.5793 57.9576 48.8372 58.2617 49.0413 58.4992ZM49.0413 41.7699C47.1529 41.7699 45.6218 43.3008 45.6218 45.1894C45.6218 47.0778 47.1529 48.6088 49.0413 48.6088C50.93 48.6088 52.4608 47.0778 52.4608 45.1894C52.4608 43.3007 50.93 41.7699 49.0413 41.7699ZM44.2663 45.1894C44.2663 42.552 46.4043 40.4144 49.0413 40.4144C51.6786 40.4144 53.8164 42.5521 53.8164 45.1894C53.8164 47.8265 51.6786 49.9643 49.0413 49.9643C46.4043 49.9643 44.2663 47.8265 44.2663 45.1894Z" fill="#31305B"/>
<defs>
<linearGradient id="paint0_linear" x1="75.9573" y1="89.0079" x2="75.9573" y2="70.9439" gradientUnits="userSpaceOnUse">
<stop stop-color="#F76382"/>
<stop offset="1" stop-color="#E83979"/>
</linearGradient>
<linearGradient id="paint1_linear" x1="76.1454" y1="41.8961" x2="73.4962" y2="64.9741" gradientUnits="userSpaceOnUse">
<stop stop-color="#BF8B65"/>
<stop offset="1" stop-color="#502100"/>
</linearGradient>
<linearGradient id="paint2_linear" x1="75.9993" y1="66.5735" x2="75.9993" y2="76.1882" gradientUnits="userSpaceOnUse">
<stop stop-color="#FFEEB1"/>
<stop offset="1" stop-color="#E79A79"/>
</linearGradient>
<linearGradient id="paint3_linear" x1="76.1451" y1="55.7933" x2="76.1451" y2="70.3611" gradientUnits="userSpaceOnUse">
<stop stop-color="#FFEEB1"/>
<stop offset="1" stop-color="#E79A79"/>
</linearGradient>
<linearGradient id="paint4_linear" x1="49.1143" y1="73.8302" x2="49.1143" y2="84.1887" gradientUnits="userSpaceOnUse">
<stop stop-color="#C4C4C4"/>
<stop offset="1" stop-color="#898989"/>
</linearGradient>
</defs>
</svg>
