<svg width="122" height="122" viewBox="0 0 122 122" fill="none" xmlns="http://www.w3.org/2000/svg">
<path d="M26.7841 49.5775C28.5806 50.7324 30.0919 52.6001 30.1365 54.819C30.4466 58.2694 27.5416 61.5843 24.0876 61.7519C20.4109 62.1279 16.8839 58.6864 17.1583 54.9937C17.2296 51.857 19.9065 49.0375 23.0343 48.7898C24.3122 48.6882 25.6738 48.8949 26.7841 49.5775Z" fill="#F0F0F0"/>
<path d="M98.157 28.5374C98.901 29.0634 99.5287 29.737 100.001 30.5161C100.474 31.2952 100.781 32.1631 100.903 33.066C101.092 34.9658 100.494 36.9726 99.1052 38.3253C91.6056 45.7964 84.1345 53.296 76.6492 60.7813C75.4177 62.1162 73.8956 63.2141 72.9778 64.8092C72.2631 66.2795 71.8176 67.9976 72.272 69.614C72.4689 70.4719 72.8447 71.2786 73.3748 71.9813C73.9048 72.684 74.5773 73.2669 75.3481 73.6918C77.7987 75.13 81.1475 74.6649 83.1347 72.642C86.2447 69.5641 89.3226 66.4542 92.4165 63.3602C93.6337 62.1929 94.6942 60.8366 96.1502 59.9473C97.5211 59.2026 99.1149 58.9785 100.638 59.3164C102.662 59.7156 104.356 61.1984 105.286 63.0056C105.953 64.6723 105.986 66.526 105.377 68.215C104.723 69.582 103.546 70.5978 102.484 71.6458C94.8801 79.2499 87.276 86.8541 79.6718 94.4582C77.8254 96.0765 75.0434 96.4062 72.821 95.4064C71.4112 94.9234 70.4773 93.7008 69.228 92.9398C67.1891 91.8954 64.58 91.9774 62.7015 93.3354C61.5395 94.1232 60.6537 95.2085 59.645 96.1888C55.6611 100.173 51.6779 104.156 47.6952 108.139C46.0734 109.849 43.4981 110.468 41.2489 109.833C37.9749 108.998 35.7935 105.308 36.7131 102.043C37.0482 100.311 38.3528 99.0314 39.5879 97.8783C42.083 95.3832 44.5781 92.8881 47.0732 90.393C48.2655 89.1329 49.6859 88.0583 50.5699 86.5398C51.4788 84.8609 51.5359 82.8221 50.9584 81.0256C49.7697 78.1045 46.3229 76.194 43.2378 77.119C41.903 77.4309 40.8016 78.297 39.8409 79.2363C38.0373 81.1218 36.1517 82.9255 34.3499 84.795C33.0061 86.1673 31.0724 87.0032 29.1422 86.8125C28.1894 86.7346 27.2646 86.452 26.431 85.9838C25.5975 85.5157 24.8748 84.8731 24.3124 84.0999C23.1255 82.6635 22.9098 80.6513 23.2128 78.8691C23.4908 77.037 24.9932 75.7627 26.2461 74.5348C39.4346 61.3463 52.623 48.1579 65.8115 34.9694C66.8131 33.9429 67.7862 32.8414 69.0605 32.1588C70.6395 31.4816 72.4627 31.519 74.0846 32.0323C76.1092 32.7202 77.0573 34.9837 79.0819 35.6823C80.7501 36.4344 82.8852 36.192 84.2022 34.8714C86.1128 32.9609 87.9948 31.0218 89.9321 29.1415C92.0743 27.01 95.7243 26.7997 98.157 28.5374Z" fill="#F0F0F0"/>
<path d="M75.2397 69.3813H79.3956V69.8735C79.3956 70.8302 78.6154 71.6058 77.6529 71.6058H76.9824C76.0199 71.6058 75.2397 70.8302 75.2397 69.8735V69.3813Z" fill="white"/>
<path fill-rule="evenodd" clip-rule="evenodd" d="M74.8911 69.3814C74.8911 69.19 75.0471 69.0349 75.2396 69.0349H79.3956C79.5881 69.0349 79.7441 69.19 79.7441 69.3814V69.8735C79.7441 71.0216 78.8078 71.9524 77.6528 71.9524H76.9824C75.8274 71.9524 74.8911 71.0216 74.8911 69.8735V69.3814ZM75.5882 69.7279V69.8735C75.5882 70.6389 76.2124 71.2594 76.9824 71.2594H77.6528C78.4228 71.2594 79.047 70.6389 79.047 69.8735V69.7279H75.5882Z" fill="#31305B"/>
<path d="M87.5558 87.7933C87.0585 91.6528 86.8098 93.5826 85.5863 94.8276C85.4026 95.0146 85.205 95.1875 84.9951 95.3449C83.5973 96.3931 81.6401 96.3931 77.7257 96.3931L76.1124 96.3931C72.1467 96.3931 70.1638 96.3931 68.7581 95.3251C68.5472 95.1649 68.3489 94.9889 68.1649 94.7987C66.9384 93.5312 66.7141 91.5729 66.2655 87.6561C65.7138 82.8391 65.4379 80.4305 66.6756 78.7807C66.859 78.5362 67.0637 78.3082 67.2874 78.0995C68.7964 76.6904 71.2351 76.6904 76.1124 76.6904L77.7257 76.6904C82.6654 76.6904 85.1352 76.6904 86.6492 78.1219C86.8733 78.3338 87.0781 78.5651 87.2611 78.813C88.4972 80.4876 88.1834 82.9228 87.5558 87.7933Z" fill="url(#paint0_linear)"/>
<path fill-rule="evenodd" clip-rule="evenodd" d="M76.1124 95.0072L77.7257 95.0072C79.7155 95.0072 81.09 95.0051 82.1458 94.8851C83.1695 94.7688 83.7323 94.5558 84.1554 94.2385C84.3093 94.1231 84.4543 93.9963 84.589 93.8592C84.9594 93.4823 85.2434 92.9545 85.4895 91.9599C85.7434 90.9341 85.9201 89.5791 86.1729 87.6172C86.4914 85.1453 86.7109 83.4213 86.7131 82.1024C86.7153 80.8141 86.5043 80.1304 86.137 79.6329C86.0028 79.4511 85.8526 79.2815 85.6883 79.126C85.2384 78.7007 84.583 78.4058 83.2973 78.2443C81.9809 78.0789 80.2327 78.0763 77.7257 78.0763L76.1124 78.0763C73.6367 78.0763 71.9115 78.0789 70.6109 78.2416C69.3411 78.4004 68.6908 78.6904 68.2419 79.1096C68.0779 79.2627 67.9278 79.4299 67.7933 79.6092C67.4251 80.1 67.2088 80.775 67.1937 82.0471C67.1782 83.35 67.3707 85.0543 67.6508 87.4994C67.8788 89.4902 68.0385 90.8658 68.2817 91.9077C68.5175 92.9183 68.7988 93.4546 69.1697 93.838C69.3047 93.9775 69.4501 94.1065 69.6048 94.224C70.0299 94.547 70.5978 94.7642 71.6346 94.8828C72.7036 95.005 74.0966 95.0072 76.1124 95.0072ZM85.5863 94.8276C86.8098 93.5826 87.0585 91.6528 87.5558 87.7933C88.1834 82.9228 88.4972 80.4876 87.2611 78.813C87.0781 78.5651 86.8733 78.3338 86.6492 78.1219C85.1352 76.6904 82.6654 76.6904 77.7257 76.6904L76.1124 76.6904C71.2351 76.6904 68.7964 76.6904 67.2874 78.0995C67.0637 78.3082 66.859 78.5362 66.6756 78.7807C65.4379 80.4305 65.7138 82.8391 66.2655 87.6561C66.7141 91.5729 66.9384 93.5312 68.1649 94.7987C68.3489 94.9889 68.5472 95.1649 68.7581 95.3251C70.1638 96.3931 72.1467 96.3931 76.1124 96.3931L77.7257 96.3931C81.6401 96.3931 83.5973 96.3931 84.9951 95.3449C85.205 95.1875 85.4026 95.0146 85.5863 94.8276Z" fill="#31305B"/>
<path d="M73.8918 84.3882L76.9974 82.0729C74.0161 82.0729 74.3577 79.2945 74.3577 77.4423H72.4943C71.4074 82.6903 73.2707 83.6164 73.8918 84.3882Z" fill="white"/>
<path fill-rule="evenodd" clip-rule="evenodd" d="M72.1531 77.3713C72.1864 77.2103 72.3291 77.0947 72.4945 77.0947H74.3578C74.5503 77.0947 74.7064 77.2498 74.7064 77.4412C74.7064 77.6207 74.7035 77.8011 74.7005 77.9834C74.6955 78.2941 74.6903 78.6103 74.6995 78.9365C74.7137 79.4457 74.7629 79.9302 74.8928 80.349C75.0215 80.7641 75.2243 81.0983 75.5368 81.3318C75.8489 81.5651 76.307 81.7253 76.9976 81.7253C77.1476 81.7253 77.2808 81.8208 77.3283 81.9622C77.3757 82.1037 77.3267 82.2595 77.2067 82.349L74.1011 84.6643C73.9505 84.7766 73.7374 84.7497 73.6198 84.6036C73.5637 84.5338 73.4816 84.451 73.3831 84.3518C73.06 84.026 72.5612 83.5232 72.2304 82.7247C71.7869 81.654 71.6016 80.0339 72.1531 77.3713ZM72.7806 77.7877C72.3153 80.2021 72.5168 81.596 72.875 82.4608C73.1478 83.1194 73.492 83.4667 73.805 83.7826C73.8504 83.8284 73.8952 83.8736 73.939 83.919L76.0824 82.321C75.7053 82.2328 75.3856 82.0858 75.1179 81.8857C74.6559 81.5404 74.3851 81.0642 74.2266 80.5532C74.0693 80.0459 74.0175 79.4885 74.0026 78.9558C73.9932 78.6178 73.9987 78.2692 74.0038 77.9461C74.0046 77.8925 74.0055 77.8397 74.0062 77.7877H72.7806Z" fill="#31305B"/>
<path d="M79.947 84.3881L76.8423 82.0214C79.8229 82.0214 79.4813 79.1812 79.4813 77.2878H81.3442C82.4308 82.6525 80.568 83.5992 79.947 84.3881Z" fill="white"/>
<path fill-rule="evenodd" clip-rule="evenodd" d="M81.6859 77.2195C81.6532 77.0577 81.5102 76.9414 81.3442 76.9414H79.4814C79.2889 76.9414 79.1329 77.0965 79.1329 77.2879C79.1329 77.4708 79.1358 77.6551 79.1387 77.8413C79.1438 78.1592 79.1489 78.4831 79.1398 78.8169C79.1255 79.3379 79.0763 79.8347 78.9459 80.2646C78.8165 80.6913 78.6126 81.0342 78.2997 81.2734C77.9879 81.5116 77.5311 81.6749 76.8424 81.6749C76.6931 81.6749 76.5603 81.7695 76.5123 81.9101C76.4644 82.0507 76.5118 82.206 76.6303 82.2963L79.735 84.6631C79.8867 84.7787 80.1038 84.7513 80.2216 84.6017C80.2782 84.5297 80.3608 84.4446 80.4597 84.3427C80.7828 84.0096 81.2795 83.4976 81.6093 82.6833C82.0514 81.5922 82.2369 79.9395 81.6859 77.2195ZM81.057 77.6344C81.5236 80.1072 81.3224 81.5366 80.9627 82.4245C80.6892 83.0996 80.3436 83.4562 80.0303 83.7794C79.986 83.8252 79.9424 83.8702 79.8997 83.9154L77.7437 82.2719C78.1281 82.1819 78.4532 82.0302 78.7246 81.8227C79.1859 81.4702 79.4556 80.9847 79.6133 80.4647C79.7701 79.9479 79.8218 79.3797 79.8366 78.8357C79.8461 78.4905 79.8406 78.1349 79.8355 77.8048C79.8346 77.7472 79.8337 77.6903 79.8329 77.6344H81.057Z" fill="#31305B"/>
<path d="M74.2803 74.6248C74.2803 73.1329 75.4969 71.9236 76.9977 71.9236C78.4984 71.9236 79.7151 73.1329 79.7151 74.6248V79.7093C79.7151 81.2011 78.4984 82.4105 76.9977 82.4105C75.4969 82.4105 74.2803 81.2011 74.2803 79.7093V74.6248Z" fill="url(#paint1_linear)"/>
<path fill-rule="evenodd" clip-rule="evenodd" d="M78.3209 79.7093V74.6248C78.3209 73.8983 77.7284 73.3095 76.9977 73.3095C76.2669 73.3095 75.6745 73.8983 75.6745 74.6248V79.7093C75.6745 80.4357 76.2669 81.0246 76.9977 81.0246C77.7284 81.0246 78.3209 80.4357 78.3209 79.7093ZM76.9977 71.9236C75.4969 71.9236 74.2803 73.1329 74.2803 74.6248V79.7093C74.2803 81.2011 75.4969 82.4105 76.9977 82.4105C78.4984 82.4105 79.7151 81.2011 79.7151 79.7093V74.6248C79.7151 73.1329 78.4984 71.9236 76.9977 71.9236Z" fill="#31305B"/>
<path fill-rule="evenodd" clip-rule="evenodd" d="M70.0442 65.2867C69.83 64.5499 69.3085 63.8186 68.2497 64.3147C66.5112 65.1294 67.3805 69.5285 69.8145 68.5509C69.9883 69.5285 70.336 71.1578 71.5531 72.2983C72.7551 73.4247 74.7852 74.9964 76.9674 75.0657C76.978 75.0673 76.9887 75.0681 76.9994 75.0681C77.0196 75.0681 77.0398 75.068 77.0599 75.0677C77.0788 75.068 77.0977 75.0681 77.1165 75.0681C77.1265 75.0681 77.1362 75.0674 77.1459 75.0661C79.4726 75.0022 81.2002 73.4289 82.4043 72.3018C83.6212 71.1628 83.9689 69.5356 84.1427 68.5593C86.5766 69.5356 87.4458 65.1422 85.7073 64.3286C84.6506 63.8341 84.1292 64.5608 83.9142 65.2953C85.2784 57.017 80.5667 55.1878 76.9843 55.1804C73.961 54.976 68.6479 56.7315 70.0442 65.2867Z" fill="url(#paint2_linear)"/>
<path fill-rule="evenodd" clip-rule="evenodd" d="M72.3434 57.4451C71.0235 58.7229 70.0582 61.0445 70.7324 65.1757C70.7915 65.5375 70.5569 65.8824 70.1972 65.9628C69.8375 66.0432 69.477 65.8312 69.3746 65.4791C69.2844 65.1687 69.1579 64.9754 69.0492 64.8954C69.0071 64.8644 68.9661 64.8485 68.9109 64.8457C68.8495 64.8426 68.7331 64.8543 68.5471 64.9415C68.3674 65.0257 68.1909 65.2329 68.096 65.6212C68.0023 66.0051 68.0152 66.4796 68.1388 66.9179C68.2641 67.3627 68.4791 67.6889 68.7097 67.8562C68.9022 67.9958 69.1572 68.0676 69.5535 67.9084C69.7484 67.8301 69.9685 67.8434 70.1524 67.9447C70.3363 68.046 70.4645 68.2244 70.5011 68.4302C70.6745 69.4054 70.9963 70.824 72.0314 71.794C72.6107 72.337 73.3762 72.974 74.2454 73.4806C75.1181 73.9893 76.056 74.3434 76.9898 74.3731C77.0014 74.3734 77.0129 74.3741 77.0244 74.375C77.0337 74.375 77.0429 74.3749 77.0521 74.3748C77.0556 74.3748 77.059 74.3747 77.0625 74.3748C77.0645 74.3748 77.0665 74.3748 77.0686 74.3748C77.077 74.3749 77.0854 74.375 77.0939 74.375C77.1048 74.3742 77.1158 74.3737 77.1268 74.3734C79.1537 74.3177 80.7003 72.9451 81.9265 71.7973C82.9613 70.8288 83.283 69.4123 83.4564 68.4385C83.4931 68.2328 83.6211 68.0544 83.805 67.9532C83.9888 67.8519 84.2088 67.8385 84.4037 67.9167C84.8002 68.0757 85.0554 68.004 85.248 67.8645C85.4785 67.6975 85.6933 67.3719 85.8186 66.928C85.9421 66.4904 85.9549 66.0169 85.8613 65.6338C85.7666 65.2464 85.5903 65.0396 85.4105 64.9555C85.2248 64.8686 85.1084 64.8567 85.0468 64.8598C84.9913 64.8625 84.9504 64.8784 84.9085 64.9091C84.8003 64.9882 84.6741 65.1798 84.5837 65.4888C84.4807 65.8407 84.1199 66.052 83.7604 65.9711C83.4008 65.8901 83.1668 65.5449 83.2264 65.1832C83.8873 61.1726 83.0523 58.8994 81.8037 57.6184C80.5326 56.3143 78.6792 55.8768 76.983 55.8733C76.9677 55.8733 76.9524 55.8728 76.9371 55.8717C75.5582 55.7785 73.6923 56.1393 72.3434 57.4451ZM77.0086 54.4875C75.3658 54.3818 73.077 54.8004 71.3707 56.4523C69.894 57.8818 68.9557 60.1333 69.1418 63.477C68.7718 63.4234 68.3685 63.4931 67.9526 63.6879C67.2631 64.011 66.8963 64.6592 66.7412 65.2943C66.585 65.9338 66.6156 66.6508 66.7962 67.2918C66.9751 67.9265 67.3252 68.5676 67.8879 68.9757C68.2864 69.2648 68.758 69.4112 69.2699 69.3807C69.5018 70.3927 69.9665 71.7636 71.075 72.8025C71.6977 73.386 72.5482 74.098 73.5402 74.6761C74.5212 75.2479 75.6794 75.7116 76.9173 75.7573C76.9446 75.7598 76.9721 75.761 76.9995 75.761C77.0197 75.761 77.0398 75.7609 77.0598 75.7607C77.0787 75.7609 77.0977 75.761 77.1167 75.761C77.1416 75.761 77.1665 75.76 77.1914 75.7579C79.8044 75.6749 81.7043 73.909 82.8823 72.8063C83.9907 71.7689 84.4555 70.3997 84.6875 69.3889C85.1992 69.4194 85.6706 69.2732 86.0692 68.9845C86.6318 68.5769 86.982 67.9364 87.161 67.3023C87.3417 66.6618 87.3723 65.9455 87.216 65.3065C87.0609 64.6718 86.6939 64.0243 86.0044 63.7016C85.5916 63.5085 85.1911 63.4385 84.8232 63.49C85.0192 60.2859 84.2036 58.089 82.805 56.654C81.1723 54.9789 78.8904 54.4952 77.0086 54.4875Z" fill="#31305B"/>
<path d="M74.9201 70.017H79.0761V70.5091C79.0761 71.4659 78.2958 72.2415 77.3333 72.2415H76.6629C75.7004 72.2415 74.9201 71.4659 74.9201 70.5091V70.017Z" fill="white"/>
<path fill-rule="evenodd" clip-rule="evenodd" d="M74.5713 70.0169C74.5713 69.8255 74.7273 69.6704 74.9198 69.6704H79.0758C79.2683 69.6704 79.4244 69.8255 79.4244 70.0169V70.509C79.4244 71.6571 78.488 72.5879 77.333 72.5879H76.6626C75.5076 72.5879 74.5713 71.6571 74.5713 70.509V70.0169ZM75.2684 70.3634V70.509C75.2684 71.2744 75.8926 71.8949 76.6626 71.8949H77.333C78.103 71.8949 78.7272 71.2744 78.7272 70.509V70.3634H75.2684Z" fill="#31305B"/>
<path d="M68.8744 62.489C69.0071 64.1099 70.035 65.8095 70.6982 66.2035C70.3002 63.2319 70.9745 60.8007 71.3613 59.9565C73.8099 60.463 78.1589 58.6057 80.6458 57.4239C82.6353 56.4784 83.4816 62.7842 83.758 66.0484C84.0592 64.6524 84.563 63.9858 85.5453 64.1244C86.0427 62.042 86.0838 57.9304 82.6353 55.229C78.3247 51.8522 74.038 53.2991 71.6929 54.8913C69.206 56.5797 68.7086 60.463 68.8744 62.489Z" fill="url(#paint3_linear)"/>
<path fill-rule="evenodd" clip-rule="evenodd" d="M82.2041 55.7732C78.2226 52.6542 74.2894 53.9679 72.0864 55.4635C71.0298 56.1808 70.3505 57.4003 69.9593 58.7548C69.57 60.1026 69.4929 61.4955 69.5696 62.4329C69.6063 62.8814 69.7249 63.3483 69.8916 63.7887C69.969 61.8556 70.4136 60.3537 70.7273 59.6692C70.8623 59.3745 71.1847 59.2121 71.5037 59.2781C72.5336 59.4911 74.0783 59.2103 75.7747 58.6641C77.4355 58.1293 79.1124 57.3847 80.3454 56.7987C80.7569 56.6031 81.1945 56.579 81.6069 56.7491C81.9889 56.9067 82.2798 57.2021 82.5014 57.5126C82.9408 58.1283 83.2669 59.0313 83.5187 59.9809C83.8273 61.1446 84.0532 62.4962 84.2144 63.7458C84.4429 63.585 84.6978 63.4836 84.9731 63.4394C85.3152 61.387 85.0845 58.0296 82.2041 55.7732ZM71.3001 54.3191C73.7873 52.6304 78.4274 51.0502 83.0671 54.6847C86.8222 57.6263 86.7508 62.0784 86.2239 64.2845C86.1407 64.6328 85.8042 64.8608 85.4476 64.8105C85.1637 64.7704 85.0351 64.8385 84.9201 64.9684C84.7553 65.1548 84.5841 65.5253 84.4399 66.1938C84.3674 66.5295 84.0586 66.7618 83.7139 66.74C83.3692 66.7181 83.0926 66.4486 83.0636 66.1065C82.9263 64.4838 82.6494 62.1402 82.1705 60.3341C81.9275 59.4174 81.6517 58.7173 81.3643 58.3145C81.2224 58.1158 81.1187 58.0482 81.0725 58.0291C81.0717 58.0288 81.0709 58.0285 81.07 58.0281C81.0542 58.0213 81.0283 58.0103 80.9468 58.0491C79.6929 58.6449 77.9518 59.4199 76.2043 59.9826C74.7226 60.4596 73.1345 60.8194 71.8144 60.7173C71.4775 61.7324 71.0709 63.7333 71.3895 66.1121C71.4248 66.3757 71.3052 66.6361 71.0818 66.7823C70.8584 66.9285 70.5705 66.9347 70.3409 66.7983C70.0714 66.6383 69.8214 66.385 69.6064 66.1157C69.3836 65.8367 69.1656 65.4989 68.9701 65.1278C68.5819 64.3909 68.2556 63.4704 68.1799 62.5452C68.0909 61.4565 68.1795 59.8948 68.6192 58.3723C69.057 56.8566 69.8697 55.2901 71.3001 54.3191Z" fill="#31305B"/>
<path d="M72.3627 63.0257C72.3627 62.8502 72.5059 62.7079 72.6824 62.7079H74.2809C74.4574 62.7079 74.6006 62.8502 74.6006 63.0257C74.6006 63.2012 74.4574 63.3435 74.2809 63.3435H72.6824C72.5059 63.3435 72.3627 63.2012 72.3627 63.0257Z" fill="#31305B"/>
<path d="M79.3957 63.0257C79.3957 62.8502 79.5389 62.7079 79.7154 62.7079H81.3139C81.4904 62.7079 81.6336 62.8502 81.6336 63.0257C81.6336 63.2012 81.4904 63.3435 81.3139 63.3435H79.7154C79.5389 63.3435 79.3957 63.2012 79.3957 63.0257Z" fill="#31305B"/>
<path d="M41.2128 63.0257C41.2128 62.8502 41.3559 62.7079 41.5325 62.7079H43.1309C43.3075 62.7079 43.4506 62.8502 43.4506 63.0257C43.4506 63.2012 43.3075 63.3435 43.1309 63.3435H41.5325C41.3559 63.3435 41.2128 63.2012 41.2128 63.0257Z" fill="#31305B"/>
<path d="M48.246 63.0257C48.246 62.8502 48.3891 62.7079 48.5657 62.7079H50.1641C50.3407 62.7079 50.4838 62.8502 50.4838 63.0257C50.4838 63.2012 50.3407 63.3435 50.1641 63.3435H48.5657C48.3891 63.3435 48.246 63.2012 48.246 63.0257Z" fill="#31305B"/>
<path fill-rule="evenodd" clip-rule="evenodd" d="M68.9339 46.3009C68.8761 45.9842 68.9151 45.6575 69.0459 45.363C69.1704 45.0742 69.3772 44.8279 69.6407 44.6544C69.9042 44.4809 70.2131 44.3878 70.5292 44.3865H70.6176C71.1386 44.3865 71.6383 44.1808 72.0067 43.8146C72.3751 43.4483 72.5821 42.9516 72.5821 42.4337C72.5821 41.9158 72.3751 41.419 72.0067 41.0528C71.6383 40.6866 71.1386 40.4808 70.6176 40.4808H70.4506C70.1345 40.4796 69.8257 40.3865 69.5621 40.213C69.2986 40.0395 69.0918 39.7932 68.9673 39.5044V39.4263C68.8366 39.1318 68.7976 38.8051 68.8553 38.4883C68.9131 38.1716 69.065 37.8793 69.2915 37.6492L69.3504 37.5906C69.5331 37.4092 69.678 37.1939 69.7768 36.9568C69.8757 36.7197 69.9266 36.4656 69.9266 36.209C69.9266 35.9523 69.8757 35.6982 69.7768 35.4611C69.678 35.2241 69.5331 35.0087 69.3504 34.8273C69.168 34.6458 68.9513 34.5017 68.7128 34.4034C68.4743 34.3052 68.2187 34.2546 67.9605 34.2546C67.7023 34.2546 67.4467 34.3052 67.2082 34.4034C66.9697 34.5017 66.753 34.6458 66.5705 34.8273L66.5116 34.8859C66.2801 35.111 65.9861 35.262 65.6674 35.3194C65.3488 35.3769 65.0201 35.3381 64.7238 35.2081C64.4333 35.0844 64.1855 34.8788 64.011 34.6169C63.8365 34.3549 63.7428 34.0479 63.7416 33.7337V33.6458C63.7416 33.1279 63.5346 32.6312 63.1662 32.265C62.7977 31.8987 62.298 31.693 61.777 31.693C61.256 31.693 60.7563 31.8987 60.3878 32.265C60.0194 32.6312 59.8124 33.1279 59.8124 33.6458V33.8118C59.8112 34.126 59.7175 34.433 59.543 34.695C59.3684 34.9569 59.1207 35.1625 58.8301 35.2862H58.7516C58.4553 35.4162 58.1266 35.455 57.808 35.3976C57.4893 35.3401 57.1953 35.1891 56.9638 34.964L56.9049 34.9054C56.7224 34.7239 56.5057 34.5798 56.2672 34.4816C56.0287 34.3833 55.7731 34.3327 55.5149 34.3327C55.2568 34.3327 55.0011 34.3833 54.7626 34.4816C54.5241 34.5798 54.3075 34.7239 54.125 34.9054C53.9423 35.0868 53.7974 35.3022 53.6986 35.5393C53.5997 35.7763 53.5488 36.0304 53.5488 36.2871C53.5488 36.5437 53.5997 36.7978 53.6986 37.0349C53.7974 37.272 53.9423 37.4874 54.125 37.6687L54.1839 37.7273C54.4104 37.9574 54.5623 38.2497 54.6201 38.5665C54.6778 38.8832 54.6388 39.2099 54.5081 39.5044C54.3958 39.8078 54.1943 40.0706 53.9298 40.2587C53.6653 40.4468 53.35 40.5514 53.0248 40.5589H52.9364C52.4154 40.5589 51.9157 40.7647 51.5473 41.1309C51.1788 41.4972 50.9719 41.9939 50.9719 42.5118C50.9719 43.0297 51.1788 43.5264 51.5473 43.8927C51.9157 44.2589 52.4154 44.4647 52.9364 44.4647H53.1034C53.4195 44.4659 53.7283 44.559 53.9919 44.7325C54.2554 44.906 54.4622 45.1523 54.5867 45.4411C54.7174 45.7356 54.7564 46.0623 54.6987 46.379C54.6409 46.6958 54.489 46.9881 54.2625 47.2182L54.2036 47.2768C54.0209 47.4581 53.876 47.6735 53.7772 47.9106C53.6783 48.1477 53.6274 48.4018 53.6274 48.6584C53.6274 48.915 53.6783 49.1692 53.7772 49.4062C53.876 49.6433 54.0209 49.8587 54.2036 50.04C54.386 50.2216 54.6027 50.3657 54.8412 50.4639C55.0797 50.5622 55.3353 50.6128 55.5935 50.6128C55.8517 50.6128 56.1073 50.5622 56.3458 50.4639C56.5843 50.3657 56.801 50.2216 56.9834 50.04L57.0424 49.9815C57.2739 49.7564 57.5679 49.6054 57.8866 49.5479C58.2052 49.4905 58.5339 49.5293 58.8301 49.6592C59.1354 49.7708 59.3998 49.9711 59.589 50.2341C59.7782 50.497 59.8834 50.8105 59.891 51.1336V51.2215C59.891 51.7395 60.098 52.2362 60.4664 52.6024C60.8348 52.9686 61.3345 53.1744 61.8556 53.1744C62.3766 53.1744 62.8763 52.9686 63.2447 52.6024C63.6132 52.2362 63.8201 51.7395 63.8201 51.2215V51.0555C63.8214 50.7413 63.9151 50.4344 64.0896 50.1724C64.2641 49.9104 64.5119 49.7049 64.8024 49.5811C65.0987 49.4512 65.4274 49.4124 65.746 49.4698C66.0647 49.5272 66.3587 49.6782 66.5902 49.9033L66.6491 49.9619C66.8316 50.1435 67.0483 50.2875 67.2867 50.3858C67.5252 50.4841 67.7809 50.5347 68.0391 50.5347C68.2972 50.5347 68.5529 50.4841 68.7914 50.3858C69.0299 50.2875 69.2465 50.1435 69.429 49.9619C69.6117 49.7806 69.7566 49.5652 69.8554 49.3281C69.9543 49.091 70.0052 48.8369 70.0052 48.5803C70.0052 48.3237 69.9543 48.0695 69.8554 47.8325C69.7566 47.5954 69.6117 47.38 69.429 47.1986L69.3701 47.1401C69.1436 46.9099 68.9917 46.6177 68.9339 46.3009ZM65.6111 42.6069C65.6111 44.6161 63.9725 46.2449 61.9513 46.2449C59.93 46.2449 58.2915 44.6161 58.2915 42.6069C58.2915 40.5977 59.93 38.9689 61.9513 38.9689C63.9725 38.9689 65.6111 40.5977 65.6111 42.6069Z" fill="url(#paint4_linear)"/>
<path fill-rule="evenodd" clip-rule="evenodd" d="M61.7773 32.3859C61.4412 32.3859 61.1188 32.5186 60.8811 32.7549C60.6434 32.9912 60.5099 33.3117 60.5099 33.6458V33.8146C60.5081 34.2639 60.3741 34.7029 60.1245 35.0775C59.8749 35.4522 59.5206 35.7461 59.1051 35.9231C59.0375 35.9519 58.966 35.9698 58.893 35.9763C58.5072 36.1165 58.0899 36.1525 57.6839 36.0793C57.2282 35.9972 56.8077 35.7813 56.4767 35.4593L56.4712 35.454L56.412 35.3951C56.2943 35.278 56.1545 35.185 56.0006 35.1216C55.8468 35.0582 55.6818 35.0256 55.5153 35.0256C55.3487 35.0256 55.1838 35.0582 55.0299 35.1216C54.876 35.185 54.7362 35.278 54.6185 35.3951L54.618 35.3957C54.5001 35.5127 54.4066 35.6516 54.3429 35.8046C54.2791 35.9575 54.2462 36.1215 54.2462 36.287C54.2462 36.4526 54.2791 36.6166 54.3429 36.7695C54.4066 36.9225 54.5001 37.0614 54.618 37.1784L54.6183 37.1787L54.6772 37.2373L54.6826 37.2427C55.0064 37.5718 55.2237 37.9898 55.3063 38.4428C55.3876 38.8886 55.3349 39.3481 55.155 39.7641C54.993 40.1893 54.708 40.5576 54.3357 40.8223C53.9574 41.0912 53.5064 41.2408 53.0415 41.2517C53.036 41.2518 53.0306 41.2518 53.0252 41.2518H52.9368C52.6006 41.2518 52.2782 41.3846 52.0405 41.6209C51.8028 41.8571 51.6693 42.1776 51.6693 42.5118C51.6693 42.8459 51.8028 43.1664 52.0405 43.4026C52.2782 43.6389 52.6006 43.7717 52.9368 43.7717H53.1065C53.5586 43.7735 54.0002 43.9066 54.3771 44.1547C54.753 44.4021 55.0481 44.7531 55.2263 45.1647C55.4121 45.585 55.4673 46.0509 55.3849 46.5026C55.3023 46.9556 55.085 47.3736 54.7612 47.7027L54.7558 47.7081L54.6968 47.7667L54.6966 47.767C54.5787 47.884 54.4852 48.0229 54.4214 48.1759C54.3577 48.3288 54.3248 48.4928 54.3248 48.6584C54.3248 48.8239 54.3577 48.9879 54.4214 49.1408C54.4852 49.2938 54.5787 49.4327 54.6966 49.5497L54.6971 49.5503C54.8148 49.6674 54.9546 49.7604 55.1085 49.8238C55.2623 49.8872 55.4273 49.9198 55.5938 49.9198C55.7604 49.9198 55.9253 49.8872 56.0792 49.8238C56.2331 49.7604 56.3729 49.6674 56.4906 49.5503L56.4908 49.55L56.5498 49.4914L56.5552 49.4861C56.8863 49.1641 57.3068 48.9482 57.7625 48.866C58.211 48.7852 58.6733 48.8376 59.0917 49.0165C59.5195 49.1775 59.89 49.4608 60.1563 49.8309C60.4269 50.2069 60.5774 50.6552 60.5882 51.1174C60.5884 51.1228 60.5884 51.1282 60.5884 51.1336V51.2215C60.5884 51.5556 60.722 51.8761 60.9597 52.1124C61.1974 52.3486 61.5198 52.4814 61.8559 52.4814C62.1921 52.4814 62.5144 52.3486 62.7521 52.1124C62.9898 51.8761 63.1234 51.5556 63.1234 51.2215V51.0555L63.1234 51.0527C63.1252 50.6034 63.2591 50.1644 63.5087 49.7897C63.7576 49.4161 64.1108 49.1227 64.5248 48.9456C64.9476 48.7609 65.4163 48.706 65.8707 48.7879C66.3264 48.8701 66.7469 49.086 67.078 49.4079L67.0834 49.4133L67.1427 49.4722C67.2604 49.5893 67.4002 49.6822 67.554 49.7456C67.7079 49.8091 67.8728 49.8417 68.0394 49.8417C68.2059 49.8417 68.3709 49.8091 68.5247 49.7456C68.6786 49.6822 68.8184 49.5893 68.9361 49.4722L68.9367 49.4716C69.0545 49.3546 69.148 49.2157 69.2118 49.0627C69.2756 48.9098 69.3084 48.7458 69.3084 48.5802C69.3084 48.4147 69.2756 48.2507 69.2118 48.0978C69.148 47.9448 69.0545 47.8059 68.9367 47.6889L68.8775 47.63L68.872 47.6246C68.5482 47.2955 68.331 46.8775 68.2483 46.4245C68.1659 45.9728 68.2212 45.5069 68.4069 45.0866C68.5851 44.6751 68.8802 44.324 69.2561 44.0766C69.633 43.8285 70.0747 43.6953 70.5267 43.6936L70.5295 43.6935L70.6179 43.6935C70.954 43.6935 71.2764 43.5608 71.5141 43.3245C71.7518 43.0882 71.8853 42.7678 71.8853 42.4336C71.8853 42.0995 71.7518 41.779 71.5141 41.5428C71.2764 41.3065 70.954 41.1737 70.6179 41.1737H70.4509L70.4481 41.1737C69.9961 41.1719 69.5544 41.0388 69.1775 40.7907C68.8007 40.5426 68.505 40.1903 68.3269 39.7773C68.298 39.7102 68.2799 39.639 68.2734 39.5665C68.1324 39.183 68.0961 38.7682 68.1697 38.3647C68.2524 37.9117 68.4696 37.4937 68.7935 37.1646L68.7989 37.1592L68.8581 37.1003C68.9759 36.9833 69.0694 36.8443 69.1332 36.6914C69.197 36.5384 69.2298 36.3745 69.2298 36.2089C69.2298 36.0434 69.197 35.8794 69.1332 35.7265C69.0694 35.5735 68.9759 35.4346 68.8581 35.3175L68.8575 35.317C68.7398 35.1998 68.6 35.1069 68.4462 35.0435C68.2923 34.9801 68.1274 34.9475 67.9608 34.9475C67.7942 34.9475 67.6293 34.9801 67.4754 35.0435C67.3216 35.1069 67.1818 35.1999 67.0641 35.317L67.0638 35.3173L67.0049 35.3759L66.9994 35.3812C66.6683 35.7031 66.2478 35.9191 65.7921 36.0012C65.3377 36.0831 64.869 36.0282 64.4462 35.8436C64.0322 35.6664 63.679 35.3731 63.4301 34.9994C63.1805 34.6248 63.0466 34.1858 63.0448 33.7364L63.0448 33.7337V33.6458C63.0448 33.3117 62.9113 32.9912 62.6736 32.7549C62.4359 32.5186 62.1135 32.3859 61.7773 32.3859ZM59.8952 31.7749C60.3944 31.2788 61.0714 31 61.7773 31C62.4832 31 63.1602 31.2788 63.6594 31.7749C64.1586 32.2711 64.439 32.9441 64.439 33.6458V33.7321C64.4399 33.9107 64.4933 34.0852 64.5925 34.2342C64.692 34.3835 64.8332 34.5006 64.9988 34.5712L65.0056 34.5741C65.1745 34.6482 65.3618 34.6703 65.5434 34.6376C65.7239 34.605 65.8905 34.5198 66.0221 34.3928L66.0777 34.3376C66.0778 34.3375 66.0779 34.3374 66.0779 34.3373C66.3251 34.0914 66.6185 33.8964 66.9415 33.7633C67.2647 33.6301 67.611 33.5616 67.9608 33.5616C68.3106 33.5616 68.6569 33.6301 68.9801 33.7633C69.303 33.8963 69.5963 34.0913 69.8434 34.337C70.0909 34.5827 70.2872 34.8745 70.4211 35.1957C70.5551 35.5169 70.624 35.8612 70.624 36.2089C70.624 36.5566 70.5551 36.9009 70.4211 37.2221C70.2872 37.5433 70.0909 37.8351 69.8434 38.0808L69.7878 38.1361C69.66 38.2669 69.5743 38.4325 69.5416 38.6119C69.5087 38.7924 69.5309 38.9786 69.6054 39.1465C69.6314 39.205 69.649 39.2666 69.6579 39.3296C69.7291 39.4519 69.828 39.5567 69.9474 39.6352C70.0972 39.7339 70.2728 39.7869 70.4525 39.7878H70.6179C71.3238 39.7878 72.0008 40.0666 72.5 40.5628C72.9991 41.059 73.2796 41.7319 73.2796 42.4336C73.2796 43.1354 72.9991 43.8083 72.5 44.3045C72.0008 44.8007 71.3238 45.0794 70.6179 45.0794H70.5311C70.3514 45.0804 70.1758 45.1334 70.0259 45.2321C69.8758 45.3309 69.7579 45.4713 69.687 45.6359L69.684 45.6427C69.6095 45.8105 69.5872 45.9967 69.6202 46.1772C69.6529 46.3567 69.7386 46.5223 69.8664 46.6531L69.922 46.7083C70.1694 46.9541 70.3658 47.2459 70.4997 47.5671C70.6337 47.8883 70.7026 48.2325 70.7026 48.5802C70.7026 48.9279 70.6337 49.2722 70.4997 49.5934C70.3658 49.9145 70.1696 50.2062 69.9222 50.4519C69.6751 50.6977 69.3817 50.8928 69.0586 51.0259C68.7355 51.159 68.3892 51.2276 68.0394 51.2276C67.6896 51.2276 67.3432 51.159 67.0201 51.0259C66.697 50.8928 66.4034 50.6976 66.1563 50.4516L66.1007 50.3964C65.9691 50.2694 65.8025 50.1841 65.622 50.1516C65.4404 50.1189 65.2531 50.141 65.0842 50.215L65.0774 50.218C64.9118 50.2885 64.7706 50.4057 64.6711 50.555C64.5719 50.7039 64.5185 50.8784 64.5176 51.0571V51.2215C64.5176 51.9232 64.2372 52.5962 63.738 53.0923C63.2388 53.5885 62.5618 53.8673 61.8559 53.8673C61.15 53.8673 60.473 53.5885 59.9738 53.0923C59.4747 52.5962 59.1942 51.9232 59.1942 51.2215V51.1428C59.1886 50.9611 59.1287 50.7851 59.0223 50.6371C58.9145 50.4873 58.7638 50.3731 58.5898 50.3096C58.5761 50.3045 58.5624 50.299 58.549 50.2931C58.3802 50.2191 58.1929 50.197 58.0113 50.2297C57.8308 50.2622 57.6641 50.3475 57.5326 50.4745L57.477 50.5297C57.2298 50.7757 56.9362 50.9709 56.6131 51.104C56.29 51.2372 55.9436 51.3057 55.5938 51.3057C55.2441 51.3057 54.8977 51.2372 54.5746 51.104C54.2515 50.9709 53.9579 50.7757 53.7107 50.5297C53.4635 50.2841 53.2674 49.9925 53.1335 49.6715C52.9996 49.3503 52.9306 49.0061 52.9306 48.6584C52.9306 48.3107 52.9996 47.9664 53.1335 47.6452C53.2674 47.3241 53.4636 47.0324 53.711 46.7867C53.7111 46.7866 53.7112 46.7865 53.7113 46.7865L53.7668 46.7312C53.8946 46.6004 53.9803 46.4348 54.0131 46.2553C54.046 46.0748 54.0238 45.8887 53.9492 45.7208L53.9463 45.714C53.8753 45.5494 53.7575 45.4091 53.6073 45.3102C53.4574 45.2115 53.2819 45.1585 53.1021 45.1576H52.9368C52.2308 45.1576 51.5538 44.8788 51.0547 44.3826C50.5555 43.8864 50.2751 43.2135 50.2751 42.5118C50.2751 41.81 50.5555 41.1371 51.0547 40.6409C51.5538 40.1447 52.2308 39.866 52.9368 39.866H53.0159C53.1987 39.8603 53.3758 39.8009 53.5246 39.695C53.6754 39.5879 53.7902 39.4381 53.8542 39.2652C53.8592 39.2515 53.8647 39.2379 53.8707 39.2246C53.9452 39.0567 53.9674 38.8706 53.9345 38.69C53.9018 38.5106 53.816 38.345 53.6882 38.2142L53.6327 38.1589C53.3852 37.9132 53.1889 37.6214 53.0549 37.3002C52.921 36.979 52.852 36.6347 52.852 36.287C52.852 35.9393 52.921 35.595 53.0549 35.2739C53.1889 34.9527 53.3852 34.6609 53.6327 34.4151C53.8798 34.1694 54.1731 33.9744 54.496 33.8414C54.8191 33.7082 55.1655 33.6397 55.5153 33.6397C55.865 33.6397 56.2114 33.7082 56.5345 33.8414C56.8576 33.9745 57.1512 34.1697 57.3984 34.4157L57.454 34.4709C57.5855 34.5979 57.7522 34.6831 57.9327 34.7157C58.1143 34.7484 58.3016 34.7263 58.4704 34.6522C58.5293 34.6264 58.5913 34.6089 58.6547 34.6C58.7777 34.5292 58.8831 34.4309 58.9621 34.3123C59.0613 34.1634 59.1147 33.9888 59.1156 33.8102V33.6458C59.1156 32.9441 59.3961 32.2711 59.8952 31.7749ZM69.9222 50.4519C69.9222 50.452 69.9221 50.4521 69.922 50.4521L69.4293 49.9619L69.9225 50.4516C69.9224 50.4517 69.9223 50.4518 69.9222 50.4519ZM57.5947 42.6069C57.5947 40.215 59.5453 38.276 61.9516 38.276C64.3579 38.276 66.3085 40.215 66.3085 42.6069C66.3085 44.9988 64.3579 46.9378 61.9516 46.9378C59.5453 46.9378 57.5947 44.9988 57.5947 42.6069ZM61.9516 39.6618C60.3153 39.6618 58.9889 40.9804 58.9889 42.6069C58.9889 44.2334 60.3153 45.5519 61.9516 45.5519C63.5879 45.5519 64.9143 44.2334 64.9143 42.6069C64.9143 40.9804 63.5879 39.6618 61.9516 39.6618Z" fill="#31305B"/>
<path d="M56.616 88.3328C56.1103 92.2578 55.8574 94.2204 54.5984 95.4743C54.4391 95.6329 54.2697 95.7811 54.0912 95.918C52.6801 97 50.6897 97 46.7088 97L45.0828 97C41.0498 97 39.0333 97 37.6144 95.8976C37.435 95.7583 37.265 95.6074 37.1055 95.446C35.8431 94.1694 35.615 92.1778 35.1587 88.1945C34.5976 83.2951 34.317 80.8454 35.5985 79.1812C35.7584 78.9735 35.9338 78.7781 36.1233 78.5967C37.6419 77.1428 40.1222 77.1428 45.0828 77.1428L46.7088 77.1428C51.733 77.1428 54.245 77.1428 55.7681 78.6198C55.958 78.8039 56.1335 79.0022 56.2932 79.2128C57.5735 80.9022 57.2543 83.379 56.616 88.3328Z" fill="url(#paint5_linear)"/>
<path fill-rule="evenodd" clip-rule="evenodd" d="M45.0828 95.6141L46.7088 95.6141C48.7324 95.6141 50.1302 95.6119 51.2028 95.4881C52.2423 95.3681 52.8121 95.1484 53.2397 94.8206C53.3706 94.7202 53.4948 94.6115 53.6116 94.4952C53.9931 94.1153 54.2846 93.5814 54.5364 92.5717C54.7963 91.5299 54.976 90.1519 55.2331 88.1567C55.5571 85.6425 55.7803 83.8889 55.7799 82.5491C55.7794 81.241 55.5605 80.5493 55.1796 80.0467C55.0625 79.8922 54.9338 79.7469 54.7946 79.6118C54.3414 79.1724 53.679 78.8686 52.3738 78.702C51.0369 78.5314 49.2587 78.5287 46.7088 78.5287L45.0828 78.5287C42.5648 78.5287 40.81 78.5314 39.4891 78.6992C38.2001 78.863 37.5428 79.1618 37.0905 79.5949C36.9515 79.7279 36.8229 79.8712 36.7056 80.0235C36.3239 80.5192 36.0996 81.2022 36.0817 82.4938C36.0633 83.8174 36.2592 85.5509 36.544 88.0378C36.7759 90.0624 36.9384 91.4614 37.1874 92.5196C37.4288 93.5456 37.7176 94.0881 38.0998 94.4745C38.2168 94.5929 38.3415 94.7035 38.473 94.8057C38.9025 95.1394 39.4774 95.3633 40.5302 95.4857C41.6161 95.6119 43.0329 95.6141 45.0828 95.6141ZM54.5984 95.4743C55.8574 94.2204 56.1103 92.2578 56.616 88.3328C57.2543 83.379 57.5735 80.9022 56.2932 79.2128C56.1335 79.0022 55.958 78.8039 55.7681 78.6198C54.245 77.1428 51.733 77.1428 46.7088 77.1428L45.0828 77.1428C40.1222 77.1428 37.6419 77.1428 36.1233 78.5967C35.9338 78.7781 35.7584 78.9735 35.5985 79.1812C34.317 80.8454 34.5976 83.2951 35.1587 88.1945C35.615 92.1778 35.8431 94.1694 37.1055 95.446C37.265 95.6074 37.435 95.7583 37.6144 95.8976C39.0333 97 41.0498 97 45.0828 97L46.7088 97C50.6897 97 52.6801 97 54.0912 95.918C54.2697 95.7811 54.4391 95.6329 54.5984 95.4743Z" fill="#31305B"/>
<path d="M42.8453 84.9009L45.9752 82.5674C42.9705 82.5674 43.3148 79.7673 43.3148 77.9005H41.4368C40.3413 83.1897 42.2193 84.1231 42.8453 84.9009Z" fill="white"/>
<path fill-rule="evenodd" clip-rule="evenodd" d="M41.0955 77.8295C41.1289 77.6684 41.2715 77.5529 41.4369 77.5529H43.3149C43.5074 77.5529 43.6635 77.708 43.6635 77.8993C43.6635 78.0801 43.6605 78.2619 43.6575 78.4457C43.6525 78.7588 43.6473 79.0776 43.6565 79.4065C43.6708 79.9197 43.7204 80.4083 43.8514 80.8308C43.9813 81.2495 44.186 81.5868 44.5015 81.8226C44.8167 82.0582 45.279 82.2198 45.9754 82.2198C46.1254 82.2198 46.2586 82.3152 46.306 82.4567C46.3535 82.5982 46.3045 82.754 46.1845 82.8434L43.0546 85.1769C42.9039 85.2892 42.6909 85.2623 42.5732 85.1162C42.5165 85.0457 42.4336 84.962 42.3342 84.8619C42.0085 84.5335 41.5065 84.0274 41.1733 83.2232C40.7266 82.1448 40.5398 80.5126 41.0955 77.8295ZM41.723 78.2458C41.2535 80.6808 41.4565 82.0869 41.8179 82.9594C42.0931 83.6237 42.4405 83.9742 42.7561 84.2927C42.8024 84.3394 42.8479 84.3854 42.8925 84.4315L45.0593 82.8161C44.6772 82.7274 44.3534 82.5789 44.0826 82.3765C43.6176 82.029 43.3449 81.5496 43.1853 81.0349C43.0268 80.524 42.9747 79.9625 42.9597 79.4257C42.9501 79.0851 42.9557 78.7339 42.9608 78.4083C42.9617 78.3534 42.9625 78.2991 42.9633 78.2458H41.723Z" fill="#31305B"/>
<path d="M48.948 84.9008L45.8189 82.5155C48.8228 82.5155 48.4786 79.6531 48.4786 77.7449H50.3561C51.4512 83.1516 49.5738 84.1057 48.948 84.9008Z" fill="white"/>
<path fill-rule="evenodd" clip-rule="evenodd" d="M50.6976 77.6765C50.6648 77.5148 50.5219 77.3984 50.3559 77.3984H48.4785C48.286 77.3984 48.1299 77.5536 48.1299 77.7449C48.1299 77.9292 48.1329 78.1149 48.1358 78.3026C48.1409 78.623 48.1461 78.9495 48.1369 79.286C48.1225 79.8111 48.0729 80.3122 47.9414 80.7458C47.8108 81.1762 47.6051 81.5224 47.2892 81.7638C46.9744 82.0044 46.5133 82.1691 45.8188 82.1691C45.6694 82.1691 45.5367 82.2637 45.4887 82.4042C45.4407 82.5448 45.4882 82.7002 45.6067 82.7905L48.7357 85.1758C48.8874 85.2915 49.1045 85.2641 49.2223 85.1144C49.2796 85.0417 49.363 84.9557 49.4627 84.8529C49.7884 84.5171 50.2883 84.0017 50.6206 83.1817C51.0658 82.0827 51.2528 80.4176 50.6976 77.6765ZM50.0686 78.0914C50.5395 80.5853 50.3368 82.0271 49.9739 82.9228C49.6981 83.6037 49.3492 83.9637 49.0334 84.2896C48.9883 84.3362 48.9438 84.382 48.9003 84.428L46.7209 82.7666C47.1104 82.6762 47.4395 82.523 47.7141 82.3132C48.1784 81.9583 48.4499 81.4696 48.6088 80.9459C48.7667 80.4254 48.8188 79.853 48.8337 79.3048C48.8432 78.9569 48.8377 78.5987 48.8326 78.2661C48.8317 78.207 48.8308 78.1487 48.83 78.0914H50.0686Z" fill="#31305B"/>
<path d="M58.3133 66.1411C59.0978 75.2928 52.8589 76.9079 46.1306 76.9079C39.4023 76.9079 33.2451 75.0237 33.948 66.1411C34.5017 59.1427 38.1011 52.4814 46.1306 52.4814C54.437 52.4814 57.7595 59.681 58.3133 66.1411Z" fill="url(#paint6_linear)"/>
<path fill-rule="evenodd" clip-rule="evenodd" d="M54.2583 73.8083C56.0337 72.615 57.2859 70.4797 56.9241 66.2587C56.6611 63.1898 55.7447 60.0488 54.0079 57.7123C52.3127 55.4318 49.809 53.8673 46.1306 53.8673C42.5629 53.8673 40.0576 55.3216 38.3395 57.5338C36.5821 59.7966 35.6009 62.925 35.3379 66.2497C35.0154 70.3254 36.2568 72.4816 38.0475 73.7168C39.9761 75.0472 42.8339 75.522 46.1306 75.522C49.4543 75.522 52.3257 75.1073 54.2583 73.8083ZM46.1306 76.9079C52.8589 76.9079 59.0978 75.2928 58.3133 66.1411C57.7595 59.681 54.437 52.4814 46.1306 52.4814C38.1011 52.4814 34.5017 59.1427 33.948 66.1411C33.2451 75.0237 39.4023 76.9079 46.1306 76.9079Z" fill="#31305B"/>
<path d="M43.2367 75.061C43.2367 73.5575 44.4628 72.3386 45.9754 72.3386C47.4879 72.3386 48.7141 73.5575 48.7141 75.061V80.1854C48.7141 81.6889 47.4879 82.9078 45.9754 82.9078C44.4628 82.9078 43.2367 81.6889 43.2367 80.1854V75.061Z" fill="url(#paint7_linear)"/>
<path fill-rule="evenodd" clip-rule="evenodd" d="M47.3198 80.1854V75.061C47.3198 74.3229 46.7179 73.7245 45.9754 73.7245C45.2328 73.7245 44.6309 74.3229 44.6309 75.061V80.1854C44.6309 80.9235 45.2328 81.5219 45.9754 81.5219C46.7179 81.5219 47.3198 80.9235 47.3198 80.1854ZM45.9754 72.3386C44.4628 72.3386 43.2367 73.5575 43.2367 75.061V80.1854C43.2367 81.6889 44.4628 82.9078 45.9754 82.9078C47.4879 82.9078 48.7141 81.6889 48.7141 80.1854V75.061C48.7141 73.5575 47.4879 72.3386 45.9754 72.3386Z" fill="#31305B"/>
<path d="M39.2124 70.3032L38.9552 70.045C36.7337 69.0309 36.9735 67.2703 37.3885 66.4729L38.9552 65.9123L41.7843 64.3626L44.6134 61.5214L44.3562 62.5546L43.5846 63.846L45.6422 63.5877L48.2141 62.2963L50.0144 60.4883L51.3004 63.3295L53.1007 65.6541L54.901 66.4289L55.1582 68.2369L54.3866 69.5284L53.1007 70.3032L52.5863 71.5947L50.786 73.9193L48.7285 75.7273L45.8994 76.5022L43.5846 75.9856C42.8131 75.469 41.4758 74.126 41.27 73.9193L41.2699 73.9193C41.0642 73.7127 40.3269 72.8 39.984 72.3696L39.2124 70.3032Z" fill="url(#paint8_linear)"/>
<path d="M48.2458 63.8863C48.2458 63.7108 48.3889 63.5685 48.5654 63.5685H50.1639C50.3405 63.5685 50.4836 63.7108 50.4836 63.8863C50.4836 64.0618 50.3405 64.2041 50.1639 64.2041H48.5654C48.3889 64.2041 48.2458 64.0618 48.2458 63.8863Z" fill="#31305B"/>
<path fill-rule="evenodd" clip-rule="evenodd" d="M50.6384 59.7448L50.1438 58.2544L49.3696 59.6209L49.3694 59.6212L49.3694 59.6213L49.3692 59.6215L49.369 59.6219L49.3667 59.6259C49.3639 59.6307 49.359 59.639 49.3522 59.6504C49.3385 59.6733 49.3169 59.7088 49.2874 59.7554C49.2284 59.8485 49.1383 59.9851 49.0184 60.1511C48.7779 60.4839 48.4216 60.9295 47.9604 61.3784C47.2472 62.0729 46.3199 62.7408 45.2112 63.0496C45.41 62.0628 45.1977 61.3007 45.0837 60.8912L45.0836 60.8911C45.0754 60.8615 45.0676 60.8336 45.0606 60.8077L44.7059 59.5018L43.8469 60.5509C43.1981 61.3433 42.1094 62.5505 40.8127 63.504C39.4984 64.4704 38.087 65.0907 36.7591 64.9199C36.3773 64.8709 36.0277 65.1387 35.9784 65.5183C35.9405 65.809 36.0898 66.081 36.3334 66.2144C36.149 66.6234 36.0931 67.0768 36.1435 67.5143C36.2651 68.5698 37.0105 69.6172 38.2818 70.0338C39.6015 73.2159 41.7155 76.4234 45.7182 76.5597V76.5642C45.7635 76.5642 45.8084 76.5638 45.8532 76.5631C45.8967 76.5638 45.9405 76.5642 45.9844 76.5642V76.5599C50.0486 76.4296 52.2107 73.3158 53.5659 70.2024C54.8052 69.8406 55.6491 69.0066 55.9598 68.0537C56.1332 67.5221 56.133 66.9529 55.9411 66.4476C56.163 66.3062 56.2943 66.0452 56.2557 65.7687C56.2029 65.3896 55.8509 65.1249 55.4695 65.1774C54.3696 65.3289 53.3699 64.6547 52.4799 63.457C51.6066 62.2817 50.9826 60.7818 50.6384 59.7448ZM54.2101 66.4594C53.0231 66.1367 52.0703 65.2384 51.3585 64.2804C50.6934 63.3854 50.1697 62.3518 49.786 61.4359C49.5525 61.724 49.2685 62.0449 48.936 62.3685C47.8821 63.3946 46.2785 64.5091 44.2083 64.6071L43.0193 64.6634L43.5517 63.6051C43.7322 63.2462 43.8282 62.9196 43.8708 62.6254C43.2515 63.2777 42.4921 63.993 41.6418 64.6182C40.6816 65.3243 39.5513 65.9552 38.3403 66.2121L38.3504 66.2951C37.9976 66.3376 37.7981 66.4843 37.6836 66.6451C37.5608 66.8175 37.4951 67.0654 37.5286 67.3566C37.5952 67.9345 38.0472 68.5863 38.9457 68.7788L39.3096 68.8568L39.4468 69.2008C40.753 72.4752 42.5849 75.1086 45.8538 75.1769C49.2193 75.1093 51.0885 72.5218 52.416 69.348L52.5577 69.0092L52.9193 68.9353C53.9273 68.7293 54.466 68.1402 54.6335 67.6264C54.798 67.1221 54.6327 66.6975 54.1965 66.4872L54.2101 66.4594Z" fill="#31305B"/>
<path d="M50.0031 67.0539C50.0031 67.4961 49.6424 67.8546 49.1976 67.8546C48.7527 67.8546 48.3921 67.4961 48.3921 67.0539C48.3921 66.6117 48.7527 66.2532 49.1976 66.2532C49.6424 66.2532 50.0031 66.6117 50.0031 67.0539Z" fill="#31305B"/>
<path d="M81.3081 66.361C81.3081 66.8032 80.9474 67.1617 80.5026 67.1617C80.0577 67.1617 79.6971 66.8032 79.6971 66.361C79.6971 65.9188 80.0577 65.5603 80.5026 65.5603C80.9474 65.5603 81.3081 65.9188 81.3081 66.361Z" fill="#31305B"/>
<path d="M43.2364 67.0539C43.2364 67.4961 42.8758 67.8546 42.4309 67.8546C41.9861 67.8546 41.6254 67.4961 41.6254 67.0539C41.6254 66.6117 41.9861 66.2532 42.4309 66.2532C42.8758 66.2532 43.2364 66.6117 43.2364 67.0539Z" fill="#31305B"/>
<path d="M74.5419 66.361C74.5419 66.8032 74.1813 67.1617 73.7364 67.1617C73.2916 67.1617 72.9309 66.8032 72.9309 66.361C72.9309 65.9188 73.2916 65.5603 73.7364 65.5603C74.1813 65.5603 74.5419 65.9188 74.5419 66.361Z" fill="#31305B"/>
<path d="M43.881 70.7372H48.0696V71.2468C48.0696 72.2035 47.2893 72.9791 46.3268 72.9791H45.6237C44.6612 72.9791 43.881 72.2035 43.881 71.2468V70.7372Z" fill="white"/>
<path fill-rule="evenodd" clip-rule="evenodd" d="M43.5326 70.7372C43.5326 70.5459 43.6886 70.3907 43.8811 70.3907H48.0697C48.2622 70.3907 48.4183 70.5459 48.4183 70.7372V71.2468C48.4183 72.3949 47.482 73.3256 46.327 73.3256H45.6239C44.4689 73.3256 43.5326 72.3949 43.5326 71.2468V70.7372ZM44.2297 71.0837V71.2468C44.2297 72.0122 44.8539 72.6327 45.6239 72.6327H46.327C47.097 72.6327 47.7212 72.0122 47.7212 71.2468V71.0837H44.2297Z" fill="#31305B"/>
<defs>
<linearGradient id="paint0_linear" x1="76.953" y1="96.3931" x2="76.953" y2="76.6904" gradientUnits="userSpaceOnUse">
<stop stop-color="#8C337C"/>
<stop offset="1" stop-color="#A45E7E"/>
</linearGradient>
<linearGradient id="paint1_linear" x1="76.9977" y1="71.9236" x2="76.9977" y2="82.4105" gradientUnits="userSpaceOnUse">
<stop stop-color="#FFEEB1"/>
<stop offset="1" stop-color="#E79A79"/>
</linearGradient>
<linearGradient id="paint2_linear" x1="76.9785" y1="55.165" x2="76.9785" y2="75.0681" gradientUnits="userSpaceOnUse">
<stop stop-color="#FFEEB1"/>
<stop offset="1" stop-color="#E79A79"/>
</linearGradient>
<linearGradient id="paint3_linear" x1="77.3174" y1="49.2966" x2="76.1206" y2="62.9015" gradientUnits="userSpaceOnUse">
<stop stop-color="#BF8B65"/>
<stop offset="1" stop-color="#502100"/>
</linearGradient>
<linearGradient id="paint4_linear" x1="61.777" y1="31.693" x2="61.777" y2="53.1744" gradientUnits="userSpaceOnUse">
<stop stop-color="#C4C4C4"/>
<stop offset="1" stop-color="#9F9F9F"/>
</linearGradient>
<linearGradient id="paint5_linear" x1="45.6787" y1="79.3214" x2="47.4465" y2="97" gradientUnits="userSpaceOnUse">
<stop stop-color="#F66281"/>
<stop offset="1" stop-color="#E83979"/>
</linearGradient>
<linearGradient id="paint6_linear" x1="46.1366" y1="45.2117" x2="43.2413" y2="70.5845" gradientUnits="userSpaceOnUse">
<stop stop-color="#BF8B65"/>
<stop offset="1" stop-color="#502100"/>
</linearGradient>
<linearGradient id="paint7_linear" x1="45.9754" y1="72.3386" x2="45.9754" y2="82.9078" gradientUnits="userSpaceOnUse">
<stop stop-color="#FFEEB1"/>
<stop offset="1" stop-color="#E79A79"/>
</linearGradient>
<linearGradient id="paint8_linear" x1="46.1366" y1="60.4883" x2="46.1366" y2="76.5022" gradientUnits="userSpaceOnUse">
<stop stop-color="#FFEEB1"/>
<stop offset="1" stop-color="#E79A79"/>
</linearGradient>
</defs>
</svg>
