<svg width="122" height="122" viewBox="0 0 122 122" fill="none" xmlns="http://www.w3.org/2000/svg">
<path d="M26.7841 49.5775C28.5806 50.7324 30.0919 52.6001 30.1365 54.819C30.4466 58.2694 27.5416 61.5843 24.0876 61.7519C20.4109 62.1279 16.8839 58.6864 17.1583 54.9937C17.2296 51.857 19.9065 49.0375 23.0343 48.7898C24.3122 48.6882 25.6738 48.8949 26.7841 49.5775Z" fill="#F0F0F0"/>
<path d="M98.157 28.5374C98.901 29.0634 99.5287 29.737 100.001 30.5161C100.474 31.2952 100.781 32.1631 100.903 33.066C101.092 34.9658 100.494 36.9726 99.1052 38.3253C91.6056 45.7964 84.1345 53.296 76.6492 60.7813C75.4176 62.1162 73.8956 63.2141 72.9778 64.8092C72.2631 66.2795 71.8176 67.9976 72.272 69.614C72.4689 70.4719 72.8447 71.2786 73.3747 71.9813C73.9048 72.684 74.5773 73.2669 75.3481 73.6918C77.7987 75.13 81.1475 74.6649 83.1347 72.642C86.2446 69.5641 89.3225 66.4542 92.4165 63.3602C93.6337 62.1929 94.6942 60.8366 96.1502 59.9473C97.5211 59.2026 99.1149 58.9785 100.638 59.3164C102.662 59.7156 104.356 61.1984 105.286 63.0056C105.953 64.6723 105.986 66.526 105.377 68.215C104.723 69.582 103.546 70.5978 102.484 71.6458C94.8801 79.2499 87.276 86.8541 79.6718 94.4582C77.8254 96.0765 75.0434 96.4062 72.8209 95.4064C71.4112 94.9234 70.4773 93.7008 69.228 92.9398C67.1891 91.8954 64.58 91.9774 62.7015 93.3354C61.5395 94.1232 60.6537 95.2085 59.645 96.1888C55.6611 100.173 51.6779 104.156 47.6952 108.139C46.0734 109.849 43.498 110.468 41.2489 109.833C37.9749 108.998 35.7935 105.308 36.7131 102.043C37.0482 100.311 38.3528 99.0314 39.5878 97.8783C42.083 95.3832 44.5781 92.8881 47.0732 90.393C48.2655 89.1329 49.6859 88.0583 50.5699 86.5398C51.4788 84.8609 51.5359 82.8221 50.9584 81.0256C49.7697 78.1045 46.3229 76.194 43.2378 77.119C41.903 77.4309 40.8015 78.297 39.8409 79.2363C38.0373 81.1218 36.1517 82.9255 34.3499 84.795C33.0061 86.1673 31.0724 87.0032 29.1422 86.8125C28.1894 86.7346 27.2646 86.452 26.431 85.9838C25.5975 85.5157 24.8748 84.8731 24.3124 84.0999C23.1255 82.6635 22.9098 80.6513 23.2128 78.8691C23.4908 77.037 24.9932 75.7627 26.2461 74.5348C39.4346 61.3463 52.623 48.1579 65.8115 34.9694C66.8131 33.9429 67.7862 32.8414 69.0605 32.1588C70.6395 31.4816 72.4627 31.519 74.0845 32.0323C76.1091 32.7202 77.0573 34.9837 79.0819 35.6823C80.7501 36.4344 82.8852 36.192 84.2022 34.8714C86.1128 32.9609 87.9948 31.0218 89.9321 29.1415C92.0743 27.01 95.7243 26.7997 98.157 28.5374Z" fill="#F0F0F0"/>
<path d="M69.2486 83.7457C68.1278 79.52 71.3136 75.3789 75.6854 75.3789H84.497C88.8216 75.3789 91.999 79.4365 90.9622 83.6349L89.9755 87.6306C89.2412 90.6041 86.5732 92.6934 83.5103 92.6934H76.7452C73.7249 92.6934 71.0828 90.6607 70.3084 87.7413L69.2486 83.7457Z" fill="#5A5A5A"/>
<path fill-rule="evenodd" clip-rule="evenodd" d="M84.497 76.7108H75.6854C72.188 76.7108 69.6393 80.0237 70.5359 83.4042L71.5958 87.3998C72.2152 89.7353 74.329 91.3615 76.7452 91.3615H83.5103C85.9606 91.3615 88.095 89.6901 88.6825 87.3112L89.6692 83.3156C90.4986 79.9569 87.9567 76.7108 84.497 76.7108ZM75.6854 75.3789C71.3136 75.3789 68.1278 79.52 69.2486 83.7457L70.3084 87.7413C71.0828 90.6607 73.7249 92.6934 76.7452 92.6934H83.5103C86.5732 92.6934 89.2412 90.6041 89.9755 87.6306L90.9622 83.6349C91.999 79.4365 88.8216 75.3789 84.497 75.3789H75.6854Z" fill="#31305B"/>
<path d="M87.5346 81.9744C87.3299 84.0592 87.2276 85.1016 86.8214 85.9212C86.2615 87.0507 85.2953 87.9268 84.1164 88.3736C83.2611 88.6978 82.2136 88.6978 80.1188 88.6978V88.6978C78.0032 88.6978 76.9453 88.6978 76.0844 88.3688C74.8979 87.9155 73.9287 87.0272 73.374 85.8846C72.9714 85.0556 72.8795 84.0017 72.6955 81.8941L72.4252 78.797C72.1845 76.0388 72.0642 74.6597 72.4813 73.5796C72.9344 72.4063 73.8135 71.4472 74.9428 70.8938C75.9826 70.3844 77.367 70.3844 80.1357 70.3844V70.3844C82.9314 70.3844 84.3293 70.3844 85.3746 70.9004C86.5098 71.4609 87.3899 72.4316 87.8367 73.6162C88.2482 74.7068 88.1116 76.098 87.8384 78.8804L87.5346 81.9744Z" fill="url(#paint0_linear)"/>
<path fill-rule="evenodd" clip-rule="evenodd" d="M73.7521 78.6812L74.0224 81.7783C74.2166 84.0036 74.3037 84.75 74.5721 85.3029C74.9789 86.1408 75.6897 86.7922 76.5598 87.1247C77.1339 87.344 77.8851 87.3659 80.1188 87.3659C82.3304 87.3659 83.0739 87.3444 83.6444 87.1281C84.5089 86.8005 85.2175 86.158 85.628 85.3297C85.899 84.7831 85.993 84.0453 86.2091 81.8442L86.5129 78.7502C86.6515 77.3381 86.7471 76.355 86.7627 75.5869C86.778 74.831 86.7104 74.404 86.5906 74.0862C86.2629 73.2175 85.6175 72.5057 84.785 72.0947C84.4804 71.9443 84.0621 71.8354 83.3083 71.7767C82.5424 71.7172 81.5546 71.7163 80.1357 71.7163C78.7304 71.7163 77.7525 71.7172 76.9938 71.776C76.2474 71.8338 75.8322 71.9413 75.5289 72.0899C74.7007 72.4957 74.056 73.199 73.7238 74.0594C73.6021 74.3744 73.5311 74.7974 73.5384 75.546C73.5458 76.307 73.6299 77.2813 73.7521 78.6812ZM86.8214 85.9212C87.2276 85.1016 87.3299 84.0592 87.5346 81.9744L87.8384 78.8804C88.1116 76.098 88.2482 74.7068 87.8367 73.6162C87.3899 72.4316 86.5098 71.4609 85.3746 70.9004C84.3293 70.3844 82.9314 70.3844 80.1357 70.3844C77.367 70.3844 75.9826 70.3844 74.9428 70.8938C73.8135 71.4472 72.9344 72.4063 72.4813 73.5796C72.0642 74.6597 72.1845 76.0388 72.4252 78.797L72.6955 81.8941C72.8795 84.0017 72.9714 85.0556 73.374 85.8846C73.9287 87.0272 74.8979 87.9155 76.0844 88.3688C76.9453 88.6978 78.0032 88.6978 80.1188 88.6978C82.2136 88.6978 83.2611 88.6978 84.1164 88.3736C85.2953 87.9268 86.2615 87.0507 86.8214 85.9212Z" fill="#31305B"/>
<path d="M77.9803 75.6487L80.1792 73.9995C78.0683 73.9995 78.3101 72.0206 78.3101 70.7013H76.9908C76.2212 74.4393 77.5406 75.099 77.9803 75.6487Z" fill="white"/>
<path fill-rule="evenodd" clip-rule="evenodd" d="M76.6649 70.6341C76.6968 70.4793 76.8331 70.3683 76.9911 70.3683H78.3104C78.4943 70.3683 78.6433 70.5174 78.6433 70.7013C78.6433 70.832 78.6412 70.9617 78.6391 71.092C78.6356 71.3117 78.632 71.533 78.6384 71.7639C78.6484 72.1236 78.6829 72.4597 78.7715 72.747C78.859 73.0308 78.9942 73.2511 79.1969 73.4035C79.3993 73.5557 79.704 73.6665 80.1794 73.6665C80.3227 73.6665 80.4499 73.7583 80.4953 73.8942C80.5406 74.0302 80.4938 74.1799 80.3792 74.2659L78.1803 75.915C78.0365 76.0229 77.8329 75.9971 77.7205 75.8566C77.6865 75.8141 77.6336 75.7605 77.5685 75.6946C77.3416 75.465 76.9665 75.0852 76.7244 74.4973C76.4015 73.7131 76.2725 72.5402 76.6649 70.6341ZM77.2651 71.0342C76.9547 72.7008 77.0985 73.6568 77.3402 74.2438C77.5267 74.6967 77.7536 74.9267 77.9715 75.1476C77.9888 75.1652 78.0061 75.1828 78.0233 75.2003L79.3396 74.2131C79.1349 74.1472 78.9543 74.0543 78.7967 73.9358C78.4512 73.676 78.251 73.3191 78.1351 72.9432C78.0203 72.5709 77.9833 72.1648 77.9727 71.7824C77.966 71.5402 77.9699 71.2877 77.9736 71.0561C77.9737 71.0488 77.9738 71.0415 77.9739 71.0342H77.2651Z" fill="#31305B"/>
<path d="M82.2675 75.6488L80.0693 73.963C82.1796 73.963 81.9378 71.9401 81.9378 70.5914H83.2567C84.0261 74.4125 82.7072 75.0868 82.2675 75.6488Z" fill="white"/>
<path fill-rule="evenodd" clip-rule="evenodd" d="M83.5835 70.5257C83.5522 70.3702 83.4156 70.2584 83.257 70.2584H81.9381C81.7542 70.2584 81.6051 70.4075 81.6051 70.5914C81.6051 70.7246 81.6072 70.8569 81.6093 70.99C81.6129 71.2149 81.6165 71.4418 81.6101 71.6781C81.6001 72.0463 81.5655 72.3913 81.4764 72.6868C81.3883 72.9791 81.2521 73.2056 81.0489 73.3618C80.8468 73.5172 80.5433 73.63 80.0696 73.63C79.927 73.63 79.8002 73.7209 79.7543 73.856C79.7085 73.9911 79.7538 74.1403 79.867 74.2272L82.0652 75.9129C82.2101 76.0241 82.4175 75.9977 82.5301 75.8539C82.5646 75.8098 82.6179 75.7546 82.6834 75.6868C82.9104 75.4518 83.2835 75.0655 83.5247 74.4666C83.8462 73.6683 83.9754 72.4724 83.5835 70.5257ZM82.9819 70.9244C83.2936 72.6326 83.1501 73.6141 82.9069 74.2179C82.7198 74.6826 82.4916 74.9192 82.2733 75.1455C82.257 75.1624 82.2408 75.1792 82.2247 75.196L80.8974 74.1781C81.1082 74.1103 81.2936 74.0137 81.4548 73.8898C81.7998 73.6245 81.9988 73.2611 82.114 72.879C82.2283 72.5001 82.2652 72.0866 82.2758 71.6962C82.2825 71.4488 82.2785 71.1915 82.2749 70.9549C82.2748 70.9447 82.2746 70.9345 82.2745 70.9244H82.9819Z" fill="#31305B"/>
<path d="M88.8468 62.3906C89.3979 68.8584 85.0151 69.9998 80.2883 69.9998C75.5616 69.9998 71.2361 68.6682 71.7298 62.3906C72.1189 57.4446 74.6475 52.7369 80.2883 52.7369C86.1237 52.7369 88.4578 57.8251 88.8468 62.3906Z" fill="url(#paint1_linear)"/>
<path fill-rule="evenodd" clip-rule="evenodd" d="M86.1738 68.0689C87.5396 67.1454 88.4443 65.5105 88.1833 62.4471C87.9954 60.2418 87.3397 57.96 86.0744 56.2474C84.8288 54.5618 82.9792 53.4029 80.2883 53.4029C77.6815 53.4029 75.831 54.4784 74.5668 56.116C73.2838 57.7779 72.5817 60.0537 72.3937 62.4428C72.1607 65.4059 73.0603 67.0509 74.4311 68.0022C75.8678 68.9992 77.9572 69.3338 80.2883 69.3338C82.6324 69.3338 84.7329 69.0432 86.1738 68.0689ZM80.2883 69.9998C85.0151 69.9998 89.3979 68.8584 88.8468 62.3906C88.4578 57.8251 86.1237 52.7369 80.2883 52.7369C74.6475 52.7369 72.1189 57.4446 71.7298 62.3906C71.2361 68.6682 75.5616 69.9998 80.2883 69.9998Z" fill="#31305B"/>
<path d="M78.2554 68.6946C78.2554 67.632 79.1168 66.7706 80.1794 66.7706V66.7706C81.242 66.7706 82.1034 67.632 82.1034 68.6946V72.3162C82.1034 73.3788 81.242 74.2402 80.1794 74.2402V74.2402C79.1168 74.2402 78.2554 73.3788 78.2554 72.3162V68.6946Z" fill="url(#paint2_linear)"/>
<path fill-rule="evenodd" clip-rule="evenodd" d="M81.4374 72.3162V68.6946C81.4374 67.9998 80.8742 67.4366 80.1794 67.4366C79.4846 67.4366 78.9214 67.9998 78.9214 68.6946V72.3162C78.9214 73.011 79.4846 73.5742 80.1794 73.5742C80.8742 73.5742 81.4374 73.011 81.4374 72.3162ZM80.1794 66.7706C79.1168 66.7706 78.2554 67.632 78.2554 68.6946V72.3162C78.2554 73.3788 79.1168 74.2402 80.1794 74.2402C81.242 74.2402 82.1034 73.3788 82.1034 72.3162V68.6946C82.1034 67.632 81.242 66.7706 80.1794 66.7706Z" fill="#31305B"/>
<path d="M75.4281 65.3321L75.2474 65.1496C73.6868 64.4329 73.8553 63.1886 74.1468 62.6251L75.1874 61.8936L77.1852 60.8947L79.0417 58.8969V59.8559L78.8501 60.8947L79.9451 60.5861L81.7519 59.6734L83.0167 58.3956L83.9201 60.4036L85.1848 62.0464L86.4496 62.594L86.6302 63.8718L86.0882 64.7845L85.1765 64.8903L84.8435 66.0557L83.5587 67.8877L82.1133 69.1655L80.1819 69.2189L78.5171 69.0525C77.975 68.6874 77.0181 68.0337 76.8736 67.8877C76.729 67.7417 76.2111 67.0967 75.9702 66.7925L75.4281 65.3321Z" fill="url(#paint3_linear)"/>
<path d="M81.7742 60.7971C81.7742 60.6731 81.8748 60.5725 81.9988 60.5725H83.1217C83.2458 60.5725 83.3463 60.6731 83.3463 60.7971V60.7971C83.3463 60.9211 83.2458 61.0217 83.1217 61.0217H81.9988C81.8748 61.0217 81.7742 60.9211 81.7742 60.7971V60.7971Z" fill="#31305B"/>
<path fill-rule="evenodd" clip-rule="evenodd" d="M73.4714 63.3912C73.4113 62.6333 73.8579 61.8749 74.7493 61.5778L74.9599 62.2095C74.353 62.4118 74.0999 62.892 74.1353 63.3386C74.1706 63.7833 74.4995 64.2553 75.208 64.4081L75.3818 64.4455L75.4474 64.6108C76.3788 66.9597 77.7236 68.9343 80.1859 68.9343V69.6002C77.3288 69.6002 75.8341 67.3274 74.892 65.0147C74.0261 64.7626 73.528 64.104 73.4714 63.3912Z" fill="#31305B"/>
<path fill-rule="evenodd" clip-rule="evenodd" d="M87.0442 63.694C87.2654 63.0117 87.0475 62.251 86.3136 61.895L86.023 62.4942C86.4109 62.6823 86.5464 63.0701 86.4107 63.4887C86.2736 63.9117 85.8455 64.3634 85.0889 64.5189L84.9162 64.5544L84.8485 64.7172C83.9002 66.9979 82.5273 68.9342 79.9985 68.9342V69.6001C82.9035 69.6001 84.4314 67.3901 85.3971 65.1302C86.2626 64.899 86.838 64.3301 87.0442 63.694Z" fill="#31305B"/>
<path fill-rule="evenodd" clip-rule="evenodd" d="M83.0699 57.2031L83.3062 57.9193C83.5503 58.6594 83.995 59.7372 84.6226 60.5868C85.2582 61.4473 86.01 61.984 86.8705 61.8648C87.0526 61.8396 87.2208 61.9668 87.246 62.1489C87.2712 62.3311 87.144 62.4992 86.9619 62.5244C85.7284 62.6953 84.7663 61.9022 84.087 60.9825C83.5678 60.2797 83.1719 59.4501 82.8996 58.7539C82.7148 59.0009 82.4634 59.3049 82.1494 59.6124C81.4227 60.3241 80.3306 61.0833 78.9303 61.1499L78.3624 61.177L78.6167 60.6684C78.8482 60.2055 78.894 59.8105 78.8723 59.4903C78.4105 60.0128 77.7989 60.6331 77.0766 61.1657C76.0892 61.8936 74.8598 62.4829 73.5002 62.3923C73.3168 62.38 73.1779 62.2214 73.1902 62.0379C73.2024 61.8544 73.3611 61.7156 73.5445 61.7278C74.6822 61.8037 75.7562 61.3117 76.6814 60.6296C77.604 59.9495 78.3441 59.1056 78.8055 58.5388L79.2158 58.0347L79.3852 58.6622C79.3901 58.6806 79.3956 58.7002 79.4013 58.721C79.4893 59.0387 79.6557 59.6399 79.4288 60.4186C80.3571 60.2301 81.1191 59.6894 81.6834 59.1367C82.0153 58.8116 82.2714 58.4894 82.4443 58.2487C82.5305 58.1286 82.5956 58.0294 82.6386 57.9612C82.66 57.9271 82.6759 57.9008 82.6862 57.8835C82.6913 57.8749 82.695 57.8685 82.6973 57.8646L82.6998 57.8602L82.7 57.8599L83.0699 57.2031Z" fill="#31305B"/>
<path d="M83.009 63.0357C83.009 63.3482 82.7556 63.6016 82.4431 63.6016C82.1306 63.6016 81.8772 63.3482 81.8772 63.0357C81.8772 62.7232 82.1306 62.4698 82.4431 62.4698C82.7556 62.4698 83.009 62.7232 83.009 63.0357Z" fill="#31305B"/>
<path d="M78.2552 63.0357C78.2552 63.3482 78.0019 63.6016 77.6893 63.6016C77.3768 63.6016 77.1235 63.3482 77.1235 63.0357C77.1235 62.7232 77.3768 62.4698 77.6893 62.4698C78.0019 62.4698 78.2552 62.7232 78.2552 63.0357Z" fill="#31305B"/>
<path d="M78.7079 65.6388H81.6504V65.752C81.6504 66.5645 80.9917 67.2232 80.1791 67.2232V67.2232C79.3666 67.2232 78.7079 66.5645 78.7079 65.752V65.6388Z" fill="white"/>
<path fill-rule="evenodd" clip-rule="evenodd" d="M78.3751 65.6388C78.3751 65.4549 78.5242 65.3058 78.7081 65.3058H81.6506C81.8345 65.3058 81.9836 65.4549 81.9836 65.6388V65.7519C81.9836 66.7484 81.1758 67.5562 80.1794 67.5562C79.1829 67.5562 78.3751 66.7484 78.3751 65.7519V65.6388ZM79.0623 65.9717C79.1647 66.4952 79.6259 66.8902 80.1794 66.8902C80.7329 66.8902 81.1941 66.4952 81.2965 65.9717H79.0623Z" fill="#31305B"/>
<path d="M38.4752 61.8251C38.6237 60.9476 39.6508 60.7283 40.1458 60.7283L50.541 61.2767C51.036 60.9111 51.9518 60.582 51.6548 62.1907C51.3578 63.7994 50.4173 64.0797 49.9841 64.0188C49.6871 65.7738 48.1279 67.4312 47.3853 68.0406L47.1997 70.0515C45.4177 69.4665 43.4871 69.8077 42.7446 70.0515V68.0406C40.8141 67.1631 40.084 64.9938 39.9602 64.0188C38.2896 63.4704 38.2896 62.922 38.4752 61.8251Z" fill="url(#paint4_linear)"/>
<path fill-rule="evenodd" clip-rule="evenodd" d="M38.4943 61.1372C38.8293 60.7824 39.3377 60.6304 39.9676 60.7354L39.8581 61.3923C39.3941 61.3149 39.1277 61.4364 38.9784 61.5944C38.8187 61.7636 38.7349 62.0359 38.7632 62.3563C38.8207 63.0081 39.3099 63.6479 40.0951 63.6479H40.3965L40.4264 63.9477C40.5125 64.8091 40.7688 65.5282 41.2111 66.16C41.6554 66.7947 42.2991 67.3579 43.1834 67.8885L42.8408 68.4596C41.902 67.8963 41.1783 67.2745 40.6655 66.5419C40.2011 65.8785 39.9191 65.1377 39.7977 64.2931C38.7619 64.1458 38.1724 63.2371 38.0998 62.4149C38.0598 61.9605 38.1698 61.4808 38.4943 61.1372Z" fill="#31305B"/>
<path fill-rule="evenodd" clip-rule="evenodd" d="M51.7649 61.1306C51.4623 60.7537 50.9641 60.5486 50.3044 60.5486V61.2145C50.8296 61.2145 51.1063 61.374 51.2457 61.5476C51.3887 61.7257 51.441 61.9853 51.3811 62.2898C51.2569 62.9213 50.6983 63.5345 50.0248 63.5785L49.7723 63.595L49.7205 63.8427C49.2604 66.0467 48.3918 67.199 47.2562 67.6857L47.0544 67.7722V69.5705C46.2895 69.4199 44.9204 69.3193 43.1625 69.6013V67.8095H42.4965V70.3984L42.8909 70.3245C45.1818 69.8949 46.8 70.1524 47.282 70.3131L47.7203 70.4592V68.2044C48.9801 67.5765 49.8498 66.2754 50.3221 64.2093C51.2326 64.0254 51.8804 63.2024 52.0346 62.4183C52.1208 61.9796 52.0639 61.5029 51.7649 61.1306Z" fill="#31305B"/>
<path d="M39.5129 55.5849C38.1566 58.5017 38.8264 60.1424 39.5129 61.7831C40.0826 62.8769 40.6477 63.2415 41.0244 63.7883C41.3258 64.2259 41.7733 65.3683 41.7733 65.6113C43.85 67.4343 46.8639 66.7051 48.1778 65.6113C48.429 64.8214 48.5592 63.6061 49.5011 62.5123C50.2545 61.6372 51.3801 60.1424 51.3801 58.5017C51.008 54.1266 47.8639 53.0935 46.2942 52.8505C44.5988 52.5466 40.8691 52.6682 39.5129 55.5849Z" fill="url(#paint5_linear)"/>
<path fill-rule="evenodd" clip-rule="evenodd" d="M42.8634 53.3313C41.6106 53.6717 40.4385 54.3833 39.8145 55.7253C39.1566 57.1402 39.0003 58.2215 39.0783 59.1341C39.1566 60.0503 39.4717 60.8224 39.8143 61.6415C40.0816 62.1521 40.3461 62.4917 40.5911 62.7713C40.6581 62.8477 40.7276 62.9237 40.7976 63.0001C40.9741 63.193 41.1531 63.3886 41.2983 63.5994C41.4709 63.85 41.6692 64.2735 41.8204 64.6481C41.8975 64.8393 41.966 65.027 42.0159 65.1854C42.0408 65.2644 42.0621 65.3395 42.0775 65.406C42.0801 65.4168 42.0826 65.4281 42.085 65.4398C43.0243 66.2168 44.162 66.4562 45.2356 66.3731C46.3059 66.2902 47.2828 65.8884 47.8888 65.4163C47.9249 65.2926 47.9602 65.1537 47.9984 65.0029C48.1879 64.257 48.451 63.221 49.2484 62.295C50.0006 61.4215 51.0404 60.0165 51.0468 58.5156C50.8655 56.4228 50.0295 55.1593 49.076 54.385C48.11 53.6004 46.9957 53.296 46.2429 53.1795L46.2351 53.1782C45.4264 53.0332 44.121 52.9895 42.8634 53.3313ZM46.3487 52.522C45.4619 52.3637 44.0569 52.3169 42.6887 52.6886C41.3138 53.0622 39.9429 53.8698 39.2106 55.4445C38.5123 56.9464 38.3253 58.1438 38.4148 59.1908C38.5035 60.2295 38.8637 61.0948 39.2054 61.9115C39.209 61.9201 39.2129 61.9286 39.2172 61.9368C39.5174 62.5131 39.8181 62.8996 40.0903 63.2102C40.1815 63.3143 40.2642 63.4046 40.3404 63.4877C40.5009 63.6629 40.6319 63.8059 40.7499 63.9772C40.8787 64.1642 41.0548 64.5306 41.2028 64.8973C41.2752 65.0768 41.3374 65.2477 41.3808 65.3855C41.4025 65.4546 41.4185 65.5121 41.4288 65.5563C41.4382 65.5971 41.4397 65.614 41.44 65.6139C41.44 65.6139 41.44 65.613 41.44 65.6113C41.44 65.7071 41.4813 65.7983 41.5533 65.8615C42.6735 66.8449 44.0413 67.1335 45.287 67.0371C46.5255 66.9412 47.675 66.4629 48.3906 65.8672C48.4394 65.8265 48.4756 65.7727 48.4949 65.7122C48.5567 65.5177 48.6097 65.3115 48.6649 65.0968C48.8544 64.3596 49.0693 63.5236 49.7531 62.7295C50.5056 61.8556 51.7128 60.2769 51.7128 58.5017C51.7128 58.4922 51.7124 58.4828 51.7116 58.4735C51.5182 56.1996 50.5978 54.763 49.4959 53.8681C48.4061 52.983 47.1657 52.6489 46.3487 52.522Z" fill="#31305B"/>
<path d="M41.7104 70.7339L41.3907 72.5954C43.4889 72.7552 47.4846 72.7552 49.382 72.5954L49.0624 70.9031C48.4764 70.5646 47.1445 69.7185 45.2266 69.7185C43.5595 69.7185 42.1899 70.339 41.7104 70.7339Z" fill="white"/>
<path fill-rule="evenodd" clip-rule="evenodd" d="M42.0165 70.9196L41.7815 72.2884C43.7956 72.4128 47.1136 72.4134 48.9859 72.2909L48.7636 71.1143C48.1288 70.7438 46.9192 70.0514 45.2268 70.0514C43.7334 70.0514 42.5086 70.5738 42.0165 70.9196ZM41.4989 70.4768C42.0456 70.0266 43.4928 69.3855 45.2268 69.3855C47.1278 69.3855 48.483 70.1784 49.1204 70.5514C49.1593 70.5741 49.1956 70.5954 49.2291 70.6147L49.3614 70.6911L49.7779 72.8962L49.4102 72.9271C47.4933 73.0886 43.4797 73.0884 41.3656 72.9273L41.0008 72.8996L41.4034 70.5555L41.4989 70.4768Z" fill="#31305B"/>
<path d="M34.3984 88.0317H93.3342V92.6933H34.3984V88.0317Z" fill="#37A2F7"/>
<path fill-rule="evenodd" clip-rule="evenodd" d="M33.7324 88.0318C33.7324 87.664 34.0306 87.3658 34.3984 87.3658H93.3342C93.702 87.3658 94.0001 87.664 94.0001 88.0318V92.6934C94.0001 93.0612 93.702 93.3593 93.3342 93.3593H34.3984C34.0306 93.3593 33.7324 93.0612 33.7324 92.6934V88.0318ZM35.0643 88.6977V92.0274H92.6682V88.6977H35.0643Z" fill="#31305B"/>
<path fill-rule="evenodd" clip-rule="evenodd" d="M35.1771 82.4971L35.7215 89.1732C35.8851 91.1804 36.0042 92.6269 36.2289 93.7345C36.4505 94.8261 36.7603 95.5064 37.2524 96.0203C37.3768 96.1501 37.5091 96.2721 37.6486 96.3855C38.2007 96.8342 38.904 97.0877 40.01 97.2198C41.1322 97.3538 42.5836 97.3549 44.5974 97.3549C46.5061 97.3549 47.8804 97.3539 48.9478 97.2299C49.9993 97.1077 50.6757 96.8731 51.2165 96.4569C51.3535 96.3515 51.484 96.2381 51.6074 96.1171C52.0947 95.6393 52.421 95.0021 52.6881 93.9778C52.9592 92.938 53.1512 91.5772 53.4165 89.687L54.3511 83.0264C54.7137 80.4419 54.9747 78.5714 54.9795 77.1331C54.9843 75.7123 54.7361 74.8288 54.1771 74.1515C54.1299 74.0944 54.0814 74.0385 54.0314 73.9839C53.4383 73.3361 52.5979 72.9676 51.1902 72.7749C49.7652 72.5798 47.8765 72.5783 45.2667 72.5783L44.3201 72.5783C41.844 72.5783 40.0542 72.5797 38.6964 72.7623C37.3564 72.9425 36.5441 73.2873 35.9552 73.8952C35.9055 73.9465 35.857 73.9991 35.8098 74.0529C35.2518 74.6893 34.9742 75.5268 34.9035 76.8771C34.8318 78.2452 34.9759 80.0293 35.1771 82.4971ZM52.0736 96.5926C53.2868 95.403 53.5499 93.5285 54.0759 89.7795L55.0106 83.1189C55.7305 77.9886 56.0904 75.4234 54.6907 73.7276C54.6363 73.6617 54.5802 73.5972 54.5225 73.5342C53.0377 71.9124 50.4473 71.9124 45.2667 71.9124L44.3201 71.9124C39.4059 71.9124 36.9488 71.9124 35.4769 73.4318C35.4195 73.4911 35.3635 73.5518 35.3091 73.6138C33.9143 75.2043 34.114 77.6533 34.5134 82.5513L35.0577 89.2273C35.3824 93.2091 35.5447 95.1999 36.7714 96.4809C36.9149 96.6307 37.0676 96.7715 37.2286 96.9023C38.605 98.0209 40.6025 98.0209 44.5974 98.0209C48.3831 98.0209 50.276 98.0209 51.6226 96.9847C51.7806 96.8631 51.9312 96.7322 52.0736 96.5926Z" fill="#31305B"/>
<path fill-rule="evenodd" clip-rule="evenodd" d="M52.074 96.5926C53.2873 95.403 53.5503 93.5285 54.0764 89.7795L54.6602 85.6189C55.4643 86.7724 56.5651 87.9549 57.6985 87.9549H64.6996C66.1729 87.9549 66.1573 86.7762 66.1388 85.3749C66.137 85.2406 66.1352 85.1042 66.1347 84.9666C66.1304 83.8138 65.3442 83.1764 64.6996 83.1764L59.4506 82.5473L55.0428 74.2135L55.0399 74.2296C54.9384 74.0536 54.8225 73.8868 54.6911 73.7275C54.6367 73.6617 54.5806 73.5972 54.523 73.5342C53.0381 71.9124 50.4478 71.9124 45.2672 71.9124L44.3205 71.9124C39.4063 71.9124 36.9492 71.9124 35.4773 73.4318C35.4199 73.4911 35.364 73.5518 35.3096 73.6138C33.9147 75.2043 34.1144 77.6533 34.5138 82.5512L35.0581 89.2273C35.3828 93.2091 35.5451 95.1999 36.7718 96.4808C36.9153 96.6307 37.068 96.7714 37.2291 96.9023C38.6054 98.0209 40.6029 98.0209 44.5978 98.0209C48.3836 98.0209 50.2764 98.0209 51.623 96.9847C51.7811 96.8631 51.9317 96.7322 52.074 96.5926Z" fill="url(#paint6_linear)"/>
<path fill-rule="evenodd" clip-rule="evenodd" d="M38.6966 72.7623C37.3566 72.9425 36.5444 73.2873 35.9555 73.8952C35.9057 73.9466 35.8572 73.9992 35.8101 74.0529C35.252 74.6893 34.9744 75.5269 34.9037 76.8771C34.8321 78.2453 34.9761 80.0293 35.1774 82.4972L35.7217 89.1733C35.8854 91.1805 36.0044 92.6269 36.2292 93.7345C36.4507 94.8262 36.7605 95.5065 37.2526 96.0203C37.377 96.1501 37.5093 96.2721 37.6489 96.3855C38.201 96.8342 38.9042 97.0877 40.0103 97.2198C41.1324 97.3539 42.5838 97.355 44.5977 97.355C46.5064 97.355 47.8806 97.3539 48.9481 97.2299C49.9996 97.1077 50.6759 96.8731 51.2168 96.457C51.3537 96.3516 51.4842 96.2381 51.6076 96.1171C52.0949 95.6393 52.4212 95.0022 52.6883 93.9778C52.9595 92.938 53.1515 91.5772 53.4167 89.687L54.0005 85.5264C54.0386 85.2552 54.2388 85.0349 54.5051 84.9713C54.7715 84.9076 55.0497 85.0134 55.2063 85.2381C55.5922 85.7916 56.0308 86.3243 56.487 86.7121C56.953 87.1082 57.3612 87.289 57.6983 87.289H64.6994C64.9818 87.289 65.1204 87.2325 65.1877 87.1891C65.2482 87.1501 65.3054 87.0873 65.3557 86.9546C65.4787 86.6297 65.4826 86.1329 65.4727 85.3837L65.4727 85.3826C65.471 85.2491 65.4691 85.11 65.4686 84.9692C65.4654 84.1239 64.9207 83.8424 64.6994 83.8424C64.6729 83.8424 64.6464 83.8408 64.6201 83.8377L59.3712 83.2086C59.1543 83.1826 58.9639 83.0518 58.8618 82.8587L54.514 74.6384C54.4955 74.6146 54.4784 74.5892 54.463 74.5625C54.3802 74.419 54.2855 74.2825 54.1773 74.1515C54.1302 74.0944 54.0816 74.0385 54.0316 73.9839C53.4386 73.3362 52.5981 72.9676 51.1905 72.7749C49.7654 72.5798 47.8768 72.5783 45.267 72.5783H44.3204C41.8443 72.5783 40.0544 72.5798 38.6966 72.7623ZM55.5428 73.7738C55.5767 73.8124 55.6065 73.8553 55.6313 73.9022L59.876 81.9277L64.744 82.5111C65.7958 82.5383 66.795 83.5241 66.8005 84.9641C66.801 85.0981 66.8027 85.2313 66.8045 85.3662C66.8049 85.3921 66.8052 85.4182 66.8056 85.4445C66.8144 86.081 66.8248 86.8359 66.6012 87.4263C66.4735 87.7634 66.2595 88.0829 65.9092 88.3087C65.5656 88.5301 65.1536 88.6209 64.6994 88.6209H57.6983C56.902 88.6209 56.1932 88.2104 55.6244 87.7269C55.445 87.5745 55.2719 87.4082 55.1059 87.2335L54.7297 89.9147C54.4717 91.7531 54.27 93.1905 53.9771 94.3139C53.6779 95.4615 53.266 96.3563 52.5401 97.0681C52.3787 97.2263 52.2081 97.3747 52.029 97.5125C51.2232 98.1325 50.2798 98.416 49.1018 98.5529C47.9486 98.6869 46.4971 98.6869 44.6408 98.6868H44.5531C42.5934 98.6869 41.0626 98.6869 39.8523 98.5423C38.6168 98.3948 37.6331 98.089 36.8089 97.4191C36.6264 97.2708 36.4534 97.1113 36.2907 96.9415C35.5561 96.1744 35.1714 95.2188 34.9239 93.9994C34.6815 92.8049 34.5571 91.2792 34.3978 89.326L33.8457 82.5537C33.6495 80.1485 33.4968 78.2754 33.5737 76.8075C33.652 75.3111 33.9719 74.1289 34.8087 73.1748C34.8704 73.1045 34.9338 73.0357 34.9988 72.9685C35.8818 72.057 37.0341 71.642 38.5191 71.4423C39.976 71.2464 41.8553 71.2464 44.2685 71.2465L45.3203 71.2465C47.8655 71.2465 49.8453 71.2464 51.3711 71.4553C52.925 71.6681 54.1221 72.1105 55.0139 73.0845C55.0793 73.1559 55.1429 73.229 55.2045 73.3037C55.3284 73.4538 55.4411 73.6103 55.5428 73.7738Z" fill="#31305B"/>
<path d="M30.6865 83.3598C29.8513 79.2346 33.0047 75.3789 37.2135 75.3789H47.3434C51.5158 75.3789 54.6605 79.1717 53.8876 83.2719L52.0675 92.928C51.4743 96.0748 48.7255 98.3539 45.5233 98.3539H39.1684C35.9999 98.3539 33.2702 96.1214 32.6414 93.0159L30.6865 83.3598Z" fill="#545289"/>
<path fill-rule="evenodd" clip-rule="evenodd" d="M47.3434 76.7108H37.2135C33.8464 76.7108 31.3238 79.7954 31.9919 83.0955L33.9468 92.7516C34.4498 95.236 36.6336 97.022 39.1684 97.022H45.5233C48.0851 97.022 50.2841 95.1987 50.7586 92.6813L52.5788 83.0251C53.1971 79.7451 50.6813 76.7108 47.3434 76.7108ZM37.2135 75.3789C33.0047 75.3789 29.8513 79.2346 30.6865 83.3598L32.6414 93.0159C33.2702 96.1214 35.9999 98.3539 39.1684 98.3539H45.5233C48.7255 98.3539 51.4743 96.0748 52.0675 92.928L53.8876 83.2719C54.6605 79.1717 51.5158 75.3789 47.3434 75.3789H37.2135Z" fill="#31305B"/>
<path d="M44.7208 41.7488C44.7208 39.5421 46.5097 37.7532 48.7165 37.7532L78.6838 37.7532C80.8905 37.7532 82.6795 39.5421 82.6795 41.7488V43.1855C82.6795 45.3922 80.8905 47.1811 78.6838 47.1811H49.1041C48.267 47.1811 47.4511 47.444 46.7715 47.9326L44.7208 49.4071L44.7208 41.7488Z" fill="white"/>
<path fill-rule="evenodd" clip-rule="evenodd" d="M44.0548 41.7489C44.0548 39.1743 46.1419 37.0873 48.7164 37.0873H78.6837C81.2583 37.0873 83.3453 39.1743 83.3453 41.7489V43.1855C83.3453 45.76 81.2583 47.8471 78.6837 47.8471H49.104C48.4065 47.8471 47.7265 48.0662 47.1602 48.4734L44.0548 50.7062V41.7489ZM48.7164 38.4192C46.8774 38.4192 45.3867 39.9099 45.3867 41.7489V48.1081L46.3827 47.392C47.1755 46.8219 48.1275 46.5152 49.104 46.5152H78.6837C80.5227 46.5152 82.0134 45.0244 82.0134 43.1855V41.7489C82.0134 39.9099 80.5227 38.4192 78.6837 38.4192H48.7164Z" fill="#31305B"/>
<path d="M60.7196 41.8655C60.8011 41.6492 60.9855 41.6399 61.1788 41.6085C61.3997 41.5729 61.6202 41.5266 61.843 41.5069C62.0536 41.4882 62.2591 41.4386 62.4716 41.426C62.6008 41.418 62.7145 41.3239 62.781 41.1844C62.9907 40.7435 63.2116 40.3078 63.4279 39.8696C63.4883 39.747 63.5847 39.6759 63.7218 39.674C63.859 39.6721 63.9577 39.7405 64.02 39.8626C64.034 39.8902 64.0476 39.9183 64.0616 39.9459C64.2601 40.348 64.4614 40.7491 64.6551 41.1536C64.7314 41.3127 64.8419 41.396 65.0212 41.418C65.4452 41.47 65.8679 41.5355 66.2896 41.6015C66.3486 41.6109 66.409 41.6165 66.467 41.6282C66.5836 41.6516 66.6674 41.7185 66.7086 41.8341C66.7558 41.9656 66.7273 42.0808 66.6299 42.1763C66.3191 42.4824 66.0065 42.7866 65.6943 43.0914C65.6498 43.1349 65.6053 43.1789 65.5599 43.221C65.4644 43.3095 65.4251 43.4157 65.4471 43.5454C65.5239 43.9961 65.5997 44.4473 65.676 44.8981C65.6788 44.9154 65.6849 44.9327 65.6877 44.95C65.7088 45.1036 65.72 45.2552 65.5707 45.3601C65.4242 45.4631 65.288 45.4148 65.1466 45.3395C64.7436 45.1232 64.3364 44.914 63.9334 44.6978C63.7906 44.621 63.6586 44.6219 63.5163 44.6987C63.1016 44.9215 62.6836 45.1382 62.268 45.3591C62.1416 45.4261 62.0185 45.4504 61.8907 45.3671C61.762 45.2828 61.7363 45.1597 61.7573 45.0179C61.7611 44.9917 61.7611 44.9646 61.7658 44.9383C61.8421 44.5012 61.917 44.0635 61.997 43.6268C62.0293 43.4508 61.9928 43.3104 61.8566 43.1826C61.5317 42.8784 61.2177 42.5624 60.8975 42.2535C60.8268 42.1856 60.7636 42.1136 60.7196 42.026C60.7196 41.9722 60.7196 41.9188 60.7196 41.8655Z" fill="url(#paint7_linear)"/>
<path d="M53.7106 41.8655C53.792 41.6492 53.9765 41.6399 54.1698 41.6085C54.3907 41.5729 54.6112 41.5266 54.834 41.5069C55.0446 41.4882 55.2501 41.4386 55.4626 41.426C55.5918 41.418 55.7055 41.3239 55.772 41.1844C55.9817 40.7435 56.2026 40.3078 56.4188 39.8696C56.4792 39.747 56.5756 39.6759 56.7128 39.674C56.8499 39.6721 56.9487 39.7405 57.0109 39.8626C57.025 39.8902 57.0386 39.9183 57.0526 39.9459C57.2511 40.348 57.4523 40.7491 57.6461 41.1536C57.7224 41.3127 57.8329 41.396 58.0121 41.418C58.4362 41.47 58.8589 41.5355 59.2806 41.6015C59.3396 41.6109 59.4 41.6165 59.458 41.6282C59.5746 41.6516 59.6583 41.7185 59.6995 41.8341C59.7468 41.9656 59.7183 42.0808 59.6209 42.1763C59.3101 42.4824 58.9974 42.7866 58.6852 43.0914C58.6408 43.1349 58.5963 43.1789 58.5509 43.221C58.4554 43.3095 58.4161 43.4157 58.4381 43.5454C58.5148 43.9961 58.5907 44.4473 58.667 44.8981C58.6698 44.9154 58.6759 44.9327 58.6787 44.95C58.6997 45.1036 58.711 45.2552 58.5617 45.3601C58.4152 45.4631 58.2789 45.4148 58.1376 45.3395C57.7346 45.1232 57.3274 44.914 56.9244 44.6978C56.7816 44.621 56.6496 44.6219 56.5073 44.6987C56.0926 44.9215 55.6746 45.1382 55.259 45.3591C55.1326 45.4261 55.0095 45.4504 54.8817 45.3671C54.753 45.2828 54.7272 45.1597 54.7483 45.0179C54.7521 44.9917 54.7521 44.9646 54.7567 44.9383C54.833 44.5012 54.9079 44.0635 54.988 43.6268C55.0203 43.4508 54.9837 43.3104 54.8475 43.1826C54.5227 42.8784 54.2086 42.5624 53.8885 42.2535C53.8178 42.1856 53.7546 42.1136 53.7106 42.026C53.7106 41.9722 53.7106 41.9188 53.7106 41.8655Z" fill="url(#paint8_linear)"/>
<path d="M47.0516 41.8655C47.133 41.6492 47.3174 41.6399 47.5107 41.6085C47.7317 41.5729 47.9521 41.5266 48.1749 41.5069C48.3856 41.4882 48.591 41.4386 48.8036 41.426C48.9327 41.418 49.0465 41.3239 49.1129 41.1844C49.3226 40.7435 49.5436 40.3078 49.7598 39.8696C49.8202 39.747 49.9166 39.6759 50.0538 39.674C50.1909 39.6721 50.2897 39.7405 50.3519 39.8626C50.366 39.8902 50.3795 39.9183 50.3936 39.9459C50.592 40.348 50.7933 40.7491 50.9871 41.1536C51.0634 41.3127 51.1738 41.396 51.3531 41.418C51.7772 41.47 52.1999 41.5355 52.6216 41.6015C52.6806 41.6109 52.7409 41.6165 52.799 41.6282C52.9155 41.6516 52.9993 41.7185 53.0405 41.8341C53.0878 41.9656 53.0592 42.0808 52.9619 42.1763C52.6511 42.4824 52.3384 42.7866 52.0262 43.0914C51.9817 43.1349 51.9373 43.1789 51.8919 43.221C51.7964 43.3095 51.7571 43.4157 51.7791 43.5454C51.8558 43.9961 51.9316 44.4473 52.0079 44.8981C52.0108 44.9154 52.0168 44.9327 52.0196 44.95C52.0407 45.1036 52.0519 45.2552 51.9026 45.3601C51.7561 45.4631 51.6199 45.4148 51.4786 45.3395C51.0756 45.1232 50.6683 44.914 50.2653 44.6978C50.1226 44.621 49.9906 44.6219 49.8483 44.6987C49.4336 44.9215 49.0156 45.1382 48.5999 45.3591C48.4736 45.4261 48.3505 45.4504 48.2227 45.3671C48.094 45.2828 48.0682 45.1597 48.0893 45.0179C48.093 44.9917 48.093 44.9646 48.0977 44.9383C48.174 44.5012 48.2489 44.0635 48.3289 43.6268C48.3612 43.4508 48.3247 43.3104 48.1885 43.1826C47.8637 42.8784 47.5496 42.5624 47.2294 42.2535C47.1588 42.1856 47.0956 42.1136 47.0516 42.026C47.0516 41.9722 47.0516 41.9188 47.0516 41.8655Z" fill="url(#paint9_linear)"/>
<path d="M67.6052 41.8655C67.6866 41.6492 67.871 41.6399 68.0643 41.6085C68.2853 41.5729 68.5057 41.5266 68.7285 41.5069C68.9392 41.4882 69.1446 41.4386 69.3571 41.426C69.4863 41.418 69.6001 41.3239 69.6665 41.1844C69.8762 40.7435 70.0972 40.3078 70.3134 39.8696C70.3738 39.747 70.4702 39.6759 70.6074 39.674C70.7445 39.6721 70.8433 39.7405 70.9055 39.8626C70.9196 39.8902 70.9331 39.9183 70.9472 39.9459C71.1456 40.348 71.3469 40.7491 71.5407 41.1536C71.617 41.3127 71.7274 41.396 71.9067 41.418C72.3308 41.47 72.7534 41.5355 73.1752 41.6015C73.2341 41.6109 73.2945 41.6165 73.3526 41.6282C73.4691 41.6516 73.5529 41.7185 73.5941 41.8341C73.6414 41.9656 73.6128 42.0808 73.5155 42.1763C73.2047 42.4824 72.892 42.7866 72.5798 43.0914C72.5353 43.1349 72.4909 43.1789 72.4455 43.221C72.35 43.3095 72.3106 43.4157 72.3326 43.5454C72.4094 43.9961 72.4852 44.4473 72.5615 44.8981C72.5643 44.9154 72.5704 44.9327 72.5732 44.95C72.5943 45.1036 72.6055 45.2552 72.4562 45.3601C72.3097 45.4631 72.1735 45.4148 72.0321 45.3395C71.6291 45.1232 71.2219 44.914 70.8189 44.6978C70.6762 44.621 70.5442 44.6219 70.4019 44.6987C69.9872 44.9215 69.5692 45.1382 69.1535 45.3591C69.0272 45.4261 68.9041 45.4504 68.7763 45.3671C68.6476 45.2828 68.6218 45.1597 68.6429 45.0179C68.6466 44.9917 68.6466 44.9646 68.6513 44.9383C68.7276 44.5012 68.8025 44.0635 68.8825 43.6268C68.9148 43.4508 68.8783 43.3104 68.7421 43.1826C68.4173 42.8784 68.1032 42.5624 67.783 42.2535C67.7124 42.1856 67.6492 42.1136 67.6052 42.026C67.6052 41.9722 67.6052 41.9188 67.6052 41.8655Z" fill="#E5E5E5"/>
<path d="M74.4902 41.8655C74.5716 41.6492 74.756 41.6399 74.9493 41.6085C75.1703 41.5729 75.3907 41.5266 75.6135 41.5069C75.8242 41.4882 76.0296 41.4386 76.2421 41.426C76.3713 41.418 76.4851 41.3239 76.5515 41.1844C76.7612 40.7435 76.9822 40.3078 77.1984 39.8696C77.2588 39.747 77.3552 39.6759 77.4923 39.674C77.6295 39.6721 77.7283 39.7405 77.7905 39.8626C77.8045 39.8902 77.8181 39.9183 77.8322 39.9459C78.0306 40.348 78.2319 40.7491 78.4257 41.1536C78.502 41.3127 78.6124 41.396 78.7917 41.418C79.2158 41.47 79.6384 41.5355 80.0602 41.6015C80.1191 41.6109 80.1795 41.6165 80.2376 41.6282C80.3541 41.6516 80.4379 41.7185 80.4791 41.8341C80.5264 41.9656 80.4978 42.0808 80.4004 42.1763C80.0897 42.4824 79.777 42.7866 79.4648 43.0914C79.4203 43.1349 79.3758 43.1789 79.3304 43.221C79.235 43.3095 79.1956 43.4157 79.2176 43.5454C79.2944 43.9961 79.3702 44.4473 79.4465 44.8981C79.4493 44.9154 79.4554 44.9327 79.4582 44.95C79.4793 45.1036 79.4905 45.2552 79.3412 45.3601C79.1947 45.4631 79.0585 45.4148 78.9171 45.3395C78.5141 45.1232 78.1069 44.914 77.7039 44.6978C77.5612 44.621 77.4292 44.6219 77.2869 44.6987C76.8722 44.9215 76.4542 45.1382 76.0385 45.3591C75.9121 45.4261 75.789 45.4504 75.6613 45.3671C75.5325 45.2828 75.5068 45.1597 75.5279 45.0179C75.5316 44.9917 75.5316 44.9646 75.5363 44.9383C75.6126 44.5012 75.6875 44.0635 75.7675 43.6268C75.7998 43.4508 75.7633 43.3104 75.6271 43.1826C75.3023 42.8784 74.9882 42.5624 74.668 42.2535C74.5973 42.1856 74.5342 42.1136 74.4902 42.026C74.4902 41.9722 74.4902 41.9188 74.4902 41.8655Z" fill="#E5E5E5"/>
<defs>
<linearGradient id="paint0_linear" x1="82.9558" y1="86.2351" x2="84.4478" y2="73.0256" gradientUnits="userSpaceOnUse">
<stop stop-color="#E83979"/>
<stop offset="1" stop-color="#F76482"/>
</linearGradient>
<linearGradient id="paint1_linear" x1="80.2926" y1="47.5992" x2="78.2344" y2="65.5281" gradientUnits="userSpaceOnUse">
<stop stop-color="#BF8B65"/>
<stop offset="1" stop-color="#502100"/>
</linearGradient>
<linearGradient id="paint2_linear" x1="80.1794" y1="66.7706" x2="80.1794" y2="74.2402" gradientUnits="userSpaceOnUse">
<stop stop-color="#FFEEB1"/>
<stop offset="1" stop-color="#E79A79"/>
</linearGradient>
<linearGradient id="paint3_linear" x1="80.2428" y1="58.3956" x2="80.2428" y2="69.2189" gradientUnits="userSpaceOnUse">
<stop stop-color="#FFEEB1"/>
<stop offset="1" stop-color="#E79A79"/>
</linearGradient>
<linearGradient id="paint4_linear" x1="45.0534" y1="60.7283" x2="45.0534" y2="70.0515" gradientUnits="userSpaceOnUse">
<stop stop-color="#FFEEB1"/>
<stop offset="1" stop-color="#E79A79"/>
</linearGradient>
<linearGradient id="paint5_linear" x1="45.0537" y1="48.5748" x2="43.2223" y2="63.059" gradientUnits="userSpaceOnUse">
<stop stop-color="#BF8B65"/>
<stop offset="1" stop-color="#502100"/>
</linearGradient>
<linearGradient id="paint6_linear" x1="50.2617" y1="119.416" x2="50.2617" y2="56.5687" gradientUnits="userSpaceOnUse">
<stop stop-color="#70007A"/>
<stop offset="1" stop-color="#B67F7F"/>
</linearGradient>
<linearGradient id="paint7_linear" x1="63.7253" y1="39.674" x2="63.7253" y2="50.2396" gradientUnits="userSpaceOnUse">
<stop stop-color="#F4C859"/>
<stop offset="1" stop-color="#F09769"/>
</linearGradient>
<linearGradient id="paint8_linear" x1="56.7162" y1="39.674" x2="56.7162" y2="50.2396" gradientUnits="userSpaceOnUse">
<stop stop-color="#F4C859"/>
<stop offset="1" stop-color="#F09769"/>
</linearGradient>
<linearGradient id="paint9_linear" x1="50.0572" y1="39.674" x2="50.0572" y2="50.2396" gradientUnits="userSpaceOnUse">
<stop stop-color="#F4C859"/>
<stop offset="1" stop-color="#F09769"/>
</linearGradient>
</defs>
</svg>
