<svg width="42" height="42" viewBox="0 0 42 42" fill="none" xmlns="http://www.w3.org/2000/svg">
<path d="M28.7956 22.5427L27.3601 21.6996C27.505 20.9044 27.505 20.0887 27.3601 19.2936L28.7956 18.4504C28.9607 18.3544 29.0349 18.1557 28.981 17.9706C28.6069 16.7504 27.9701 15.6468 27.1377 14.7282C27.0097 14.5877 26.8008 14.5535 26.639 14.6494L25.2035 15.4926C24.6004 14.9647 23.9062 14.5569 23.1548 14.2895V12.6067C23.1548 12.4147 23.0234 12.2468 22.838 12.2057C21.6013 11.9246 20.3343 11.9383 19.1583 12.2057C18.973 12.2468 18.8416 12.4147 18.8416 12.6067V14.293C18.0935 14.5637 17.3993 14.9716 16.7928 15.496L15.3607 14.6528C15.1956 14.5569 14.99 14.5877 14.862 14.7317C14.0296 15.6468 13.3928 16.7504 13.0187 17.974C12.9615 18.1591 13.039 18.3579 13.2041 18.4538L14.6396 19.297C14.4947 20.0921 14.4947 20.9079 14.6396 21.703L13.2041 22.5462C13.039 22.6421 12.9648 22.8409 13.0187 23.026C13.3928 24.2462 14.0296 25.3498 14.862 26.2683C14.99 26.4088 15.1989 26.4431 15.3607 26.3472L16.7962 25.504C17.3993 26.0318 18.0935 26.4397 18.8449 26.707V28.3933C18.8449 28.5853 18.9764 28.7532 19.1617 28.7943C20.3984 29.0754 21.6654 29.0617 22.8414 28.7943C23.0267 28.7532 23.1581 28.5853 23.1581 28.3933V26.707C23.9062 26.4363 24.6004 26.0284 25.2069 25.504L26.6424 26.3472C26.8075 26.4431 27.0131 26.4123 27.1411 26.2683C27.9734 25.3532 28.6103 24.2496 28.9843 23.026C29.0349 22.8375 28.9607 22.6387 28.7956 22.5427ZM20.9982 23.2385C19.5121 23.2385 18.3024 22.0081 18.3024 20.4966C18.3024 18.9851 19.5121 17.7546 20.9982 17.7546C22.4842 17.7546 23.6939 18.9851 23.6939 20.4966C23.6939 22.0081 22.4842 23.2385 20.9982 23.2385Z" fill="#858585"/>
<circle cx="21" cy="21" r="20.5" stroke="#858585"/>
</svg>
