<svg width="32" height="32" viewBox="0 0 32 32" fill="none" xmlns="http://www.w3.org/2000/svg">
<rect x="0.5" y="0.5" width="31" height="31" rx="15.5" stroke="#FF007A"/>
<path d="M15.9871 8C20.5613 8 24 11.5516 24 16C24 20.7452 20.1774 24 15.9871 24C11.6645 24 8 20.4677 8 16C8 11.7129 11.3774 8 15.9871 8ZM16.0129 9.44194C12.2 9.44194 9.44194 12.6 9.44194 16C9.44194 19.5419 12.3839 22.5419 16.0129 22.5419C19.3419 22.5419 22.5548 19.9258 22.5548 16C22.5581 12.329 19.6452 9.44194 16.0129 9.44194ZM16 11.3935C13.3581 11.3935 12.6935 13.8871 12.6935 16C12.6935 18.1129 13.3581 20.6065 16 20.6065C18.6419 20.6065 19.3065 18.1129 19.3065 16C19.3065 13.8871 18.6419 11.3935 16 11.3935ZM16 13.1323C16.1065 13.1323 16.2065 13.1484 16.2968 13.171C16.4871 13.3355 16.5806 13.5613 16.3968 13.8774L14.6387 17.1097C14.5839 16.7 14.5774 16.3 14.5774 16C14.5774 15.071 14.6419 13.1323 16 13.1323ZM17.3161 14.6226C17.4097 15.1194 17.4226 15.6355 17.4226 16C17.4226 16.9323 17.3581 18.8677 16 18.8677C15.5645 18.8677 14.9484 18.6194 15.3516 18.0161L17.3161 14.6226Z" fill="#FF007A"/>
</svg>
