<svg width="32" height="32" viewBox="0 0 32 32" fill="none" xmlns="http://www.w3.org/2000/svg">
<rect x="0.5" y="0.5" width="31" height="31" rx="15.5" stroke="#8032FF"/>
<path d="M8 13.6404V13.1204C8 12.6897 8.33578 12.3405 8.75 12.3405H20V10.7807C20 10.0863 20.8093 9.73944 21.2803 10.2292L23.7803 12.8289C24.0732 13.1335 24.0732 13.6273 23.7803 13.9319L21.2803 16.5316C20.8111 17.0194 20 16.6774 20 15.9801V14.4203H8.75C8.33578 14.4203 8 14.0711 8 13.6404ZM23.25 18.5799H12V17.02C12 16.3274 11.1918 15.9775 10.7197 16.4685L8.21966 19.0683C7.92678 19.3728 7.92678 19.8667 8.21966 20.1712L10.7197 22.7709C11.1893 23.2593 12 22.9161 12 22.2195V20.6596H23.25C23.6642 20.6596 24 20.3105 24 19.8797V19.3598C24 18.929 23.6642 18.5799 23.25 18.5799Z" fill="#8032FF"/>
</svg>
